<?xml version="1.0" standalone="no"?>
<!DOCTYPE svg PUBLIC "-//W3C//DTD SVG 1.1//EN" "http://www.w3.org/Graphics/SVG/1.1/DTD/svg11.dtd" >
<svg>
<metadata>
Created by FontForge 20120731 at Tue Nov  1 13:30:22 2016
 By ,,,
Copyright (c) 2003-2009 Typotheque.com All rights reserved.
</metadata>
<defs>
<font id="FedraSerifAStdBook" horiz-adv-x="600" >
  <font-face 
    font-family="Fedra Serif A Std Book"
    font-weight="350"
    font-stretch="normal"
    units-per-em="1000"
    panose-1="2 3 5 5 0 0 0 2 0 4"
    ascent="780"
    descent="-220"
    x-height="546"
    cap-height="707"
    bbox="-560 -452 2307 988"
    underline-thickness="50"
    underline-position="-50"
    unicode-range="U+0020-FB06"
  />
<missing-glyph horiz-adv-x="712" 
d="M305 375v27h27v-27h-27zM380 525v27h27v-27h-27zM305 525v27h27v-27h-27zM230 525v27h27v-27h-27zM80 0v27h27v-27h-27zM155 0v27h27v-27h-27zM230 0v27h27v-27h-27zM305 0v27h27v-27h-27zM380 0v27h27v-27h-27zM80 75v27h27v-27h-27zM80 150v27h27v-27h-27zM80 225v27
h27v-27h-27zM80 300v27h27v-27h-27zM80 375v27h27v-27h-27zM80 450v27h27v-27h-27zM80 525v27h27v-27h-27zM80 600v27h27v-27h-27zM80 675v27h27v-27h-27zM155 675v27h27v-27h-27zM230 675v27h27v-27h-27zM305 675v27h27v-27h-27zM380 675v27h27v-27h-27zM455 675v27h27v-27
h-27zM530 675v27h27v-27h-27zM530 0v27h27v-27h-27zM455 0v27h27v-27h-27zM605 0v27h27v-27h-27zM605 675v27h27v-27h-27zM305 300v27h27v-27h-27zM305 150v27h27v-27h-27zM380 375v27h27v-27h-27zM455 375v27h27v-27h-27zM455 450v27h27v-27h-27zM455 525v27h27v-27h-27z
M605 600v27h27v-27h-27zM605 525v27h27v-27h-27zM605 375v27h27v-27h-27zM605 300v27h27v-27h-27zM605 150v27h27v-27h-27zM605 75v27h27v-27h-27zM605 225v27h27v-27h-27zM605 450v27h27v-27h-27z" />
    <glyph glyph-name="f_f" unicode="ff" horiz-adv-x="748" 
d="M38 0q-5 27 -4 44l57 24q14 6 23.5 23.5t9.5 36.5l3 145v207h-80v50l80 14v33q0 80 74 137.5t159 57.5q133 0 203 -58q59 56 136 56q20 0 41 -2t48.5 -7.5t44.5 -18.5t17 -32q0 -42 -34 -65q-65 57 -107 57q-43 0 -69 -9.5t-37.5 -31t-14.5 -41.5t-3 -55v-23h119v-62
h-119v-207l7 -178q0 -15 11 -17l122 -26q0 -36 -5 -52h-312q-4 20 -4 44l43 18q47 19 47 66l3 145v207h-282v-207l5 -166q1 -19 4 -24t17 -8l93 -21q0 -40 -5 -54h-291zM215 542h282v27q0 39 15 72q-62 66 -120 66q-96 0 -136.5 -27t-40.5 -89v-49z" />
    <glyph glyph-name="fi" unicode="fi" horiz-adv-x="708" 
d="M37 0q-5 27 -4 44l57 24q14 6 23.5 23.5t9.5 36.5l3 145v207h-79v50l79 12v27q0 89 73 155t164 66q99 0 148 -25.5t49 -63.5q0 -37 -61 -66q-4 5 -16.5 22.5t-21.5 29.5t-22.5 23.5t-24.5 13.5h-35q-34 0 -58 -3.5t-51 -16t-41.5 -41t-14.5 -72.5v-49h244q59 11 95 11
q21 0 30.5 -8t9.5 -28v-245l3 -183q1 -12 4.5 -16t12.5 -6l87 -16q0 -36 -4 -51h-284q-5 27 -4 44l63 22q12 4 22 22t10 32l3 152v208h-292v-207l5 -166q1 -19 4 -24t17 -8l103 -21q0 -40 -5 -54h-301z" />
    <glyph glyph-name="fl" unicode="fl" horiz-adv-x="700" 
d="M690 50q0 -36 -5 -50h-280q-4 30 -3 44l53 19q33 12 35 56l5 154v414q-54 36 -103 36q-96 0 -136.5 -27t-40.5 -89v-65h119v-62h-119v-207l5 -166q1 -19 4 -24t17 -8l93 -21q0 -40 -5 -54h-291q-5 27 -4 44l57 24q14 6 23.5 23.5t9.5 36.5l3 145v207h-80v50l80 14v49
q0 80 74 137.5t159 57.5q93 0 150 -26q24 2 33 2q39 0 39 -39v-452l5 -187q0 -12 2 -14.5t10 -4.5z" />
    <glyph glyph-name="f_f_i" unicode="ffi" horiz-adv-x="1079" 
d="M38 0q-5 27 -4 44l57 24q14 6 23.5 23.5t9.5 36.5l3 145v207h-80v50l80 14v33q0 80 74 137.5t159 57.5q132 0 201 -57q73 75 173 75q99 0 148 -25.5t49 -63.5q0 -37 -61 -66q-4 5 -16.5 22.5t-21.5 29.5t-22.5 23.5t-24.5 13.5h-35q-34 0 -58 -3.5t-51 -16t-41.5 -41
t-14.5 -72.5v-49h244q59 11 95 11q21 0 30.5 -8t9.5 -28v-245l3 -183q1 -12 4.5 -16t12.5 -6l87 -16q0 -36 -4 -51h-284q-5 27 -4 44l63 22q12 4 22 22t10 32l3 152v208h-292v-207l5 -166q1 -19 4 -24t17 -8l103 -21q0 -40 -5 -54h-301q-5 27 -4 44l57 24q14 6 23.5 23.5
t9.5 36.5l3 145v207h-282v-207l5 -166q1 -19 4 -24t17 -8l93 -21q0 -40 -5 -54h-291zM215 542h282v27q0 37 14 73q-61 65 -119 65q-96 0 -136.5 -27t-40.5 -89v-49z" />
    <glyph glyph-name="f_f_l" unicode="ffl" horiz-adv-x="1070" 
d="M38 0q-5 27 -4 44l57 24q14 6 23.5 23.5t9.5 36.5l3 145v207h-80v50l80 14v33q0 80 74 137.5t159 57.5q129 0 197 -54q75 70 173 70q95 0 151 -27q23 3 32 3q39 0 39 -39v-452l5 -187q0 -12 2 -14.5t10 -4.5l91 -17q0 -36 -5 -50h-280q-4 30 -3 44l53 19q33 12 35 56
l5 154v413q-49 37 -103 37q-96 0 -136.5 -27t-40.5 -89v-65h119v-62h-119v-207l5 -166q1 -19 4 -24t17 -8l93 -21q0 -40 -5 -54h-291q-5 27 -4 44l57 24q14 6 23.5 23.5t9.5 36.5l3 145v207h-282v-207l5 -166q1 -19 4 -24t17 -8l93 -21q0 -40 -5 -54h-291zM215 542h282v51
q0 29 10 53q-59 61 -115 61q-96 0 -136.5 -27t-40.5 -89v-49z" />
    <glyph glyph-name="f_h" unicode="fh" horiz-adv-x="1062" 
d="M38 0q-5 27 -4 44l57 24q14 6 23.5 23.5t9.5 36.5l3 145v207h-80v50l80 14v49q0 80 74 137.5t159 57.5q92 0 151 -26q22 2 32 2q21 0 30 -8t9 -28v-243q99 72 206 72q44 0 75 -9.5t48.5 -24t27 -40t12 -49.5t2.5 -61v-100l3 -185q0 -11 4 -15t15 -6l72 -14q0 -39 -5 -53
h-248q-4 32 -3 49l43 19q12 5 20.5 24.5t8.5 34.5l3 146v84q0 73 -20.5 98.5t-92.5 25.5q-43 0 -96 -15.5t-75 -29.5v-163l4 -174q0 -18 3 -24t16 -8l94 -16q0 -37 -5 -51h-278q-4 30 -3 44l46 20q14 6 23.5 25t10.5 42l2 142v414q-54 36 -103 36q-96 0 -136.5 -27
t-40.5 -89v-65h119v-62h-119v-207l5 -166q1 -19 4 -24t17 -8l93 -21q0 -40 -5 -54h-291z" />
    <glyph glyph-name="f_b" unicode="fb" horiz-adv-x="1002" 
d="M954 285q0 -128 -77 -210t-193 -82q-124 0 -193 21l5 259v413q-53 37 -104 37q-96 0 -136.5 -27t-40.5 -89v-65h119v-62h-119v-207l5 -166q1 -19 4 -24t17 -8l93 -21q0 -40 -5 -54h-291q-5 27 -4 44l57 24q14 6 23.5 23.5t9.5 36.5l3 145v207h-80v50l80 14v49
q0 80 74 137.5t159 57.5q93 0 150 -26q24 2 33 2q21 0 30 -8t9 -28v-455l5 -200q52 -10 100 -10q86 0 127.5 58t41.5 156q0 97 -31.5 150.5t-114.5 53.5q-52 0 -85 -7l-12 41q18 14 55.5 25t66.5 11q110 0 164.5 -61t54.5 -205z" />
    <glyph glyph-name="f_j" unicode="fj" horiz-adv-x="675" 
d="M412 -212q-39 0 -60 8l9 65q34 -8 63 -8q50 0 66 29.5t16 97.5v500h-292v-207l5 -166q1 -19 4 -24t17 -8l103 -21q0 -40 -5 -54h-301q-5 27 -4 44l57 24q14 6 23.5 23.5t9.5 36.5l3 145v207h-79v50l79 12v27q0 89 73 155t164 66q99 0 148 -25.5t49 -63.5q0 -37 -61 -66
q-4 5 -16.5 22.5t-21.5 29.5t-22.5 23.5t-24.5 13.5h-35q-34 0 -58 -3.5t-51 -16t-41.5 -41t-14.5 -72.5v-49h246q59 11 95 11q21 0 29.5 -8t8.5 -28v-245l5 -263q2 -99 -52.5 -160t-133.5 -61z" />
    <glyph glyph-name="f_k" unicode="fk" horiz-adv-x="969" 
d="M38 0q-5 27 -4 44l57 24q14 6 23.5 23.5t9.5 36.5l3 145v207h-80v50l80 14v49q0 80 74 137.5t159 57.5q93 0 150 -26q24 2 33 2q39 0 39 -39v-452l3 -149q2 -50 30 -62l38 -17q0 -31 -5 -45h-242q-4 30 -3 44l53 21q16 6 25.5 26t9.5 39l4 143v414q-54 36 -103 36
q-96 0 -136.5 -27t-40.5 -89v-65h119v-62h-119v-207l5 -166q1 -19 4 -24t17 -8l93 -21q0 -40 -5 -54h-291zM972 26l-3 -47q-50 0 -110 19t-99 71l-163 215l160 156q14 14 14 27q0 22 -16 27l-43 16q-1 25 2 36h198v-36l-213 -201l137 -185q28 -38 68.5 -64t67.5 -34z" />
    <glyph glyph-name="f_idieresis" unicode="f&#xef;" horiz-adv-x="762" 
d="M528 646q-9 0 -35.5 26.5t-26.5 35.5q0 10 26.5 36t35.5 26t36 -26.5t27 -35.5q0 -8 -27 -35t-36 -27zM711 646q-9 0 -35.5 26.5t-26.5 35.5q0 10 26.5 36t35.5 26t36 -26.5t27 -35.5q0 -8 -27 -35t-36 -27zM442 701q0 -38 -41 -60q-51 62 -89 62q-55 0 -76 -36t-21 -102
v-23h119v-62h-119v-207l7 -178q0 -15 11 -17l122 -26q0 -36 -5 -52h-312q-4 20 -4 44l43 18q47 19 47 66l3 145v207h-80v50l80 13v26q0 79 60 140t131 61q124 0 124 -69zM754 51q0 -37 -5 -51h-284q-4 30 -3 44l63 22q11 4 21 22t11 32l3 152v209h-102v50q99 22 149 22
q21 0 30.5 -8t9.5 -28v-245l3 -183q0 -19 17 -22z" />
    <glyph glyph-name="f_igrave" unicode="f&#xec;" horiz-adv-x="762" 
d="M464 808l79 34q39 -115 105 -221l-42 -30q-81 102 -142 217zM442 701q0 -38 -41 -60q-51 62 -89 62q-55 0 -76 -36t-21 -102v-23h119v-62h-119v-207l7 -178q0 -15 11 -17l122 -26q0 -36 -5 -52h-312q-4 20 -4 44l43 18q47 19 47 66l3 145v207h-80v50l80 13v26
q0 79 60 140t131 61q124 0 124 -69zM754 51q0 -37 -5 -51h-284q-4 30 -3 44l63 22q11 4 21 22t11 32l3 152v209h-102v50q99 22 149 22q21 0 30.5 -8t9.5 -28v-245l3 -183q0 -19 17 -22z" />
    <glyph glyph-name="f_f_j" unicode="ffj" horiz-adv-x="1047" 
d="M783 -212q-39 0 -60 8l9 65q34 -8 63 -8q50 0 66 29.5t16 97.5v500h-292v-207l5 -166q1 -19 4 -24t17 -8l103 -21q0 -40 -5 -54h-301q-5 27 -4 44l57 24q14 6 23.5 23.5t9.5 36.5l3 145v207h-282v-207l5 -166q1 -19 4 -24t17 -8l93 -21q0 -40 -5 -54h-291q-5 27 -4 44
l57 24q14 6 23.5 23.5t9.5 36.5l3 145v207h-80v50l80 14v33q0 80 74 137.5t159 57.5q132 0 201 -57q73 75 173 75q99 0 148 -25.5t49 -63.5q0 -37 -61 -66q-4 5 -16.5 22.5t-21.5 29.5t-22.5 23.5t-24.5 13.5h-35q-34 0 -58 -3.5t-51 -16t-41.5 -41t-14.5 -72.5v-49h246
q59 11 95 11q21 0 29.5 -8t8.5 -28v-245l5 -263q2 -99 -52.5 -160t-133.5 -61zM215 542h282v27q0 37 14 73q-61 65 -119 65q-96 0 -136.5 -27t-40.5 -89v-49z" />
    <glyph glyph-name="f_f_b" unicode="ffb" horiz-adv-x="1372" 
d="M1054 -7q-124 0 -193 21l5 259v413q-54 37 -104 37q-96 0 -136.5 -27t-40.5 -89v-65h119v-62h-119v-207l5 -166q1 -19 4 -24t17 -8l93 -21q0 -40 -5 -54h-291q-5 27 -4 44l57 24q14 6 23.5 23.5t9.5 36.5l3 145v207h-282v-207l5 -166q1 -19 4 -24t17 -8l93 -21
q0 -40 -5 -54h-291q-5 27 -4 44l57 24q14 6 23.5 23.5t9.5 36.5l3 145v207h-80v50l80 14v33q0 80 74 137.5t159 57.5q129 0 197 -54q75 70 173 70q87 0 152 -26q15 2 31 2q21 0 30 -8t9 -28v-455l5 -200q52 -10 100 -10q86 0 127.5 58t41.5 156q0 97 -31.5 150.5
t-114.5 53.5q-52 0 -85 -7l-12 41q18 14 55.5 25t66.5 11q110 0 164.5 -61t54.5 -205q0 -128 -77 -210t-193 -82zM215 542h282v51q0 29 10 53q-59 61 -115 61q-96 0 -136.5 -27t-40.5 -89v-49z" />
    <glyph glyph-name="f_f_h" unicode="ffh" horiz-adv-x="1442" 
d="M38 0q-5 27 -4 44l57 24q14 6 23.5 23.5t9.5 36.5l3 145v207h-80v50l80 14v33q0 80 74 137.5t159 57.5q129 0 197 -54q75 70 173 70q92 0 153 -27q2 0 17.5 1.5t22.5 1.5q21 0 30 -8t9 -28v-243q99 72 206 72q44 0 75 -9.5t48.5 -24t27 -40t12 -49.5t2.5 -61v-100l3 -185
q0 -11 4 -15t15 -6l72 -14q0 -39 -5 -53h-248q-4 32 -3 49l43 19q12 5 20.5 24.5t8.5 34.5l3 146v84q0 73 -20.5 98.5t-92.5 25.5q-43 0 -96 -15.5t-75 -29.5v-163l4 -174q0 -18 3 -24t16 -8l94 -16q0 -37 -5 -51h-278q-4 30 -3 44l46 20q14 6 23.5 25t10.5 42l2 142v407
q-57 43 -113 43q-96 0 -136.5 -27t-40.5 -89v-65h119v-62h-119v-207l5 -166q1 -19 4 -24t17 -8l93 -21q0 -40 -5 -54h-291q-5 27 -4 44l57 24q14 6 23.5 23.5t9.5 36.5l3 145v207h-282v-207l5 -166q1 -19 4 -24t17 -8l93 -21q0 -40 -5 -54h-291zM215 542h282v51q0 29 10 53
q-59 61 -115 61q-96 0 -136.5 -27t-40.5 -89v-49z" />
    <glyph glyph-name="f_f_k" unicode="ffk" horiz-adv-x="1350" 
d="M38 0q-5 27 -4 44l57 24q14 6 23.5 23.5t9.5 36.5l3 145v207h-80v50l80 14v33q0 80 74 137.5t159 57.5q129 0 197 -54q75 70 173 70q96 0 152 -27q22 3 42 3q39 0 39 -39v-452l3 -149q2 -50 30 -62l38 -17q0 -31 -5 -45h-242q-4 30 -3 44l53 21q16 6 25.5 26t9.5 39
l4 143v406q-59 44 -114 44q-96 0 -136.5 -27t-40.5 -89v-65h119v-62h-119v-207l5 -166q1 -19 4 -24t17 -8l93 -21q0 -40 -5 -54h-291q-5 27 -4 44l57 24q14 6 23.5 23.5t9.5 36.5l3 145v207h-282v-207l5 -166q1 -19 4 -24t17 -8l93 -21q0 -40 -5 -54h-291zM215 542h282v51
q0 29 10 53q-59 61 -115 61q-96 0 -136.5 -27t-40.5 -89v-49zM1353 26l-3 -47q-50 0 -110 19t-99 71l-163 215l160 156q14 14 14 27q0 22 -16 27l-43 16q-1 25 2 36h198v-36l-213 -201l137 -185q28 -38 68.5 -64t67.5 -34z" />
    <glyph glyph-name="aogonek_j" unicode="&#x105;j" horiz-adv-x="882" 
d="M553 -235q-85 0 -132 32t-47 87q0 59 46 112q-34 6 -50 29.5t-17 53.5q-15 -16 -35.5 -32.5t-65 -35.5t-88.5 -19q-57 0 -94.5 33t-37.5 94q0 74 55 116t135 55l130 17v79q0 59 -31 80.5t-107 21.5q-62 0 -131 -21l-16 58q81 33 174 33q31 0 51 -1.5t50.5 -9t49 -22
t32.5 -43t14 -69.5v-140l7 -198h109l7 -40q-105 -44 -105 -130q0 -39 26 -59t67 -20q89 0 127 43.5t38 140.5v470h-100v51q99 22 149 22q21 0 29.5 -8t8.5 -28v-245l5 -233q1 -129 -73 -201.5t-180 -72.5zM200 75q27 0 65 12.5t63 25.5l24 13v127q-73 -8 -124 -20
q-103 -24 -103 -98q0 -26 17.5 -43t57.5 -17zM757 641q-11 0 -42.5 32t-31.5 43q0 12 31.5 43t42.5 31t43 -31.5t32 -42.5q0 -10 -31.5 -42.5t-43.5 -32.5z" />
    <glyph glyph-name=".notdef" horiz-adv-x="712" 
d="M305 375v27h27v-27h-27zM380 525v27h27v-27h-27zM305 525v27h27v-27h-27zM230 525v27h27v-27h-27zM80 0v27h27v-27h-27zM155 0v27h27v-27h-27zM230 0v27h27v-27h-27zM305 0v27h27v-27h-27zM380 0v27h27v-27h-27zM80 75v27h27v-27h-27zM80 150v27h27v-27h-27zM80 225v27
h27v-27h-27zM80 300v27h27v-27h-27zM80 375v27h27v-27h-27zM80 450v27h27v-27h-27zM80 525v27h27v-27h-27zM80 600v27h27v-27h-27zM80 675v27h27v-27h-27zM155 675v27h27v-27h-27zM230 675v27h27v-27h-27zM305 675v27h27v-27h-27zM380 675v27h27v-27h-27zM455 675v27h27v-27
h-27zM530 675v27h27v-27h-27zM530 0v27h27v-27h-27zM455 0v27h27v-27h-27zM605 0v27h27v-27h-27zM605 675v27h27v-27h-27zM305 300v27h27v-27h-27zM305 150v27h27v-27h-27zM380 375v27h27v-27h-27zM455 375v27h27v-27h-27zM455 450v27h27v-27h-27zM455 525v27h27v-27h-27z
M605 600v27h27v-27h-27zM605 525v27h27v-27h-27zM605 375v27h27v-27h-27zM605 300v27h27v-27h-27zM605 150v27h27v-27h-27zM605 75v27h27v-27h-27zM605 225v27h27v-27h-27zM605 450v27h27v-27h-27z" />
    <glyph glyph-name=".null" horiz-adv-x="0" 
 />
    <glyph glyph-name="nonmarkingreturn" horiz-adv-x="333" 
 />
    <glyph glyph-name="space" unicode=" " horiz-adv-x="259" 
 />
    <glyph glyph-name="exclam" unicode="!" horiz-adv-x="276" 
d="M197 722l-23 -511h-71l-23 511l58 30zM222 50q0 -11 -35.5 -48t-49.5 -37q-13 0 -48 36t-35 49t35.5 48t47.5 35q13 0 49 -35t36 -48z" />
    <glyph glyph-name="quotedbl" unicode="&#x22;" horiz-adv-x="385" 
d="M57 515v240h97l-25 -240h-72zM247 515v240h98l-26 -240h-72z" />
    <glyph glyph-name="numbersign" unicode="#" horiz-adv-x="571" 
d="M532 143h-108l-8 -166h-65l8 166h-164l-8 -166h-65l8 166h-91v65h95l7 148h-102v64h105l9 154h65l-8 -154h164l8 154h66l-9 -154h93v-64h-96l-8 -148h104v-65zM370 356h-163l-7 -148h162z" />
    <glyph glyph-name="dollar" unicode="$" horiz-adv-x="423" 
d="M403 148q0 -62 -44.5 -107.5t-124.5 -52.5v-155h-59v152q-64 2 -110.5 22t-46.5 49q0 49 36 74q34 -28 52 -41.5t41 -26.5t37 -13q59 0 98 18.5t39 56.5q0 32 -29.5 55t-71 39.5t-83.5 36.5t-71.5 58t-29.5 92q0 53 40 95t99 54v150h59v-147q148 -6 148 -72q0 -14 -3 -25
t-5.5 -15t-10 -11.5l-8.5 -8.5q-14 9 -41 27.5t-38 25t-28.5 13t-32.5 6.5q-46 0 -74 -21t-28 -59q0 -34 55 -63q17 -9 55.5 -25t64.5 -29.5t55.5 -34.5t44.5 -50.5t15 -66.5z" />
    <glyph glyph-name="percent" unicode="%" horiz-adv-x="608" 
d="M167 368q-53 0 -87 28.5t-34 88.5q0 59 36 92.5t87 33.5q55 0 90 -28.5t35 -91.5q0 -58 -37 -90.5t-90 -32.5zM167 420q27 0 43.5 19t16.5 52q0 68 -58 68q-25 0 -41 -18t-16 -56q0 -65 55 -65zM443 -19q-54 0 -88 28t-34 89q0 58 36 91.5t88 33.5q55 0 90 -28.5
t35 -91.5q0 -58 -37 -90t-90 -32zM443 32q27 0 43.5 19t16.5 52q0 68 -58 68q-25 0 -41 -18t-16 -55q0 -66 55 -66zM68 62l-38 52l501 405l38 -51z" />
    <glyph glyph-name="ampersand" unicode="&#x26;" horiz-adv-x="741" 
d="M781 21q-11 -14 -36.5 -26.5t-51.5 -12.5q-112 0 -249 94q-32 -35 -81 -60t-98 -25q-198 0 -198 172q0 60 34 102.5t95 86.5q-45 90 -45 152q0 90 57.5 152.5t137.5 62.5q141 0 141 -124q0 -35 -17.5 -68t-51.5 -64t-59 -50t-65 -45q64 -107 185 -201q31 51 29 82
q0 18 -13 32t-43 29q0 24 3 40h170v-24q-10 -26 -47 -82.5t-71 -96.5q68 -49 135 -76q30 -12 67.5 -18t62.5 -1zM396 585q0 33 -20 53.5t-52 20.5q-40 0 -64 -26t-24 -82q0 -73 37 -146q62 46 92.5 88.5t30.5 91.5zM413 99q-123 93 -195 214q-53 -49 -53 -118
q0 -66 33.5 -100.5t82.5 -34.5q62 0 132 39z" />
    <glyph glyph-name="quotesingle" unicode="'" horiz-adv-x="194" 
d="M57 515v240h98l-27 -240h-71z" />
    <glyph glyph-name="parenleft" unicode="(" horiz-adv-x="300" 
d="M245 -223q-14 12 -36 38t-53.5 77t-57.5 110t-44.5 142.5t-18.5 170.5q0 107 27 204.5t65.5 160.5t68.5 99.5t49 50.5l39 -39q-18 -15 -45 -51t-60.5 -95.5t-56.5 -147.5t-23 -181q0 -94 23 -185.5t57 -155.5t60.5 -103t44.5 -56z" />
    <glyph glyph-name="parenright" unicode=")" horiz-adv-x="300" 
d="M55 -223l-39 39q18 17 44.5 56t60.5 103t57 155.5t23 185.5q0 93 -23 181t-56.5 147.5t-60.5 95.5t-45 51l39 39q19 -14 49 -50.5t68.5 -99.5t65.5 -160.5t27 -204.5q0 -87 -18.5 -170.5t-44.5 -142.5t-57.5 -110t-53.5 -77t-36 -38z" />
    <glyph glyph-name="asterisk" unicode="*" horiz-adv-x="419" 
d="M380 527l-7 -34l-28 -27l-117 85l15 -143l-34 -10l-35 10l16 144l-118 -86l-24 24l-9 36l131 58l-131 59l7 36l27 24l118 -87l-16 146l34 10l35 -10l-14 -144l116 85l28 -23l6 -36l-136 -59z" />
    <glyph glyph-name="plus" unicode="+" horiz-adv-x="522" 
d="M501 270l-206 2l2 -232h-72l2 232l-206 -2v65l206 -2l-2 232h72l-2 -232l206 2v-65z" />
    <glyph glyph-name="comma" unicode="," horiz-adv-x="254" 
d="M211 29q0 -58 -43 -124t-95 -97l-35 31q1 1 17.5 18t22 24t16.5 22t15.5 28.5t5.5 27.5q-19 11 -46 41t-27 40q0 13 35.5 48t47.5 35q17 0 51.5 -37t34.5 -57z" />
    <glyph glyph-name="hyphen" unicode="-" horiz-adv-x="462" 
d="M372 254l-281 1v66l281 16v-83z" />
    <glyph glyph-name="period" unicode="." horiz-adv-x="251" 
d="M210 35q0 -11 -35.5 -48t-49.5 -37q-13 0 -48 36t-35 49t35.5 48t47.5 35q13 0 49 -35t36 -48z" />
    <glyph glyph-name="slash" unicode="/" horiz-adv-x="313" 
d="M310 769l-238 -831h-69l239 831h68z" />
    <glyph glyph-name="zero" unicode="0" horiz-adv-x="683" 
d="M627 273q0 -129 -86 -206.5t-210 -77.5q-123 0 -199 71t-76 200q0 132 86 214.5t209 82.5t199.5 -76t76.5 -208zM528 273q0 91 -54 153t-137 62q-184 0 -184 -215q0 -92 54 -152t142 -60q179 0 179 212z" />
    <glyph glyph-name="one" unicode="1" horiz-adv-x="472" 
d="M444 53q0 -38 -4 -53h-362q-6 29 -4 51l91 26q38 10 39 46l3 150v205h-152v57l243 29v-291l3 -152q1 -24 5 -30t24 -11z" />
    <glyph glyph-name="two" unicode="2" horiz-adv-x="528" 
d="M475 0h-401l-20 65q16 14 74.5 62t99.5 84t78 85.5t37 86.5q0 95 -106 95q-71 0 -145 -36l-30 64q79 52 186 52q84 0 140 -39.5t56 -120.5q0 -24 -5.5 -47.5t-19 -46t-24.5 -40t-35 -39.5t-37 -34.5t-43.5 -33.5t-41 -28.5t-43 -29t-37.5 -24.5l317 9v-84z" />
    <glyph glyph-name="three" unicode="3" horiz-adv-x="477" 
d="M427 63q0 -96 -73.5 -164t-170.5 -68q-101 0 -173 31l23 83q4 -2 18 -8t21.5 -9t21.5 -8.5t25 -8t25.5 -4.5t28.5 -2q76 0 114 28t38 93q0 68 -49.5 107t-134.5 45l-10 52q66 5 114.5 47t48.5 99q0 105 -114 105q-60 0 -116 -24l-23 53q72 50 155 50q91 0 142.5 -39.5
t51.5 -122.5q0 -59 -44.5 -108.5t-80.5 -60.5q19 -3 44 -14t53 -30t46.5 -51.5t18.5 -70.5z" />
    <glyph glyph-name="four" unicode="4" horiz-adv-x="584" 
d="M543 25h-113l5 -186h-100l4 186h-279l-28 73l233 448h66l-221 -439h229v439h91v-439h113v-82z" />
    <glyph glyph-name="five" unicode="5" horiz-adv-x="513" 
d="M456 81q0 -110 -76.5 -181.5t-182.5 -71.5q-94 0 -185 34l28 85q88 -42 166 -42q72 0 109 30.5t37 104.5q0 43 -18.5 74t-46 47.5t-69.5 27t-77 13t-81 3.5l30 341h354l-7 -93l-278 15l-16 -180q61 -4 113.5 -16.5t99 -35.5t73.5 -63t27 -92z" />
    <glyph glyph-name="six" unicode="6" horiz-adv-x="573" 
d="M533 244q0 -106 -65.5 -181.5t-170.5 -75.5q-73 0 -121.5 23t-73 68.5t-33.5 97t-9 124.5t19.5 145t57 134.5t100 101.5t139.5 39q61 0 101 -15l-20 -79q-41 12 -78 12q-58 0 -100 -21t-65.5 -53t-37 -80.5t-17.5 -91t-4 -97.5q0 -42 7 -81.5t23.5 -78.5t49.5 -62.5
t78 -23.5q64 0 92 47.5t28 117.5q0 148 -140 148q-33 0 -66 -6l-8 58q73 21 113 21q93 0 147 -49.5t54 -141.5z" />
    <glyph glyph-name="seven" unicode="7" horiz-adv-x="505" 
d="M483 489l-344 -685l-80 33l330 626l-346 -6v89h409z" />
    <glyph glyph-name="eight" unicode="8" horiz-adv-x="583" 
d="M527 194q0 -92 -70 -150t-177 -58q-102 0 -163.5 49.5t-61.5 137.5q0 62 38.5 109.5t101.5 75.5q-107 73 -107 169q0 68 56.5 129.5t145.5 61.5q99 0 154.5 -43.5t55.5 -118.5q0 -69 -33.5 -108t-102.5 -71q32 -16 56.5 -31.5t51 -38.5t41 -51.5t14.5 -61.5zM407 544
q0 19 -5 37t-17 36t-36 29t-58 11q-54 0 -83.5 -31t-29.5 -81q0 -26 14 -50.5t40 -43.5t46.5 -31t48.5 -25q80 61 80 149zM424 179q0 20 -10.5 38t-33 34t-42 27.5t-55 29.5t-54.5 29q-81 -77 -81 -159q0 -54 39 -93t102 -39q67 0 101 36.5t34 96.5z" />
    <glyph glyph-name="nine" unicode="9" horiz-adv-x="572" 
d="M516 235q0 -73 -19.5 -143.5t-57 -131.5t-100 -98.5t-139.5 -37.5q-61 0 -101 15l20 79q41 -12 78 -12q58 0 100 21t65.5 53t37 80.5t17.5 91t4 97.5q0 42 -7 81.5t-23.5 78.5t-49.5 62.5t-78 23.5q-64 0 -92 -47.5t-28 -117.5q0 -148 140 -148q33 0 66 6l8 -58
q-73 -21 -113 -21q-92 0 -146.5 53t-54.5 146q0 105 65 177t171 72q73 0 121.5 -24.5t73 -71.5t33.5 -100t9 -126z" />
    <glyph glyph-name="colon" unicode=":" horiz-adv-x="306" 
d="M237 485q0 -11 -35.5 -48t-49.5 -37q-13 0 -48 36t-35 49t35.5 48t47.5 35q13 0 49 -35t36 -48zM237 35q0 -11 -35.5 -48t-49.5 -37q-13 0 -48 36t-35 49t35.5 48t47.5 35q13 0 49 -35t36 -48z" />
    <glyph glyph-name="semicolon" unicode=";" horiz-adv-x="307" 
d="M233 484q0 -11 -35.5 -48t-49.5 -37q-13 0 -48 36t-35 49t35.5 48t47.5 35q13 0 49 -35t36 -48zM244 29q0 -58 -43 -124t-95 -97l-35 31q3 3 15 15.5t17.5 18.5t15 18.5t14.5 21.5t9.5 21.5t4.5 24.5q-19 12 -45.5 41.5t-26.5 39.5q0 13 35.5 48t47.5 35q17 0 51.5 -37
t34.5 -57z" />
    <glyph glyph-name="less" unicode="&#x3c;" horiz-adv-x="539" 
d="M112 300l383 -196l-29 -57l-451 231v44l451 231l29 -57z" />
    <glyph glyph-name="equal" unicode="=" horiz-adv-x="678" 
d="M579 360h-480v66h480v-66zM579 174h-480v66h480v-66z" />
    <glyph glyph-name="greater" unicode="&#x3e;" horiz-adv-x="539" 
d="M44 104l383 196l-383 196l29 57l451 -231v-44l-451 -231z" />
    <glyph glyph-name="question" unicode="?" horiz-adv-x="366" 
d="M359 584q0 -41 -20.5 -81.5t-50 -72.5t-59 -61.5t-50 -62t-20.5 -61.5q0 -8 2.5 -20t4.5 -20l2 -8l-74 -17q-24 58 -24 82q0 31 21 66t51.5 66t61 61.5t51.5 61.5t21 57q0 21 -27.5 42.5t-87.5 21.5q-19 0 -36.5 -2.5t-25.5 -4.5t-33 -10.5t-36 -11.5q-13 25 -13 43
q0 68 119 68q97 0 160 -39t63 -97zM229 35q0 -11 -35.5 -48t-49.5 -37q-13 0 -48 36t-35 49t35.5 48t47.5 35q13 0 49 -35t36 -48z" />
    <glyph glyph-name="at" unicode="@" horiz-adv-x="725" 
d="M345 -136q-145 0 -221 89.5t-76 243.5q0 118 31.5 207t87.5 142t126 79t153 26q120 0 189 -69t69 -214t-61.5 -214t-152.5 -69q-35 0 -56 17t-20 48q-22 -23 -55 -40.5t-57 -17.5q-95 0 -95 123q0 102 54.5 163t142.5 61q66 0 108 -22l-25 -224q-5 -45 16 -45
q15 0 30.5 3.5t36.5 17.5t37 36t27 64t11 97q0 231 -202 231q-68 0 -125 -20t-105 -63t-75.5 -121t-27.5 -185q0 -153 62 -219.5t183 -66.5q71 0 147 18l13 -50q-63 -26 -170 -26zM330 157q42 0 85 52l19 169q-15 5 -33 5q-35 0 -58.5 -13t-35 -37.5t-16 -51.5t-4.5 -63
q0 -34 13.5 -47.5t29.5 -13.5z" />
    <glyph glyph-name="A" unicode="A" horiz-adv-x="698" 
d="M687 44q0 -29 -4 -44h-274q-4 20 -4 44l71 21q30 8 30 50q0 9 -4 25l-48 146h-248l-62 -156q-3 -8 -3 -16q0 -39 50 -54l55 -16q0 -29 -4 -44h-239q-4 20 -4 44q48 35 67 80l248 583l85 11l212 -583q8 -22 30 -48.5t46 -42.5zM433 351l-66 207l-21 78h-7l-25 -76
l-82 -209h201z" />
    <glyph glyph-name="B" unicode="B" horiz-adv-x="676" 
d="M630 201q0 -93 -62.5 -147t-196.5 -54h-330q-4 32 -3 48l68 18q17 4 27.5 21t11.5 38l3 148v329q0 31 -24 40l-75 26q-2 20 5 39h286q239 0 239 -174q0 -115 -109 -155v-3q25 -4 49 -13t51 -27.5t43.5 -53t16.5 -80.5zM475 521q0 41 -12 67t-37 38t-49.5 15.5t-61.5 3.5
h-77v-249h89q83 0 115.5 30t32.5 95zM527 198q0 80 -50.5 107t-162.5 27h-76v-61l4 -205h110q85 0 130 27.5t45 104.5z" />
    <glyph glyph-name="C" unicode="C" horiz-adv-x="661" 
d="M616 19q-81 -27 -202 -27q-365 0 -365 356q0 162 96 266t265 104q30 0 55.5 -2t41.5 -4t34.5 -7.5t24.5 -7.5t22.5 -9t18.5 -8v-151h-46q-21 59 -55.5 90t-99.5 31q-118 0 -188.5 -72t-70.5 -220q0 -147 77.5 -218t207.5 -71q81 0 163 17z" />
    <glyph glyph-name="D" unicode="D" horiz-adv-x="786" 
d="M736 371q0 -180 -106 -275.5t-288 -95.5h-300q-6 28 -4 48l68 18q39 10 39 68l2 140l1 332q0 29 -24 36l-74 24q-3 23 4 41h282q73 0 129.5 -8t109 -30t86.5 -59t54.5 -97t20.5 -142zM626 353q0 149 -73.5 218t-219.5 69h-94v-367l6 -207h108q141 0 207 67t66 220z" />
    <glyph glyph-name="E" unicode="E" horiz-adv-x="642" 
d="M604 165l-19 -165h-543q-6 28 -4 49l68 18q39 11 39 58l3 149v328q0 32 -24 40l-75 26v17q2 15 5 22h508v-160q-9 -1 -52 -1q-9 47 -26 68t-53 22l-192 6v-254l271 5v-76l-271 5v-49l5 -207l187 3q50 1 82 31.5t46 71.5z" />
    <glyph glyph-name="F" unicode="F" horiz-adv-x="593" 
d="M559 540q-34 -6 -48 1q-5 21 -10.5 34t-15 26.5t-26 21t-39.5 8.5l-185 11v-274l282 9v-80l-282 5v-30l3 -160q2 -30 30 -36l106 -21q0 -41 -5 -55h-320q-5 27 -4 44l58 18q18 5 28.5 23t10.5 40l3 148v329q0 32 -24 40l-75 26q-2 20 5 39h508v-167z" />
    <glyph glyph-name="G" unicode="G" horiz-adv-x="714" 
d="M414 -8q-365 0 -365 356q0 162 96 266t265 104q156 0 237 -45v-151h-46q-45 128 -195 128q-118 0 -188.5 -72t-70.5 -220q0 -147 77.5 -218t207.5 -71q73 0 123 13v214h91l1 -273q-82 -31 -233 -31z" />
    <glyph glyph-name="H" unicode="H" horiz-adv-x="858" 
d="M823 53q0 -39 -5 -53h-286q-6 28 -4 48l42 12q31 9 42 29.5t12 63.5l2 120v49h-390v-49l4 -160q1 -32 22 -37l96 -26q0 -36 -5 -50h-306q-5 27 -4 44l58 21q41 16 43 80l2 128v308q0 55 -30 64l-73 21q0 26 4 41h272q5 -27 4 -45l-56 -13q-20 -5 -25.5 -13t-5.5 -28v-220
h390v183q0 62 -41 77l-49 18q-2 23 1 41h262q0 -36 -2 -45l-52 -12q-17 -5 -23 -12.5t-6 -26.5v-338l4 -161q0 -36 19 -40z" />
    <glyph glyph-name="I" unicode="I" horiz-adv-x="379" 
d="M344 50q0 -36 -5 -50h-283q-5 27 -4 44l53 21q37 14 38 69l2 139v300q0 61 -50 78l-40 15q-2 6 -1.5 19.5t2.5 21.5h262q5 -23 3 -45l-41 -9q-44 -10 -44 -77v-303l3 -170q0 -18 6 -25.5t22 -10.5z" />
    <glyph glyph-name="J" unicode="J" horiz-adv-x="353" 
d="M314 663l-48 -12q-23 -5 -30.5 -13.5t-7.5 -30.5v-520q0 -103 -50 -162.5t-153 -111.5l-34 59q80 49 112.5 109.5t32.5 164.5v431q0 57 -48 74l-44 15q0 27 5 41h262q4 -30 3 -44z" />
    <glyph glyph-name="K" unicode="K" horiz-adv-x="719" 
d="M41 0q-5 27 -4 44l66 23q36 13 38 67l2 139v310q0 20 -7.5 38t-22.5 24l-60 21q-2 6 -1.5 19.5t2.5 21.5h262q5 -25 4 -39l-50 -19q-36 -14 -36 -71v-297l2 -173q0 -30 21 -36l65 -21q0 -37 -5 -51h-276zM717 -22q-120 5 -176 65l-281 298v43l224 204q20 17 20 36t-17 24
l-48 15q0 33 4 44h234v-44l-327 -275l243 -253q76 -80 135 -100z" />
    <glyph glyph-name="L" unicode="L" horiz-adv-x="579" 
d="M570 165l-20 -165h-506q-6 28 -4 48l64 18q17 4 27 20.5t10 37.5l3 148v311q0 20 -7.5 38.5t-22.5 23.5l-63 21q0 26 4 41h262q5 -27 4 -44l-48 -12q-23 -5 -30.5 -11.5t-7.5 -27.5v-339l5 -204l164 4q86 3 121 99z" />
    <glyph glyph-name="M" unicode="M" horiz-adv-x="1025" 
d="M745 707h188q5 -25 4 -39l-49 -17q-19 -6 -29.5 -27t-6.5 -52l62 -454q2 -16 12.5 -30.5t23.5 -19.5l45 -22q0 -31 -4 -46h-257q-4 30 -4 44l44 13q39 12 39 72q0 19 -3 38l-40 334l-3 53h-5l-224 -554l-66 -12l-215 573h-6l-1 -51l-63 -401q-5 -28 11 -32l94 -30
q0 -36 -4 -47h-259q-5 27 -4 44l36 18q20 10 34.5 32t18.5 46l75 449q3 17 -6 34t-23 22l-63 21q0 26 4 41h197l161 -415l51 -150h9l54 155z" />
    <glyph glyph-name="N" unicode="N" horiz-adv-x="832" 
d="M802 668l-59 -17q-19 -5 -30 -24t-11 -45v-582l-73 -12l-417 602h-7l9 -80v-237l3 -160q0 -19 4 -25.5t20 -12.5l85 -29q0 -32 -5 -46h-281q-5 27 -4 44l58 18q46 14 48 84l2 127v321q0 40 -29 51l-61 21q0 34 2 41h202l377 -543h7l-10 105v312q0 50 -37 64l-63 21
q0 30 4 41h262q4 -30 4 -39z" />
    <glyph glyph-name="O" unicode="O" horiz-adv-x="804" 
d="M756 380q0 -168 -98.5 -280t-263.5 -112q-164 0 -255 89.5t-91 251.5q0 169 101.5 279t263.5 110q167 0 255 -89.5t88 -248.5zM646 364q0 132 -59 208t-183 76q-66 0 -114.5 -23.5t-76.5 -66t-41.5 -95.5t-13.5 -117q0 -130 57 -208t182 -78q68 0 117.5 23.5t77.5 66.5
t41 95.5t13 118.5z" />
    <glyph glyph-name="P" unicode="P" horiz-adv-x="632" 
d="M603 492q0 -100 -70.5 -161t-209.5 -61h-19v62l25 1q87 3 131 38t44 116q0 150 -155 153l-113 2v-369l2 -154q0 -38 23 -43l102 -27q0 -35 -5 -49h-309q-5 27 -4 44l58 18q38 11 39 62l3 149v329q0 32 -24 40l-75 26q-2 20 5 39h324q108 0 168 -53.5t60 -161.5z" />
    <glyph glyph-name="Q" unicode="Q" horiz-adv-x="804" 
d="M726 -184q-58 0 -119 46l-168 129q-23 -3 -45 -3q-164 0 -255 89.5t-91 251.5q0 169 101.5 279t263.5 110q167 0 255 -89.5t88 -248.5q0 -131 -61 -230.5t-169 -139.5l117 -77q53 -35 111 -35q23 0 105 17l12 -49q-90 -50 -145 -50zM397 60q68 0 117.5 23.5t77.5 66.5
t41 95.5t13 118.5q0 132 -59 208t-183 76q-66 0 -114.5 -23.5t-76.5 -66t-41.5 -95.5t-13.5 -117q0 -130 57 -208t182 -78z" />
    <glyph glyph-name="R" unicode="R" horiz-adv-x="739" 
d="M752 42l-11 -54q-7 0 -29 2q-137 17 -205 90q-53 56 -146 223q-15 -3 -52 -3h-75l4 -202q0 -24 17 -27l81 -19q0 -41 -4 -52h-276q-4 30 -3 44l48 18q39 15 40 63l3 148v340q0 20 -23 29l-75 26q-2 20 5 39h302q242 0 242 -195q0 -64 -34.5 -116.5t-95.5 -71.5
q78 -127 128 -178q48 -48 82 -70t77 -34zM492 507q0 133 -164 133l-94 2v-276h93q165 0 165 141z" />
    <glyph glyph-name="S" unicode="S" horiz-adv-x="577" 
d="M528 191q0 -52 -23 -92t-62 -63.5t-85.5 -35t-98.5 -11.5q-117 0 -215 43l8 167h53q9 -71 56.5 -109t127.5 -38q64 0 103 31.5t39 94.5q0 26 -12 46t-36 35t-48.5 26t-60.5 25q-12 4 -19 7q-40 15 -68 30t-57 38.5t-44 57t-15 74.5q0 89 69.5 144.5t163.5 55.5
q134 0 201 -34v-157h-42q-11 55 -56 90.5t-101 35.5q-68 0 -107 -26.5t-39 -76.5q0 -46 37 -75t110 -58q35 -14 53.5 -22t49.5 -24t47.5 -31.5t35.5 -37.5t27 -49.5t8 -60.5z" />
    <glyph glyph-name="T" unicode="T" horiz-adv-x="664" 
d="M644 707v-165q-15 -5 -45 -3q-19 100 -94 100h-128v-366l5 -170q0 -19 3.5 -26t17.5 -10l95 -18q0 -34 -4 -49h-322q-6 28 -4 49l74 19q16 4 28 25.5t13 43.5l3 136v366h-137q-64 0 -83 -100q-23 -4 -46 3v165h624z" />
    <glyph glyph-name="U" unicode="U" horiz-adv-x="784" 
d="M754 664l-50 -16q-9 -3 -13.5 -6t-9 -11.5t-4.5 -22.5v-341q0 -75 -25.5 -131.5t-67.5 -87.5t-89 -46t-97 -15q-44 0 -82 6.5t-75.5 24t-63.5 45t-42.5 73t-16.5 104.5v353q0 17 -8 32.5t-21 19.5l-63 21q0 26 4 41h269q4 -20 2 -46l-57 -12q-26 -5 -26 -32v-370
q0 -99 54.5 -145t130.5 -46q184 0 184 215v314q0 26 -12 42.5t-44 25.5l-43 13q0 37 1 41h262q3 -15 3 -43z" />
    <glyph glyph-name="V" unicode="V" horiz-adv-x="686" 
d="M302 -12l-208 591q-17 52 -34 61l-56 30q0 22 4 37h261q5 -27 4 -47l-51 -11q-31 -5 -31 -28q0 -7 3 -18l153 -484l173 441q3 7 3 35q-4 41 -25 51l-47 22q0 24 4 39h242q4 -18 2 -39l-40 -18q-30 -14 -54 -76l-236 -575z" />
    <glyph glyph-name="W" unicode="W" horiz-adv-x="1063" 
d="M835 707h236q4 -29 3 -39l-39 -18q-34 -15 -52 -69l-198 -581l-70 -12l-170 448l-207 -436l-65 -12l-191 608q-10 35 -28 44l-56 30q0 22 4 37h256q5 -23 4 -40l-51 -18q-28 -9 -24 -52q2 -14 4 -19l132 -463l190 404l-29 93q-6 19 -22 28l-56 30q0 26 3 37h259
q6 -18 4 -40l-51 -18q-25 -9 -25 -43q0 -15 4 -27l156 -466l145 463q4 12 4 28q0 29 -17 37l-58 27q0 25 5 39z" />
    <glyph glyph-name="X" unicode="X" horiz-adv-x="697" 
d="M687 44q0 -33 -4 -44h-255q-4 30 -3 44l42 23q28 15 2 52l-128 184l-137 -177q-9 -12 -9 -28q0 -21 14 -27l58 -27q0 -33 -4 -44h-254q-4 30 -3 44l38 18q35 16 86 78l172 220l-165 219q-28 37 -102 83q-3 5 -3.5 21t1.5 24h245q4 -31 3 -45l-41 -18q-10 -4 -11 -17
t10 -31l115 -168l125 162q11 13 10.5 29.5t-11.5 21.5l-44 22q0 37 2 44h235q2 -11 -1 -44q-31 -8 -66 -30t-53 -47l-159 -213l184 -238q26 -34 47.5 -51.5t63.5 -39.5z" />
    <glyph glyph-name="Y" unicode="Y" horiz-adv-x="646" 
d="M412 707h237q3 -19 3 -39q-55 -22 -78 -60l-205 -324l3 -162q0 -18 8 -33.5t21 -19.5l84 -23q0 -31 -4 -46h-309q-6 28 -4 50l70 18q37 9 37 57l3 159l-195 310q-10 15 -21.5 27.5t-19 19t-20 16t-17.5 13.5q0 30 2 37h241q4 -20 4 -40l-51 -19q-15 -6 -15 -27
q0 -19 13 -42l135 -229l144 235q8 11 6 24q-2 22 -19 32l-56 27q0 31 3 39z" />
    <glyph glyph-name="Z" unicode="Z" horiz-adv-x="618" 
d="M582 170l-19 -170h-513l-17 57l398 586l-240 -4q-66 -10 -83 -99q-11 -2 -24 0q-21 3 -22 3v164h488l12 -44l-404 -591l253 4q50 1 82 31t44 70z" />
    <glyph glyph-name="bracketleft" unicode="[" horiz-adv-x="285" 
d="M243 -220h-158v1044h158v-59h-90v-926h90v-59z" />
    <glyph glyph-name="backslash" unicode="\" horiz-adv-x="313" 
d="M241 -62l-238 831h68l239 -831h-69z" />
    <glyph glyph-name="bracketright" unicode="]" horiz-adv-x="285" 
d="M200 -220h-158v59h90v926h-90v59h158v-1044z" />
    <glyph glyph-name="asciicircum" unicode="^" horiz-adv-x="542" 
d="M472 294h-73l-121 346l-145 -346h-70l175 413h79z" />
    <glyph glyph-name="underscore" unicode="_" horiz-adv-x="500" 
d="M500 -163h-500v66h500v-66z" />
    <glyph glyph-name="grave" unicode="`" horiz-adv-x="581" 
d="M170 767l61 61q78 -91 179 -167l-29 -43q-116 68 -211 149z" />
    <glyph glyph-name="a" unicode="a" horiz-adv-x="560" 
d="M561 35q-12 -11 -60 -26t-75 -15q-25 0 -40.5 7t-22 21.5t-8.5 26t-2 30.5q-15 -16 -35.5 -32.5t-65 -35.5t-88.5 -19q-57 0 -94.5 33t-37.5 94q0 74 55 116t135 55l130 17v78q0 59 -31 80.5t-107 21.5q-62 0 -131 -21l-16 58q81 33 174 33q31 0 51 -1.5t50.5 -9t49 -22
t32.5 -43t14 -69.5v-139l7 -198h109zM352 126v127q-73 -8 -124 -20q-103 -24 -103 -98q0 -26 17.5 -43t57.5 -17q27 0 65 12.5t63 25.5z" />
    <glyph glyph-name="b" unicode="b" horiz-adv-x="592" 
d="M544 285q0 -128 -77 -210t-193 -82q-124 0 -193 21l5 259v421h-102v48q88 22 149 22q21 0 30 -8t9 -28v-455l5 -200q52 -10 100 -10q86 0 127.5 58t41.5 156q0 97 -31.5 150.5t-114.5 53.5q-52 0 -85 -7l-12 41q18 14 55.5 25t66.5 11q110 0 164.5 -61t54.5 -205z" />
    <glyph glyph-name="c" unicode="c" horiz-adv-x="505" 
d="M467 485q0 -20 -13 -42t-34 -34q-36 41 -65 59.5t-75 18.5q-143 0 -143 -211q0 -102 39.5 -156.5t140.5 -54.5q74 0 131 19l17 -52q-64 -41 -173 -41q-135 0 -190.5 65.5t-55.5 191.5q0 152 72 230.5t210 78.5q18 0 35.5 -2t44 -8t43 -22t16.5 -40z" />
    <glyph glyph-name="d" unicode="d" horiz-adv-x="621" 
d="M613 36q-25 -15 -68 -29t-80 -14q-52 0 -52 82q-68 -82 -157 -82q-41 0 -76 12.5t-66.5 40t-49.5 80t-18 125.5q0 135 74 217t183 82q61 0 111 -11v155h-102v47q92 23 149 23q21 0 30.5 -8t9.5 -28v-455l4 -198h101zM414 273v200q-73 14 -114 14q-48 0 -80.5 -18t-49 -52
t-23 -74t-6.5 -95q0 -94 37.5 -132t111.5 -38q58 0 120 41z" />
    <glyph glyph-name="e" unicode="e" horiz-adv-x="541" 
d="M498 267h-362q3 -64 18 -105t43 -61t57 -26.5t72 -6.5q74 0 144 17l16 -54q-65 -40 -187 -40q-58 0 -100.5 11t-79 38t-55 78.5t-18.5 126.5q0 145 67.5 228.5t182.5 83.5q202 0 202 -262v-28zM396 324q0 87 -25.5 130.5t-83.5 43.5q-61 0 -102.5 -45.5t-47.5 -128.5h259
z" />
    <glyph glyph-name="f" unicode="f" horiz-adv-x="378" 
d="M480 710q0 -42 -34 -65q-65 57 -107 57q-43 0 -69 -9.5t-37.5 -31t-14.5 -41.5t-3 -55v-23h119v-62h-119v-207l7 -178q0 -15 11 -17l122 -26q0 -36 -5 -52h-312q-4 20 -4 44l43 18q47 19 47 66l3 145v207h-80v50l80 13v26q0 80 61 140.5t141 60.5q20 0 41 -2t48.5 -7.5
t44.5 -18.5t17 -32z" />
    <glyph glyph-name="g" unicode="g" horiz-adv-x="601" 
d="M586 465h-113q17 -30 17 -93q0 -71 -58.5 -124.5t-147.5 -53.5q-70 0 -123 25v-103h179q123 0 170 -33.5t47 -102.5q0 -84 -89 -143.5t-217 -59.5q-218 0 -218 135q0 69 94 124q-13 0 -33.5 15t-20.5 45q0 60 62 135q-66 48 -66 137q0 70 53.5 129.5t155.5 59.5t144 -37
l164 32v-87zM395 367q0 58 -30 96.5t-80 38.5q-66 0 -96.5 -35.5t-30.5 -88.5q0 -58 30.5 -92.5t93.5 -34.5q51 0 82 31t31 85zM460 -35q0 41 -36 52.5t-118 11.5h-137q-43 -38 -43 -82q0 -104 167 -104q71 0 119 33.5t48 88.5z" />
    <glyph glyph-name="h" unicode="h" horiz-adv-x="677" 
d="M662 53q0 -39 -5 -53h-248q-4 32 -3 49l43 19q28 11 29 59l3 146v84q0 73 -20.5 98.5t-92.5 25.5q-43 0 -96 -15.5t-75 -29.5v-163l4 -174q0 -18 3 -24t16 -8l94 -16q0 -37 -5 -51h-278q-4 30 -3 44l46 20q14 6 23.5 25t10.5 42l2 142v421h-101v47q92 23 149 23
q21 0 30 -8t9 -28v-243q99 72 206 72q44 0 75 -9.5t48.5 -24t27 -40t12 -49.5t2.5 -61v-100l3 -185q0 -11 4 -15t15 -6z" />
    <glyph glyph-name="i" unicode="i" horiz-adv-x="340" 
d="M41 0q-3 22 -3 44l63 22q11 4 21 22t11 32l3 152v208h-102v51q99 22 149 22q21 0 30.5 -8t9.5 -28v-245l3 -183q0 -19 17 -22l87 -16q0 -37 -5 -51h-284zM178 640q-12 0 -43 32t-31 43q0 12 31 43t43 31q11 0 43 -31.5t32 -42.5q0 -10 -31.5 -42.5t-43.5 -32.5z" />
    <glyph glyph-name="j" unicode="j" horiz-adv-x="289" 
d="M22 -224q-39 0 -60 8l9 65q34 -8 63 -8q50 0 66 29.5t16 97.5v512h-100v51q99 22 149 22q21 0 29.5 -8t8.5 -28v-245l5 -275q2 -99 -52.5 -160t-133.5 -61zM159 641q-11 0 -42.5 32t-31.5 43q0 12 31.5 43t42.5 31t43 -31.5t32 -42.5q0 -10 -31.5 -42.5t-43.5 -32.5z" />
    <glyph glyph-name="k" unicode="k" horiz-adv-x="594" 
d="M28 0q-4 30 -3 44l53 21q16 6 25.5 26t9.5 39l4 143v421h-101v48q88 22 149 22q39 0 39 -39v-452l3 -149q2 -50 30 -62l38 -17q0 -31 -5 -45h-242zM594 35l-3 -47q-66 -1 -117.5 17.5t-91.5 72.5l-163 206l160 156q14 14 14 27q0 22 -16 27l-43 16q-1 25 2 36h198v-36
l-213 -201l137 -176q28 -38 68.5 -64t67.5 -34z" />
    <glyph glyph-name="l" unicode="l" horiz-adv-x="322" 
d="M312 50q0 -36 -5 -50h-280q-4 30 -3 44l53 19q33 12 35 56l5 154v421h-101v48q88 22 149 22q39 0 39 -39v-452l5 -187q0 -12 2 -14.5t10 -4.5z" />
    <glyph glyph-name="m" unicode="m" horiz-adv-x="1023" 
d="M1012 52q0 -41 -4 -52h-246q-6 22 -4 50l36 20q27 14 28 54l3 148v85q0 74 -18.5 99t-90.5 25q-76 0 -154 -39q3 -32 3 -69v-100l3 -183q0 -20 16 -23l90 -15q0 -41 -4 -52h-251q-4 28 -4 47l36 18q22 11 24 44l3 163v85q0 32 -1.5 49t-7 34t-17 24.5t-31 12t-49.5 4.5
q-42 0 -85.5 -15t-68.5 -30v-163l4 -176q0 -27 15 -29l79 -15q0 -42 -4 -53h-260q-4 12 -4 44l42 18q16 7 27.5 23.5t11.5 38.5l2 149v207h-102v50q95 21 149 21q21 0 29.5 -8t8.5 -28v-30q33 24 48 34t56.5 24t86.5 14q118 0 145 -70q97 70 199 70q54 0 88 -12.5t49 -40.5
t19.5 -56t4.5 -75v-100l4 -183q0 -14 3.5 -17.5t16.5 -5.5z" />
    <glyph glyph-name="n" unicode="n" horiz-adv-x="691" 
d="M680 51q0 -40 -4 -51h-240q-4 32 -3 48l28 19q30 20 30 55l3 151v84q0 73 -20.5 98.5t-92.5 25.5q-43 0 -91.5 -15.5t-71.5 -29.5v-163l3 -182q0 -10 0.5 -13.5t3.5 -6.5t9 -4l88 -16q0 -40 -4 -51h-267q-4 30 -3 44l46 22q15 7 24.5 25t9.5 33l3 149v207h-101v50
q82 21 149 21q21 0 29 -8t8 -28v-30q99 72 200 72q44 0 75 -9.5t48.5 -24t27 -40t12 -49.5t2.5 -61v-100l4 -192q0 -9 2 -11t11 -4z" />
    <glyph glyph-name="o" unicode="o" horiz-adv-x="581" 
d="M537 273q0 -112 -74 -196.5t-179 -84.5q-240 0 -240 275q0 113 74 201.5t175 88.5q244 0 244 -284zM439 279q0 43 -6 76.5t-21.5 66t-48 50.5t-81.5 18q-142 0 -142 -224q0 -96 34.5 -148t125.5 -52q43 0 72 17t43 49.5t19 66.5t5 80z" />
    <glyph glyph-name="p" unicode="p" horiz-adv-x="619" 
d="M573 289q0 -82 -22.5 -142t-61.5 -92.5t-85 -47.5t-100 -15t-95 6l6 -130q0 -7 0.5 -10t5 -6.5t13.5 -5.5l80 -15q3 -33 -4 -51h-267q-5 28 -3 47l36 15q37 16 37 63l3 370v205h-101v49q110 22 149 22q21 0 30 -8t9 -28v-22q72 61 141 61q229 0 229 -265zM476 269
q0 54 -13 100.5t-48 81.5t-87 35q-65 0 -124 -46v-167l3 -208q50 -8 100 -8q86 0 127.5 57t41.5 155z" />
    <glyph glyph-name="q" unicode="q" horiz-adv-x="582" 
d="M598 -168q1 -31 -4 -52h-278q-2 6 -3 17.5t-1 20.5v9l52 19q42 17 42 90l2 106l-12 -6q-12 -7 -14 -8t-13 -7t-15.5 -7.5t-14.5 -5.5t-16.5 -5.5t-16 -3.5t-18 -3t-17.5 -1q-34 0 -60.5 4t-59 20t-54 43.5t-36.5 78t-15 119.5q0 134 74.5 215t183.5 81q105 0 195 -25
v-257l4 -389q0 -23 3 -29.5t14 -8.5zM410 273v204q-2 0 -23.5 6t-40.5 8.5t-43 2.5q-166 0 -166 -226q0 -105 35.5 -148t110.5 -43q70 0 125 20z" />
    <glyph glyph-name="r" unicode="r" horiz-adv-x="445" 
d="M440 548l-16 -92q-29 11 -64 11q-105 0 -142 -43v-150l4 -181q0 -24 15 -26l104 -16q0 -40 -4 -51h-286q-5 27 -4 44l47 24q33 18 35 75l2 131v207h-101v51q95 21 149 21q21 0 29.5 -8t8.5 -28v-44q20 34 64 58.5t93 24.5q42 0 66 -8z" />
    <glyph glyph-name="s" unicode="s" horiz-adv-x="471" 
d="M427 150q0 -45 -17.5 -77.5t-48.5 -49.5t-65.5 -25t-75.5 -8q-98 0 -175 36l8 156l47 -1q1 -55 35.5 -94t92.5 -39q116 0 116 77q0 32 -27.5 53t-99.5 50q-71 28 -113 67.5t-42 108.5q0 76 53.5 114.5t138.5 38.5q90 0 160 -35l-17 -133l-37 4q-7 44 -42 73.5t-83 29.5
q-44 0 -70.5 -20t-26.5 -49q0 -13 3 -23.5t11.5 -20t14 -15t21.5 -14t22 -11.5t27.5 -12t26.5 -11q37 -16 59.5 -28t50 -32.5t40.5 -47.5t13 -62z" />
    <glyph glyph-name="t" unicode="t" horiz-adv-x="421" 
d="M387 74l16 -66q-47 -19 -118 -19q-101 0 -141 34t-39 126l3 331h-80v36l156 142h14v-112h183v-66h-183v-208l3 -122q1 -53 24 -72.5t76 -19.5q44 0 86 16z" />
    <glyph glyph-name="u" unicode="u" horiz-adv-x="665" 
d="M653 75l7 -40q-75 -41 -135 -41q-68 0 -73 76q-28 -26 -47 -40t-56 -28t-79 -14q-52 0 -85 11.5t-49 36t-21 50.5t-5 66v328h-90v49q88 22 141 22q21 0 29.5 -8t8.5 -28v-241l3 -94q1 -28 3.5 -46t11 -36.5t26.5 -27.5t46 -9q64 0 159 75l4 136v208h-101v48q89 23 149 23
q21 0 30 -8t9 -28v-242l3 -198h111z" />
    <glyph glyph-name="v" unicode="v" horiz-adv-x="537" 
d="M234 -12l-169 450q-13 37 -57 62q0 32 3 46h217q0 -39 -5 -52h-71l129 -390l120 316q6 15 6 29q0 31 -24 41l-28 11q-2 29 4 45h176q0 -31 -3 -41q-2 -1 -8 -6.5t-9.5 -8.5t-10 -10t-11 -14t-10.5 -18t-11 -24l-169 -424z" />
    <glyph glyph-name="w" unicode="w" horiz-adv-x="886" 
d="M596 -12l-153 420l-156 -408l-64 -11l-149 438q-19 58 -62 71q0 34 6 48h224q0 -25 -6 -52h-82l114 -371l150 412l68 20l157 -434l111 333q4 13 -3 25t-19 18l-33 14v10q0 18 3 25h186q0 -27 -2 -34q-24 -11 -40.5 -28t-29.5 -54l-155 -431z" />
    <glyph glyph-name="x" unicode="x" horiz-adv-x="590" 
d="M573 44q2 -31 -3 -44h-226q-2 19 -2 40l9 5q20 11 20 36q0 14 -9 27l-78 111l-109 -131q-8 -9 -8 -19q0 -11 12 -13l54 -7q0 -35 -3 -49h-212q-4 19 -2 41q44 15 71 46l161 183l-146 202q-12 16 -66 35q0 3 -0.5 8t-0.5 8q0 7 2 23h220q0 -32 -7 -53h-59l110 -162l96 112
q13 17 13 29q0 11 -10 16l-36 22q0 18 5 36h190q0 -33 -5 -40q-50 -15 -83 -56l-134 -166l137 -181q13 -17 27 -27t26 -15t46 -17z" />
    <glyph glyph-name="y" unicode="y" horiz-adv-x="554" 
d="M551 546q0 -35 -4 -47q-28 -10 -40 -25q-13 -15 -25 -47l-200 -507q-44 -108 -119 -156l-55 71q54 34 91 88q26 38 39 80l-171 440q-18 42 -65 58q0 35 4 45h221q0 -36 -4 -52h-77l146 -387l120 314q9 21 1.5 43t-29.5 30l-21 8q-1 6 -1 13q0 17 2 31h187z" />
    <glyph glyph-name="z" unicode="z" horiz-adv-x="536" 
d="M503 165l-27 -165h-428l-12 35l330 436h-191q-49 0 -102 -68l-31 12l34 131h386l15 -40l-322 -432h189q60 0 121 102z" />
    <glyph glyph-name="braceleft" unicode="{" horiz-adv-x="319" 
d="M302 -220l-24 -1q-90 -4 -145 35.5t-45 132.5l21 228q10 101 -79 101v54q89 0 79 102l-21 235q-8 85 41.5 121.5t137.5 34.5l35 -1l-1 -55h-26q-69 0 -99 -23.5t-23 -80.5l21 -221q12 -109 -67 -138q33 -12 51.5 -49t13.5 -87l-21 -222q-6 -58 22.5 -84t101.5 -26h26z
" />
    <glyph glyph-name="bar" unicode="|" horiz-adv-x="238" 
d="M153 -220h-68v974h68v-974z" />
    <glyph glyph-name="braceright" unicode="}" horiz-adv-x="319" 
d="M289 276q-89 0 -79 -101l21 -228q5 -49 -8.5 -84t-41.5 -53t-63 -25.5t-77 -5.5l-24 1l1 56h26q72 0 101 26t23 84l-21 222q-5 51 13 88t52 48q-79 30 -67 138l21 221q6 57 -23.5 80.5t-98.5 23.5h-26l-2 55h35q89 2 138.5 -34t41.5 -121l-21 -235q-5 -47 14.5 -74.5
t64.5 -27.5v-54z" />
    <glyph glyph-name="asciitilde" unicode="~" horiz-adv-x="537" 
d="M498 350q-52 -62 -124 -62q-54 0 -118.5 26.5t-99.5 26.5q-50 0 -90 -26l-31 46q20 22 54.5 39t72.5 17q52 0 111.5 -27t100.5 -27q51 0 88 29z" />
    <glyph glyph-name="uni00A0" unicode="&#xa0;" horiz-adv-x="259" 
 />
    <glyph glyph-name="exclamdown" unicode="&#xa1;" horiz-adv-x="267" 
d="M217 496q0 -14 -35.5 -49t-47.5 -35q-13 0 -49 35.5t-36 48.5q0 11 35.5 47.5t49.5 36.5q13 0 48 -36t35 -48zM192 -176l-59 -30l-58 30l23 511h71z" />
    <glyph glyph-name="cent" unicode="&#xa2;" horiz-adv-x="489" 
d="M458 495q0 -54 -47 -83q-65 78 -127 78q-81 0 -118.5 -50t-37.5 -164q0 -103 39.5 -157t145.5 -54q71 0 126 19l17 -52q-56 -36 -147 -41v-158h-59v159q-120 8 -166.5 74t-46.5 213q0 101 58 180.5t155 96.5v148h59v-144q149 -3 149 -65z" />
    <glyph glyph-name="sterling" unicode="&#xa3;" horiz-adv-x="585" 
d="M551 79q-26 -39 -53.5 -59t-75.5 -20h-385q-4 18 -4 49l60 17q20 6 28 20t11 45l18 162h-76v51h81l7 66q9 81 71.5 141t141.5 60q140 0 140 -69q0 -35 -34 -56q-2 1 -10.5 7.5t-11.5 8.5t-11 7.5t-11.5 7.5t-10.5 6.5t-11.5 6.5t-10.5 5t-10.5 4.5t-10 2.5t-9.5 1
q-37 0 -60.5 -9.5t-35 -31t-16 -41t-8.5 -55.5l-6 -62h186v-51h-191l-22 -214l205 6q25 1 41 10t36 28z" />
    <glyph glyph-name="currency" unicode="&#xa4;" horiz-adv-x="504" 
d="M75 70l-33 34l72 70q-33 42 -33 104q0 66 32 104l-71 71l33 32l70 -70q53 34 105 34q63 0 105 -32l69 70l34 -35l-70 -70q32 -35 32 -104t-34 -106l70 -70l-31 -34l-70 70q-51 -30 -105 -30q-60 0 -103 32zM250 155q60 0 91.5 34t31.5 89q1 54 -31.5 89t-91.5 35
t-91.5 -35t-32.5 -89q0 -53 33 -88t91 -35z" />
    <glyph glyph-name="yen" unicode="&#xa5;" horiz-adv-x="628" 
d="M596 522l-14 -36q-35 -6 -47 -22q-57 -76 -85 -116h112v-53h-149q-24 -33 -62 -93v-12h211v-53h-211v-33l10 -104h-115l10 106v31h-197v53h197v14q-22 45 -49 91h-148v53h116q-33 53 -69 104q-23 30 -61 41l-3 35q78 24 115 24q20 -25 76 -135.5t79 -165.5
q112 201 176 293q63 -3 108 -22z" />
    <glyph glyph-name="brokenbar" unicode="&#xa6;" horiz-adv-x="227" 
d="M147 392h-67v361h67v-361zM147 -220h-67v362h67v-362z" />
    <glyph glyph-name="section" unicode="&#xa7;" horiz-adv-x="475" 
d="M444 552q0 -38 -30 -65q-69 56 -93 56q-51 0 -51 -76l118 -313q0 -112 -73 -174t-170 -62q-41 0 -74.5 16t-33.5 52q0 34 33 51q67 -55 78 -55q52 0 52 90q0 13 -56 152t-56 164q0 104 71 160t182 56q37 0 70 -12t33 -40zM324 120q0 37 -59 172t-59 162q0 50 16 74l-2 3
q-38 -23 -50.5 -46.5t-12.5 -67.5q0 -30 56 -170.5t56 -168.5q0 -57 -18 -83l1 -2q42 24 57 52t15 75z" />
    <glyph glyph-name="dieresis" unicode="&#xa8;" horiz-adv-x="540" 
d="M161 655q-10 0 -36 26.5t-26 35.5q0 10 26.5 36t35.5 26q10 0 36.5 -26t26.5 -36q0 -8 -26 -35t-37 -27zM379 655q-10 0 -36 26.5t-26 35.5q0 10 26.5 36t35.5 26q10 0 36.5 -26t26.5 -36q0 -8 -26 -35t-37 -27z" />
    <glyph glyph-name="copyright" unicode="&#xa9;" horiz-adv-x="677" 
d="M639 269q0 -135 -84 -212t-214 -77q-54 0 -104.5 15t-96.5 47t-74 90.5t-28 136.5q0 136 85.5 215t215.5 79q57 0 108.5 -16.5t95.5 -50t70 -92t26 -135.5zM587 269q0 122 -72 185.5t-174 63.5q-109 0 -179 -60.5t-70 -183.5q0 -61 19 -108t46.5 -73t64.5 -42.5
t66.5 -21.5t58.5 -5q106 0 173 64.5t67 180.5zM456 116q-46 -15 -104 -15q-180 0 -180 175q0 80 47.5 131t130.5 51q49 0 100 -20v-81q-15 -3 -34 -1q-10 29 -25 43t-43 14q-53 0 -84.5 -32t-31.5 -100q0 -67 34.5 -98.5t93.5 -31.5q45 0 82 9z" />
    <glyph glyph-name="ordfeminine" unicode="&#xaa;" horiz-adv-x="437" 
d="M388 403q-10 -8 -37.5 -17.5t-43.5 -9.5q-29 0 -38 13t-10 38q-48 -52 -111 -52q-36 0 -58.5 19.5t-22.5 56.5q0 46 33.5 71t84.5 33q61 9 73 9v46q0 32 -17 43.5t-61 11.5q-36 0 -81 -12l-11 42q50 20 108 20q23 0 39.5 -2t38.5 -10t33.5 -27.5t11.5 -49.5v-82l4 -116
h61zM367 281h-302v57h302v-57zM258 456v73q-21 0 -66 -10q-60 -14 -60 -55q0 -34 42 -34q9 0 20.5 2.5t22 6.5t19.5 7.5t16 6.5z" />
    <glyph glyph-name="guillemotleft" unicode="&#xab;" horiz-adv-x="477" 
d="M431 465q-42 -128 -88 -193q57 -109 81 -198q-38 -7 -62 -13q-25 73 -114 211q91 122 125 206q33 -7 58 -13zM226 479q-42 -136 -93 -207q58 -111 86 -209q-38 -7 -62 -13q-28 80 -119 222q89 120 130 220q33 -7 58 -13z" />
    <glyph glyph-name="logicalnot" unicode="&#xac;" horiz-adv-x="588" 
d="M531 121h-76v149h-404v65h480v-214z" />
    <glyph glyph-name="registered" unicode="&#xae;" horiz-adv-x="527" 
d="M490 532q0 -102 -63.5 -160t-161.5 -58q-41 0 -79.5 11.5t-73 35.5t-55.5 68t-21 103q0 103 64.5 162.5t163.5 59.5q93 0 159.5 -55t66.5 -167zM444 532q0 89 -52.5 135.5t-126.5 46.5q-79 0 -130 -44.5t-51 -133.5q0 -45 14 -79t34 -53t46.5 -31t48.5 -15.5t43 -3.5
q77 0 125.5 47t48.5 131zM382 444l-4 -23q-52 0 -76 27q-25 25 -53 70q-6 -1 -24 -1l2 -91h-50l2 93v145h86q79 0 79 -72q0 -49 -46 -68q27 -36 43 -51q18 -19 41 -29zM295 590q0 23 -11 32.5t-38 9.5h-21v-83h16q54 0 54 41z" />
    <glyph glyph-name="macron" unicode="&#xaf;" horiz-adv-x="540" 
d="M441 687h-298v69h298v-69z" />
    <glyph glyph-name="degree" unicode="&#xb0;" horiz-adv-x="368" 
d="M331 597q0 -60 -44 -101t-104 -41q-143 0 -143 122q0 60 43.5 100.5t102.5 40.5q63 0 104 -31t41 -90zM259 587q0 39 -19.5 61t-54.5 22t-54.5 -22t-19.5 -61q0 -85 74 -85t74 85z" />
    <glyph glyph-name="plusminus" unicode="&#xb1;" horiz-adv-x="548" 
d="M514 0h-480v65h480v-65zM308 393l196 2v-64l-196 2l2 -192h-72l2 192l-196 -2v64l196 -2l-2 193h72z" />
    <glyph glyph-name="twosuperior" unicode="&#xb2;" horiz-adv-x="307" 
d="M278 415h-260v52q5 5 61 53t84.5 83t28.5 64q0 32 -12.5 44t-38.5 12q-47 0 -83 -24l-29 51q51 36 114 36q122 0 122 -112q0 -28 -11.5 -56t-35.5 -55t-42 -44.5t-48 -42.5h150v-61z" />
    <glyph glyph-name="threesuperior" unicode="&#xb3;" horiz-adv-x="300" 
d="M268 522q0 -59 -38.5 -85t-98.5 -26q-69 0 -113 19l16 58q45 -15 92 -15q34 0 51 10t17 36q0 35 -21 46.5t-78 15.5v51q83 5 83 59q0 35 -48 35q-16 0 -33.5 -3t-26.5 -7l-10 -3l-26 51q43 25 101 25q49 0 81.5 -23.5t32.5 -67.5q0 -51 -45 -84q64 -31 64 -92z" />
    <glyph glyph-name="acute" unicode="&#xb4;" horiz-adv-x="581" 
d="M349 828l61 -61q-95 -81 -211 -149l-29 43q101 76 179 167z" />
    <glyph glyph-name="mu" unicode="&#xb5;" horiz-adv-x="630" 
d="M82 -220l4 495v271h89v-272l2 -94q1 -57 18.5 -88t69.5 -31q61 0 142 70l3 139v276h86v-273l4 -133q1 -42 11.5 -58.5t36.5 -16.5q32 0 68 9l8 -44q-60 -36 -129 -36q-73 0 -86 69q-81 -75 -153 -75q-48 0 -82 20q1 -4 3 -51l5 -177h-100z" />
    <glyph glyph-name="paragraph" unicode="&#xb6;" horiz-adv-x="612" 
d="M240 270h-10q-106 0 -164 55t-58 167q0 215 222 215h10v-437zM535 7q0 -56 -30.5 -103t-76 -74t-93 -41.5t-88.5 -14.5q-118 0 -118 68q0 15 9.5 30.5t19.5 23.5l10 8q58 -51 80 -51q80 0 80 159v695h75v-710q0 -86 -38 -129l1 -4q45 10 69.5 47.5t24.5 87.5v708h75v-700
z" />
    <glyph glyph-name="periodcentered" unicode="&#xb7;" horiz-adv-x="249" 
d="M125 295q-12 0 -43.5 32t-31.5 43q0 12 32 43t43 31t42.5 -31.5t31.5 -42.5q0 -10 -31 -42.5t-43 -32.5z" />
    <glyph glyph-name="cedilla" unicode="&#xb8;" horiz-adv-x="453" 
d="M358 -168q0 -45 -42.5 -82.5t-94.5 -37.5t-96 30l35 62q43 -28 91 -28q45 0 45 30q0 16 -10 27.5t-32 19.5t-41.5 12.5t-53.5 10.5l54 128h63l-41 -74q65 -14 94 -35.5t29 -62.5z" />
    <glyph glyph-name="onesuperior" unicode="&#xb9;" horiz-adv-x="235" 
d="M176 415h-73v306h-73v58l146 3v-367z" />
    <glyph glyph-name="ordmasculine" unicode="&#xba;" horiz-adv-x="434" 
d="M370 545q0 -67 -45.5 -118t-111.5 -51q-149 0 -149 164q0 68 46 120.5t108 52.5q152 0 152 -168zM368 281h-302v57h302v-57zM301 546q0 122 -89 122q-80 0 -80 -127q0 -56 19.5 -86.5t71.5 -30.5q46 0 62 33t16 89z" />
    <glyph glyph-name="guillemotright" unicode="&#xbb;" horiz-adv-x="476" 
d="M439 272q-91 -142 -119 -222l-61 13q25 96 85 209q-51 71 -93 207l58 13q41 -100 130 -220zM229 272q-89 -138 -114 -211l-62 13q27 95 81 198q-46 65 -88 193l58 13q34 -84 125 -206z" />
    <glyph glyph-name="onequarter" unicode="&#xbc;" horiz-adv-x="752" 
d="M182 415h-73v306h-73v58l146 3v-367zM615 627l-532 -533l-40 40l533 532zM719 91h-65v-90h-72v90h-152v68l120 209h104v-216h65v-61zM582 152v156l-87 -156h87z" />
    <glyph glyph-name="onehalf" unicode="&#xbd;" horiz-adv-x="755" 
d="M177 415h-73v306h-73v58l146 3v-367zM610 627l-532 -533l-40 40l533 532zM718 0h-260v52q5 5 61 53t84.5 83t28.5 64q0 32 -12.5 44t-38.5 12q-47 0 -83 -24l-29 51q51 36 114 36q122 0 122 -112q0 -28 -11.5 -56t-35.5 -55t-42 -44.5t-48 -42.5h150v-61z" />
    <glyph glyph-name="threequarters" unicode="&#xbe;" horiz-adv-x="772" 
d="M290 522q0 -59 -38.5 -85t-98.5 -26q-69 0 -113 19l16 58q45 -15 92 -15q34 0 51 10t17 36q0 35 -21 46.5t-78 15.5v51q83 5 83 59q0 35 -48 35q-16 0 -33.5 -3t-26.5 -7l-10 -3l-26 51q43 25 101 25q49 0 81.5 -23.5t32.5 -67.5q0 -51 -45 -84q64 -31 64 -92zM641 627
l-532 -533l-40 40l533 532zM745 91h-65v-90h-72v90h-152v68l120 209h104v-216h65v-61zM608 152v156l-87 -156h87z" />
    <glyph glyph-name="questiondown" unicode="&#xbf;" horiz-adv-x="376" 
d="M314 507q0 -13 -36 -48t-48 -35t-48 35t-36 48q0 11 35 48t49 37q13 0 48.5 -36t35.5 -49zM358 -109q0 -69 -120 -69q-97 0 -160 39.5t-63 96.5q0 41 20.5 81.5t50 72.5t59 61.5t50 62t20.5 61.5q0 8 -2.5 20t-4.5 20l-2 8l75 17q23 -58 23 -82q0 -31 -21 -66t-51.5 -66
t-61 -61.5t-51.5 -61.5t-21 -57q0 -12 9 -25.5t36.5 -26t69.5 -12.5q16 0 28 1t25.5 4t21.5 5.5t26.5 9t29.5 9.5q14 -25 14 -42z" />
    <glyph glyph-name="Agrave" unicode="&#xc0;" horiz-adv-x="698" 
d="M412 740q-158 33 -246 79l38 75q112 -69 223 -108zM687 44q0 -29 -4 -44h-274q-4 20 -4 44l71 21q30 8 30 50q0 9 -4 25l-48 146h-248l-62 -156q-3 -8 -3 -16q0 -39 50 -54l55 -16q0 -29 -4 -44h-239q-4 20 -4 44q48 35 67 80l248 583l85 11l212 -583q8 -22 30 -48.5
t46 -42.5zM433 351l-66 207l-21 78h-7l-25 -76l-82 -209h201z" />
    <glyph glyph-name="Aacute" unicode="&#xc1;" horiz-adv-x="698" 
d="M290 740l-15 46q114 40 223 108l38 -75q-88 -46 -246 -79zM687 44q0 -29 -4 -44h-274q-4 20 -4 44l71 21q30 8 30 50q0 9 -4 25l-48 146h-248l-62 -156q-3 -8 -3 -16q0 -39 50 -54l55 -16q0 -29 -4 -44h-239q-4 20 -4 44q48 35 67 80l248 583l85 11l212 -583
q8 -22 30 -48.5t46 -42.5zM433 351l-66 207l-21 78h-7l-25 -76l-82 -209h201z" />
    <glyph glyph-name="Acircumflex" unicode="&#xc2;" horiz-adv-x="698" 
d="M221 740l-30 38q96 65 172 151q59 -71 160 -142l-38 -47q-75 37 -133 84q-73 -53 -131 -84zM687 44q0 -29 -4 -44h-274q-4 20 -4 44l71 21q30 8 30 50q0 9 -4 25l-48 146h-248l-62 -156q-3 -8 -3 -16q0 -39 50 -54l55 -16q0 -29 -4 -44h-239q-4 20 -4 44q48 35 67 80
l248 583l85 11l212 -583q8 -22 30 -48.5t46 -42.5zM433 351l-66 207l-21 78h-7l-25 -76l-82 -209h201z" />
    <glyph glyph-name="Atilde" unicode="&#xc3;" horiz-adv-x="698" 
d="M424 757q-21 0 -86.5 21.5t-80.5 21.5q-45 0 -78 -26l-27 33l9 10q9 10 12.5 12.5t13 11.5t16.5 12.5l18 9t22.5 7.5t24.5 2q27 0 96 -22t80 -22q19 0 36 5t25 11l8 5l27 -33l-7.5 -7.5t-9 -8.5t-9.5 -8t-11.5 -9l-12 -8t-14.5 -7.5t-15.5 -5.5t-17.5 -4t-19 -1zM687 44
q0 -29 -4 -44h-274q-4 20 -4 44l71 21q30 8 30 50q0 9 -4 25l-48 146h-248l-62 -156q-3 -8 -3 -16q0 -39 50 -54l55 -16q0 -29 -4 -44h-239q-4 20 -4 44q48 35 67 80l248 583l85 11l212 -583q8 -22 30 -48.5t46 -42.5zM433 351l-66 207l-21 78h-7l-25 -76l-82 -209h201z" />
    <glyph glyph-name="Adieresis" unicode="&#xc4;" horiz-adv-x="698" 
d="M245 741q-10 0 -36 26.5t-26 35.5q0 10 26.5 36t35.5 26q10 0 36.5 -26t26.5 -36q0 -8 -26 -35t-37 -27zM473 741q-10 0 -36 26.5t-26 35.5q0 10 26.5 36t35.5 26q10 0 36.5 -26t26.5 -36q0 -8 -26 -35t-37 -27zM687 44q0 -29 -4 -44h-274q-4 20 -4 44l71 21q30 8 30 50
q0 9 -4 25l-48 146h-248l-62 -156q-3 -8 -3 -16q0 -39 50 -54l55 -16q0 -29 -4 -44h-239q-4 20 -4 44q48 35 67 80l248 583l85 11l212 -583q8 -22 30 -48.5t46 -42.5zM433 351l-66 207l-21 78h-7l-25 -76l-82 -209h201z" />
    <glyph glyph-name="Aring" unicode="&#xc5;" horiz-adv-x="698" 
d="M687 44q0 -29 -4 -44h-274q-4 20 -4 44l71 21q30 8 30 50q0 9 -4 25l-48 146h-248l-62 -156q-3 -8 -3 -16q0 -39 50 -54l55 -16q0 -29 -4 -44h-239q-4 20 -4 44q48 35 67 80l248 583l85 11l212 -583q8 -22 30 -48.5t46 -42.5zM433 351l-66 207l-21 78h-7l-25 -76
l-82 -209h201zM474 847q0 -46 -37 -73t-79 -27q-15 0 -31 3t-39 12t-37.5 31t-14.5 55q0 51 35 78t83 27q47 0 83.5 -24.5t36.5 -81.5zM412 849q0 26 -17 42.5t-41 16.5q-56 0 -56 -57q0 -26 16.5 -43t41.5 -17q27 0 41.5 15.5t14.5 42.5z" />
    <glyph glyph-name="AE" unicode="&#xc6;" horiz-adv-x="969" 
d="M930 165l-19 -165h-533q-4 32 -3 49l58 18q37 11 39 58l2 149v49h-192l-118 -205q-7 -12 -7 -23q1 -14 19 -19l97 -24q0 -38 -5 -52h-278q-5 27 -4 44l36 24q36 23 56 56l346 583h464v-160q-3 -1 -51 -1q-9 47 -26.5 68t-53.5 22l-192 6v-254l291 5v-76l-291 5v-49
l5 -207l188 3q50 1 82 31.5t46 71.5zM476 658l-156 -270h154v214q0 26 2 56z" />
    <glyph glyph-name="Ccedilla" unicode="&#xc7;" horiz-adv-x="661" 
d="M515 -168q0 -45 -42.5 -82.5t-94.5 -37.5t-96 30l35 62q43 -28 91 -28q45 0 45 30q0 16 -10 27.5t-32 19.5t-41.5 12.5t-53.5 10.5l49 118q-316 22 -316 354q0 162 96 266t265 104q30 0 55.5 -2t41.5 -4t34.5 -7.5t24.5 -7.5t22.5 -9t18.5 -8v-151h-46q-21 59 -55.5 90
t-99.5 31q-118 0 -188.5 -72t-70.5 -220q0 -147 77.5 -218t207.5 -71q81 0 163 17l21 -67q-75 -25 -190 -27l-34 -62q65 -14 94 -35.5t29 -62.5z" />
    <glyph glyph-name="Egrave" unicode="&#xc8;" horiz-adv-x="642" 
d="M403 740q-158 33 -246 79l38 75q112 -69 223 -108zM604 165l-19 -165h-543q-6 28 -4 49l68 18q39 11 39 58l3 149v328q0 32 -24 40l-75 26v17q2 15 5 22h508v-160q-9 -1 -52 -1q-9 47 -26 68t-53 22l-192 6v-254l271 5v-76l-271 5v-49l5 -207l187 3q50 1 82 31.5t46 71.5
z" />
    <glyph glyph-name="Eacute" unicode="&#xc9;" horiz-adv-x="642" 
d="M604 165l-19 -165h-543q-6 28 -4 49l68 18q39 11 39 58l3 149v328q0 32 -24 40l-75 26v17q2 15 5 22h508v-160q-9 -1 -52 -1q-9 47 -26 68t-53 22l-192 6v-254l271 5v-76l-271 5v-49l5 -207l187 3q50 1 82 31.5t46 71.5zM249 740l-15 46q114 40 223 108l38 -75
q-88 -46 -246 -79z" />
    <glyph glyph-name="Ecircumflex" unicode="&#xca;" horiz-adv-x="642" 
d="M202 740l-30 38q96 65 172 151q59 -71 160 -142l-38 -47q-75 37 -133 84q-73 -53 -131 -84zM604 165l-19 -165h-543q-6 28 -4 49l68 18q39 11 39 58l3 149v328q0 32 -24 40l-75 26v17q2 15 5 22h508v-160q-9 -1 -52 -1q-9 47 -26 68t-53 22l-192 6v-254l271 5v-76l-271 5
v-49l5 -207l187 3q50 1 82 31.5t46 71.5z" />
    <glyph glyph-name="Edieresis" unicode="&#xcb;" horiz-adv-x="642" 
d="M216 741q-10 0 -36 26.5t-26 35.5q0 10 26.5 36t35.5 26q10 0 36.5 -26t26.5 -36q0 -8 -26 -35t-37 -27zM444 741q-10 0 -36 26.5t-26 35.5q0 10 26.5 36t35.5 26q10 0 36.5 -26t26.5 -36q0 -8 -26 -35t-37 -27zM604 165l-19 -165h-543q-6 28 -4 49l68 18q39 11 39 58
l3 149v328q0 32 -24 40l-75 26v17q2 15 5 22h508v-160q-9 -1 -52 -1q-9 47 -26 68t-53 22l-192 6v-254l271 5v-76l-271 5v-49l5 -207l187 3q50 1 82 31.5t46 71.5z" />
    <glyph glyph-name="Igrave" unicode="&#xcc;" horiz-adv-x="379" 
d="M257 740q-158 33 -246 79l38 75q112 -69 223 -108zM344 50q0 -36 -5 -50h-283q-5 27 -4 44l53 21q37 14 38 69l2 139v300q0 61 -50 78l-40 15q-2 6 -1.5 19.5t2.5 21.5h262q5 -23 3 -45l-41 -9q-44 -10 -44 -77v-303l3 -170q0 -18 6 -25.5t22 -10.5z" />
    <glyph glyph-name="Iacute" unicode="&#xcd;" horiz-adv-x="379" 
d="M109 740l-15 46q114 40 223 108l38 -75q-88 -46 -246 -79zM344 50q0 -36 -5 -50h-283q-5 27 -4 44l53 21q37 14 38 69l2 139v300q0 61 -50 78l-40 15q-2 6 -1.5 19.5t2.5 21.5h262q5 -23 3 -45l-41 -9q-44 -10 -44 -77v-303l3 -170q0 -18 6 -25.5t22 -10.5z" />
    <glyph glyph-name="Icircumflex" unicode="&#xce;" horiz-adv-x="379" 
d="M57 740l-30 38q96 65 172 151q59 -71 160 -142l-38 -47q-75 37 -133 84q-73 -53 -131 -84zM344 50q0 -36 -5 -50h-283q-5 27 -4 44l53 21q37 14 38 69l2 139v300q0 61 -50 78l-40 15q-2 6 -1.5 19.5t2.5 21.5h262q5 -23 3 -45l-41 -9q-44 -10 -44 -77v-303l3 -170
q0 -18 6 -25.5t22 -10.5z" />
    <glyph glyph-name="Idieresis" unicode="&#xcf;" horiz-adv-x="379" 
d="M98 741q-9 0 -35.5 26.5t-26.5 35.5q0 10 26.5 36t35.5 26t36 -26.5t27 -35.5q0 -8 -27 -35t-36 -27zM276 741q-9 0 -35.5 26.5t-26.5 35.5q0 10 26.5 36t35.5 26t36 -26.5t27 -35.5q0 -8 -27 -35t-36 -27zM344 50q0 -36 -5 -50h-283q-5 27 -4 44l53 21q37 14 38 69
l2 139v300q0 61 -50 78l-40 15q-2 6 -1.5 19.5t2.5 21.5h262q5 -23 3 -45l-41 -9q-44 -10 -44 -77v-303l3 -170q0 -18 6 -25.5t22 -10.5z" />
    <glyph glyph-name="Eth" unicode="&#xd0;" horiz-adv-x="784" 
d="M734 371q0 -180 -106 -275.5t-288 -95.5h-300q-6 28 -4 48l68 18q39 10 39 68l2 140v48h-107v66h107l1 218q0 29 -24 36l-74 24q-3 23 4 41h282q73 0 129.5 -8t109 -30t86.5 -59t54.5 -97t20.5 -142zM624 353q0 149 -73.5 218t-219.5 69h-94v-252h191v-66h-191v-49
l6 -207h108q141 0 207 67t66 220z" />
    <glyph glyph-name="Ntilde" unicode="&#xd1;" horiz-adv-x="832" 
d="M496 757q-21 0 -86.5 21.5t-80.5 21.5q-45 0 -78 -26l-27 33l9 10q9 10 12.5 12.5t13 11.5t16.5 12.5l18 9t22.5 7.5t24.5 2q27 0 96 -22t80 -22q19 0 36 5t25 11l8 5l27 -33l-7.5 -7.5t-9 -8.5t-9.5 -8t-11.5 -9l-12 -8t-14.5 -7.5t-15.5 -5.5t-17.5 -4t-19 -1zM802 668
l-59 -17q-19 -5 -30 -24t-11 -45v-582l-73 -12l-417 602h-7l9 -80v-237l3 -160q0 -19 4 -25.5t20 -12.5l85 -29q0 -32 -5 -46h-281q-5 27 -4 44l58 18q46 14 48 84l2 127v321q0 40 -29 51l-61 21q0 34 2 41h202l377 -543h7l-10 105v312q0 50 -37 64l-63 21q0 30 4 41h262
q4 -30 4 -39z" />
    <glyph glyph-name="Ograve" unicode="&#xd2;" horiz-adv-x="804" 
d="M482 740q-158 33 -246 79l38 75q112 -69 223 -108zM756 380q0 -168 -98.5 -280t-263.5 -112q-164 0 -255 89.5t-91 251.5q0 169 101.5 279t263.5 110q167 0 255 -89.5t88 -248.5zM646 364q0 132 -59 208t-183 76q-66 0 -114.5 -23.5t-76.5 -66t-41.5 -95.5t-13.5 -117
q0 -130 57 -208t182 -78q68 0 117.5 23.5t77.5 66.5t41 95.5t13 118.5z" />
    <glyph glyph-name="Oacute" unicode="&#xd3;" horiz-adv-x="804" 
d="M324 740l-15 46q114 40 223 108l38 -75q-88 -46 -246 -79zM756 380q0 -168 -98.5 -280t-263.5 -112q-164 0 -255 89.5t-91 251.5q0 169 101.5 279t263.5 110q167 0 255 -89.5t88 -248.5zM646 364q0 132 -59 208t-183 76q-66 0 -114.5 -23.5t-76.5 -66t-41.5 -95.5
t-13.5 -117q0 -130 57 -208t182 -78q68 0 117.5 23.5t77.5 66.5t41 95.5t13 118.5z" />
    <glyph glyph-name="Ocircumflex" unicode="&#xd4;" horiz-adv-x="804" 
d="M281 740l-30 38q96 65 172 151q59 -71 160 -142l-38 -47q-75 37 -133 84q-73 -53 -131 -84zM756 380q0 -168 -98.5 -280t-263.5 -112q-164 0 -255 89.5t-91 251.5q0 169 101.5 279t263.5 110q167 0 255 -89.5t88 -248.5zM646 364q0 132 -59 208t-183 76
q-66 0 -114.5 -23.5t-76.5 -66t-41.5 -95.5t-13.5 -117q0 -130 57 -208t182 -78q68 0 117.5 23.5t77.5 66.5t41 95.5t13 118.5z" />
    <glyph glyph-name="Otilde" unicode="&#xd5;" horiz-adv-x="804" 
d="M484 757q-21 0 -86.5 21.5t-80.5 21.5q-45 0 -78 -26l-27 33l9 10q9 10 12.5 12.5t13 11.5t16.5 12.5l18 9t22.5 7.5t24.5 2q27 0 96 -22t80 -22q19 0 36 5t25 11l8 5l27 -33l-7.5 -7.5t-9 -8.5t-9.5 -8t-11.5 -9l-12 -8t-14.5 -7.5t-15.5 -5.5t-17.5 -4t-19 -1zM756 380
q0 -168 -98.5 -280t-263.5 -112q-164 0 -255 89.5t-91 251.5q0 169 101.5 279t263.5 110q167 0 255 -89.5t88 -248.5zM646 364q0 132 -59 208t-183 76q-66 0 -114.5 -23.5t-76.5 -66t-41.5 -95.5t-13.5 -117q0 -130 57 -208t182 -78q68 0 117.5 23.5t77.5 66.5t41 95.5
t13 118.5z" />
    <glyph glyph-name="Odieresis" unicode="&#xd6;" horiz-adv-x="804" 
d="M305 741q-10 0 -36 26.5t-26 35.5q0 10 26.5 36t35.5 26q10 0 36.5 -26t26.5 -36q0 -8 -26 -35t-37 -27zM533 741q-10 0 -36 26.5t-26 35.5q0 10 26.5 36t35.5 26q10 0 36.5 -26t26.5 -36q0 -8 -26 -35t-37 -27zM756 380q0 -168 -98.5 -280t-263.5 -112q-164 0 -255 89.5
t-91 251.5q0 169 101.5 279t263.5 110q167 0 255 -89.5t88 -248.5zM646 364q0 132 -59 208t-183 76q-66 0 -114.5 -23.5t-76.5 -66t-41.5 -95.5t-13.5 -117q0 -130 57 -208t182 -78q68 0 117.5 23.5t77.5 66.5t41 95.5t13 118.5z" />
    <glyph glyph-name="multiply" unicode="&#xd7;" horiz-adv-x="560" 
d="M82 40l-47 44l201 219l-200 218l47 44l197 -215l197 215l47 -44l-201 -218l202 -219l-47 -44l-198 215z" />
    <glyph glyph-name="Oslash" unicode="&#xd8;" horiz-adv-x="804" 
d="M768 709q-47 -55 -86 -96q74 -88 74 -233q0 -168 -98.5 -280t-263.5 -112q-153 0 -243 78l-90 -88l-36 34l92 90q-69 87 -69 227q0 169 101.5 279t263.5 110q147 0 234 -70q48 51 85 94zM646 364q0 103 -35 172q-163 -176 -392 -403q60 -73 178 -73q68 0 117.5 23.5
t77.5 66.5t41 95.5t13 118.5zM582 578q-62 70 -178 70q-66 0 -114.5 -23.5t-76.5 -66t-41.5 -95.5t-13.5 -117q0 -103 34 -171q224 224 390 403z" />
    <glyph glyph-name="Ugrave" unicode="&#xd9;" horiz-adv-x="784" 
d="M470 740q-158 33 -246 79l38 75q112 -69 223 -108zM754 664l-50 -16q-9 -3 -13.5 -6t-9 -11.5t-4.5 -22.5v-341q0 -75 -25.5 -131.5t-67.5 -87.5t-89 -46t-97 -15q-44 0 -82 6.5t-75.5 24t-63.5 45t-42.5 73t-16.5 104.5v353q0 17 -8 32.5t-21 19.5l-63 21q0 26 4 41h269
q4 -20 2 -46l-57 -12q-26 -5 -26 -32v-370q0 -99 54.5 -145t130.5 -46q184 0 184 215v314q0 26 -12 42.5t-44 25.5l-43 13q0 37 1 41h262q3 -15 3 -43z" />
    <glyph glyph-name="Uacute" unicode="&#xda;" horiz-adv-x="784" 
d="M332 740l-15 46q114 40 223 108l38 -75q-88 -46 -246 -79zM754 664l-50 -16q-9 -3 -13.5 -6t-9 -11.5t-4.5 -22.5v-341q0 -75 -25.5 -131.5t-67.5 -87.5t-89 -46t-97 -15q-44 0 -82 6.5t-75.5 24t-63.5 45t-42.5 73t-16.5 104.5v353q0 17 -8 32.5t-21 19.5l-63 21
q0 26 4 41h269q4 -20 2 -46l-57 -12q-26 -5 -26 -32v-370q0 -99 54.5 -145t130.5 -46q184 0 184 215v314q0 26 -12 42.5t-44 25.5l-43 13q0 37 1 41h262q3 -15 3 -43z" />
    <glyph glyph-name="Ucircumflex" unicode="&#xdb;" horiz-adv-x="784" 
d="M279 740l-30 38q96 65 172 151q59 -71 160 -142l-38 -47q-75 37 -133 84q-73 -53 -131 -84zM754 664l-50 -16q-9 -3 -13.5 -6t-9 -11.5t-4.5 -22.5v-341q0 -75 -25.5 -131.5t-67.5 -87.5t-89 -46t-97 -15q-44 0 -82 6.5t-75.5 24t-63.5 45t-42.5 73t-16.5 104.5v353
q0 17 -8 32.5t-21 19.5l-63 21q0 26 4 41h269q4 -20 2 -46l-57 -12q-26 -5 -26 -32v-370q0 -99 54.5 -145t130.5 -46q184 0 184 215v314q0 26 -12 42.5t-44 25.5l-43 13q0 37 1 41h262q3 -15 3 -43z" />
    <glyph glyph-name="Udieresis" unicode="&#xdc;" horiz-adv-x="784" 
d="M283 741q-10 0 -36 26.5t-26 35.5q0 10 26.5 36t35.5 26q10 0 36.5 -26t26.5 -36q0 -8 -26 -35t-37 -27zM511 741q-10 0 -36 26.5t-26 35.5q0 10 26.5 36t35.5 26q10 0 36.5 -26t26.5 -36q0 -8 -26 -35t-37 -27zM754 664l-50 -16q-9 -3 -13.5 -6t-9 -11.5t-4.5 -22.5
v-341q0 -75 -25.5 -131.5t-67.5 -87.5t-89 -46t-97 -15q-44 0 -82 6.5t-75.5 24t-63.5 45t-42.5 73t-16.5 104.5v353q0 17 -8 32.5t-21 19.5l-63 21q0 26 4 41h269q4 -20 2 -46l-57 -12q-26 -5 -26 -32v-370q0 -99 54.5 -145t130.5 -46q184 0 184 215v314q0 26 -12 42.5
t-44 25.5l-43 13q0 37 1 41h262q3 -15 3 -43z" />
    <glyph glyph-name="Yacute" unicode="&#xdd;" horiz-adv-x="646" 
d="M261 740l-15 46q114 40 223 108l38 -75q-88 -46 -246 -79zM412 707h237q3 -19 3 -39q-55 -22 -78 -60l-205 -324l3 -162q0 -18 8 -33.5t21 -19.5l84 -23q0 -31 -4 -46h-309q-6 28 -4 50l70 18q37 9 37 57l3 159l-195 310q-10 15 -21.5 27.5t-19 19t-20 16t-17.5 13.5
q0 30 2 37h241q4 -20 4 -40l-51 -19q-15 -6 -15 -27q0 -19 13 -42l135 -229l144 235q8 11 6 24q-2 22 -19 32l-56 27q0 31 3 39z" />
    <glyph glyph-name="Thorn" unicode="&#xde;" horiz-adv-x="617" 
d="M592 383q0 -95 -70 -148.5t-200 -53.5h-20v62l25 1q82 4 124 30.5t42 103.5t-36.5 101t-126.5 24h-96v-230l4 -162q0 -30 21 -35l102 -27q0 -38 -4 -49h-300q-4 30 -3 44l48 18q17 6 27.5 23.5t11.5 38.5l3 149v329q0 31 -24 40l-75 26q0 1 -0.5 4.5t-0.5 5.5q0 14 5 29
h265q3 -26 2 -45l-41 -9q-30 -7 -41 -48v-37h121q115 0 176 -40.5t61 -144.5z" />
    <glyph glyph-name="germandbls" unicode="&#xdf;" horiz-adv-x="695" 
d="M672 150q0 -45 -18 -77.5t-49 -49.5t-65.5 -25t-75.5 -8q-78 0 -155 36l6 136q31 5 51 0q6 -52 29 -83t77 -31q51 0 83.5 21.5t32.5 67.5q0 28 -27 48t-65.5 34.5t-77 32t-65.5 51t-27 81.5q0 28 14.5 54t36 45.5t42.5 38t35.5 40t14.5 43.5q0 41 -19.5 64t-44.5 29
t-63 6q-54 0 -90.5 -29t-36.5 -91v-311l7 -273h-185q-4 30 -3 44l57 24q14 6 23.5 23.5t9.5 36.5l3 145v207h-80v49l80 17v19q0 82 63.5 143.5t157.5 61.5q37 0 69 -5.5t69 -20.5t59 -49.5t22 -84.5q0 -35 -24 -67.5t-52.5 -53t-52.5 -44.5t-24 -44q0 -26 26.5 -45
t64.5 -33.5t76 -32.5t64.5 -54t26.5 -86z" />
    <glyph glyph-name="agrave" unicode="&#xe0;" horiz-adv-x="560" 
d="M128 767l61 61q78 -91 179 -167l-29 -43q-116 68 -211 149zM561 35q-12 -11 -60 -26t-75 -15q-25 0 -40.5 7t-22 21.5t-8.5 26t-2 30.5q-15 -16 -35.5 -32.5t-65 -35.5t-88.5 -19q-57 0 -94.5 33t-37.5 94q0 74 55 116t135 55l130 17v78q0 59 -31 80.5t-107 21.5
q-62 0 -131 -21l-16 58q81 33 174 33q31 0 51 -1.5t50.5 -9t49 -22t32.5 -43t14 -69.5v-139l7 -198h109zM352 126v127q-73 -8 -124 -20q-103 -24 -103 -98q0 -26 17.5 -43t57.5 -17q27 0 65 12.5t63 25.5z" />
    <glyph glyph-name="aacute" unicode="&#xe1;" horiz-adv-x="560" 
d="M347 828l61 -61q-95 -81 -211 -149l-29 43q101 76 179 167zM561 35q-12 -11 -60 -26t-75 -15q-25 0 -40.5 7t-22 21.5t-8.5 26t-2 30.5q-15 -16 -35.5 -32.5t-65 -35.5t-88.5 -19q-57 0 -94.5 33t-37.5 94q0 74 55 116t135 55l130 17v78q0 59 -31 80.5t-107 21.5
q-62 0 -131 -21l-16 58q81 33 174 33q31 0 51 -1.5t50.5 -9t49 -22t32.5 -43t14 -69.5v-139l7 -198h109zM352 126v127q-73 -8 -124 -20q-103 -24 -103 -98q0 -26 17.5 -43t57.5 -17q27 0 65 12.5t63 25.5z" />
    <glyph glyph-name="acircumflex" unicode="&#xe2;" horiz-adv-x="560" 
d="M119 622l-33 37q88 74 175 172q88 -106 163 -166l-41 -43q-50 30 -133 104q-69 -60 -131 -104zM561 35q-12 -11 -60 -26t-75 -15q-25 0 -40.5 7t-22 21.5t-8.5 26t-2 30.5q-15 -16 -35.5 -32.5t-65 -35.5t-88.5 -19q-57 0 -94.5 33t-37.5 94q0 74 55 116t135 55l130 17
v78q0 59 -31 80.5t-107 21.5q-62 0 -131 -21l-16 58q81 33 174 33q31 0 51 -1.5t50.5 -9t49 -22t32.5 -43t14 -69.5v-139l7 -198h109zM352 126v127q-73 -8 -124 -20q-103 -24 -103 -98q0 -26 17.5 -43t57.5 -17q27 0 65 12.5t63 25.5z" />
    <glyph glyph-name="atilde" unicode="&#xe3;" horiz-adv-x="560" 
d="M456 719l-7.5 -7.5t-9 -8.5t-9.5 -8t-11.5 -9l-12 -8t-14.5 -7.5t-15.5 -5.5t-17.5 -4t-19 -1q-21 0 -76.5 21.5t-70.5 21.5q-50 0 -78 -26l-27 33l9 10q9 10 12.5 12.5t13 11.5t16.5 12.5l18 9t22.5 7.5t24.5 2q27 0 86 -22t70 -22q19 0 36 5.5t25 10.5l8 5zM561 35
q-12 -11 -60 -26t-75 -15q-25 0 -40.5 7t-22 21.5t-8.5 26t-2 30.5q-15 -16 -35.5 -32.5t-65 -35.5t-88.5 -19q-57 0 -94.5 33t-37.5 94q0 74 55 116t135 55l130 17v78q0 59 -31 80.5t-107 21.5q-62 0 -131 -21l-16 58q81 33 174 33q31 0 51 -1.5t50.5 -9t49 -22t32.5 -43
t14 -69.5v-139l7 -198h109zM352 126v127q-73 -8 -124 -20q-103 -24 -103 -98q0 -26 17.5 -43t57.5 -17q27 0 65 12.5t63 25.5z" />
    <glyph glyph-name="adieresis" unicode="&#xe4;" horiz-adv-x="560" 
d="M143 655q-10 0 -36 26.5t-26 35.5q0 10 26.5 36t35.5 26q10 0 36.5 -26t26.5 -36q0 -8 -26 -35t-37 -27zM361 655q-10 0 -36 26.5t-26 35.5q0 10 26.5 36t35.5 26q10 0 36.5 -26t26.5 -36q0 -8 -26 -35t-37 -27zM561 35q-12 -11 -60 -26t-75 -15q-25 0 -40.5 7t-22 21.5
t-8.5 26t-2 30.5q-15 -16 -35.5 -32.5t-65 -35.5t-88.5 -19q-57 0 -94.5 33t-37.5 94q0 74 55 116t135 55l130 17v78q0 59 -31 80.5t-107 21.5q-62 0 -131 -21l-16 58q81 33 174 33q31 0 51 -1.5t50.5 -9t49 -22t32.5 -43t14 -69.5v-139l7 -198h109zM352 126v127
q-73 -8 -124 -20q-103 -24 -103 -98q0 -26 17.5 -43t57.5 -17q27 0 65 12.5t63 25.5z" />
    <glyph glyph-name="aring" unicode="&#xe5;" horiz-adv-x="560" 
d="M561 35q-12 -11 -60 -26t-75 -15q-25 0 -40.5 7t-22 21.5t-8.5 26t-2 30.5q-15 -16 -35.5 -32.5t-65 -35.5t-88.5 -19q-57 0 -94.5 33t-37.5 94q0 74 55 116t135 55l130 17v78q0 59 -31 80.5t-107 21.5q-62 0 -131 -21l-16 58q81 33 174 33q31 0 51 -1.5t50.5 -9t49 -22
t32.5 -43t14 -69.5v-139l7 -198h109zM352 126v127q-73 -8 -124 -20q-103 -24 -103 -98q0 -26 17.5 -43t57.5 -17q27 0 65 12.5t63 25.5zM381 731q0 -46 -37 -73t-79 -27q-15 0 -31 3t-39 12t-37.5 31t-14.5 55q0 51 35 78t83 27q47 0 83.5 -24.5t36.5 -81.5zM319 733
q0 26 -17 42.5t-41 16.5q-56 0 -56 -57q0 -26 16.5 -43t41.5 -17q27 0 41.5 15.5t14.5 42.5z" />
    <glyph glyph-name="ae" unicode="&#xe6;" horiz-adv-x="847" 
d="M803 263l-361 -14q3 -105 53.5 -143t144.5 -38q69 0 135 17l16 -54q-26 -17 -76 -28.5t-100 -11.5q-90 0 -146.5 21.5t-85.5 77.5q-109 -98 -219 -98q-57 0 -94.5 33t-37.5 94q0 74 55 116t135 55q62 9 130 13v83q0 59 -31 80.5t-107 21.5q-62 0 -131 -21l-16 58
q81 33 174 33q30 0 50 -2t49.5 -8.5t51 -23.5t33.5 -43q68 78 172 78q206 0 206 -264v-32zM701 324q0 88 -25.5 132t-86.5 44q-60 0 -99 -47.5t-46 -144.5zM367 132q-14 45 -16 114q-77 -2 -123 -13q-103 -24 -103 -98q0 -26 17.5 -43t57.5 -17q50 0 167 57z" />
    <glyph glyph-name="ccedilla" unicode="&#xe7;" horiz-adv-x="505" 
d="M403 -168q0 -45 -42.5 -82.5t-94.5 -37.5t-96 30l35 62q43 -28 91 -28q45 0 45 30q0 16 -10 27.5t-32 19.5t-41.5 12.5t-53.5 10.5l49 117q-113 9 -160 73.5t-47 181.5q0 152 72 230.5t210 78.5q18 0 35.5 -2t44 -8t43 -22t16.5 -40q0 -20 -13 -42t-34 -34
q-36 41 -65 59.5t-75 18.5q-143 0 -143 -211q0 -102 39.5 -156.5t140.5 -54.5q74 0 131 19l17 -52q-59 -37 -151 -40l-34 -62q65 -14 94 -35.5t29 -62.5z" />
    <glyph glyph-name="egrave" unicode="&#xe8;" horiz-adv-x="541" 
d="M149 767l61 61q78 -91 179 -167l-29 -43q-116 68 -211 149zM498 267h-362q3 -64 18 -105t43 -61t57 -26.5t72 -6.5q74 0 144 17l16 -54q-65 -40 -187 -40q-58 0 -100.5 11t-79 38t-55 78.5t-18.5 126.5q0 145 67.5 228.5t182.5 83.5q202 0 202 -262v-28zM396 324
q0 87 -25.5 130.5t-83.5 43.5q-61 0 -102.5 -45.5t-47.5 -128.5h259z" />
    <glyph glyph-name="eacute" unicode="&#xe9;" horiz-adv-x="541" 
d="M376 828l61 -61q-95 -81 -211 -149l-29 43q101 76 179 167zM498 267h-362q3 -64 18 -105t43 -61t57 -26.5t72 -6.5q74 0 144 17l16 -54q-65 -40 -187 -40q-58 0 -100.5 11t-79 38t-55 78.5t-18.5 126.5q0 145 67.5 228.5t182.5 83.5q202 0 202 -262v-28zM396 324
q0 87 -25.5 130.5t-83.5 43.5q-61 0 -102.5 -45.5t-47.5 -128.5h259z" />
    <glyph glyph-name="ecircumflex" unicode="&#xea;" horiz-adv-x="541" 
d="M151 622l-33 37q88 74 175 172q88 -106 163 -166l-41 -43q-50 30 -133 104q-69 -60 -131 -104zM498 267h-362q3 -64 18 -105t43 -61t57 -26.5t72 -6.5q74 0 144 17l16 -54q-65 -40 -187 -40q-58 0 -100.5 11t-79 38t-55 78.5t-18.5 126.5q0 145 67.5 228.5t182.5 83.5
q202 0 202 -262v-28zM396 324q0 87 -25.5 130.5t-83.5 43.5q-61 0 -102.5 -45.5t-47.5 -128.5h259z" />
    <glyph glyph-name="edieresis" unicode="&#xeb;" horiz-adv-x="541" 
d="M163 655q-10 0 -36 26.5t-26 35.5q0 10 26.5 36t35.5 26q10 0 36.5 -26t26.5 -36q0 -8 -26 -35t-37 -27zM381 655q-10 0 -36 26.5t-26 35.5q0 10 26.5 36t35.5 26q10 0 36.5 -26t26.5 -36q0 -8 -26 -35t-37 -27zM498 267h-362q3 -64 18 -105t43 -61t57 -26.5t72 -6.5
q74 0 144 17l16 -54q-65 -40 -187 -40q-58 0 -100.5 11t-79 38t-55 78.5t-18.5 126.5q0 145 67.5 228.5t182.5 83.5q202 0 202 -262v-28zM396 324q0 87 -25.5 130.5t-83.5 43.5q-61 0 -102.5 -45.5t-47.5 -128.5h259z" />
    <glyph glyph-name="igrave" unicode="&#xec;" horiz-adv-x="339" 
d="M0 767l61 61q78 -91 179 -167l-29 -43q-116 68 -211 149zM329 51q0 -37 -5 -51h-284q-4 30 -3 44l63 22q11 4 21 22t11 32l3 152v209h-102v50q99 22 149 22q21 0 30.5 -8t9.5 -28v-245l3 -183q0 -19 17 -22z" />
    <glyph glyph-name="iacute" unicode="&#xed;" horiz-adv-x="339" 
d="M273 828l61 -61q-95 -81 -211 -149l-29 43q101 76 179 167zM329 51q0 -37 -5 -51h-284q-4 30 -3 44l63 22q11 4 21 22t11 32l3 152v209h-102v50q99 22 149 22q21 0 30.5 -8t9.5 -28v-245l3 -183q0 -19 17 -22z" />
    <glyph glyph-name="icircumflex" unicode="&#xee;" horiz-adv-x="339" 
d="M32 622l-33 37q88 74 175 172q88 -106 163 -166l-41 -43q-50 30 -133 104q-69 -60 -131 -104zM329 51q0 -37 -5 -51h-284q-4 30 -3 44l63 22q11 4 21 22t11 32l3 152v209h-102v50q99 22 149 22q21 0 30.5 -8t9.5 -28v-245l3 -183q0 -19 17 -22z" />
    <glyph glyph-name="idieresis" unicode="&#xef;" horiz-adv-x="339" 
d="M68 646q-9 0 -35.5 26.5t-26.5 35.5q0 10 26.5 36t35.5 26t36 -26.5t27 -35.5q0 -8 -27 -35t-36 -27zM260 646q-9 0 -35.5 26.5t-26.5 35.5q0 10 26.5 36t35.5 26t36 -26.5t27 -35.5q0 -8 -27 -35t-36 -27zM329 51q0 -37 -5 -51h-284q-4 30 -3 44l63 22q11 4 21 22t11 32
l3 152v209h-102v50q99 22 149 22q21 0 30.5 -8t9.5 -28v-245l3 -183q0 -19 17 -22z" />
    <glyph glyph-name="eth" unicode="&#xf0;" horiz-adv-x="603" 
d="M285 -7q-240 0 -240 274q0 113 74 200t175 87q83 0 125 -26q-10 59 -63 115l-147 -54l-17 47l124 44q-52 42 -120 77l53 47q96 -42 150 -93l146 53l17 -46l-126 -46q54 -67 78 -154t24 -225q0 -128 -73 -214t-180 -86zM301 66q143 0 143 213q0 208 -161 208
q-146 0 -146 -221q0 -95 36.5 -147.5t127.5 -52.5z" />
    <glyph glyph-name="ntilde" unicode="&#xf1;" horiz-adv-x="691" 
d="M536 719l-7.5 -7.5t-9 -8.5t-9.5 -8t-11.5 -9l-12 -8t-14.5 -7.5t-15.5 -5.5t-17.5 -4t-19 -1q-21 0 -76.5 21.5t-70.5 21.5q-50 0 -78 -26l-27 33l9 10q9 10 12.5 12.5t13 11.5t16.5 12.5l18 9t22.5 7.5t24.5 2q27 0 86 -22t70 -22q19 0 36 5.5t25 10.5l8 5zM680 51
q0 -40 -4 -51h-240q-4 32 -3 48l28 19q30 20 30 55l3 151v84q0 73 -20.5 98.5t-92.5 25.5q-43 0 -91.5 -15.5t-71.5 -29.5v-163l3 -182q0 -10 0.5 -13.5t3.5 -6.5t9 -4l88 -16q0 -40 -4 -51h-267q-4 30 -3 44l46 22q15 7 24.5 25t9.5 33l3 149v207h-101v50q82 21 149 21
q21 0 29 -8t8 -28v-30q99 72 200 72q44 0 75 -9.5t48.5 -24t27 -40t12 -49.5t2.5 -61v-100l4 -192q0 -9 2 -11t11 -4z" />
    <glyph glyph-name="ograve" unicode="&#xf2;" horiz-adv-x="581" 
d="M155 767l61 61q78 -91 179 -167l-29 -43q-116 68 -211 149zM537 273q0 -112 -74 -196.5t-179 -84.5q-240 0 -240 275q0 113 74 201.5t175 88.5q244 0 244 -284zM439 279q0 43 -6 76.5t-21.5 66t-48 50.5t-81.5 18q-142 0 -142 -224q0 -96 34.5 -148t125.5 -52q43 0 72 17
t43 49.5t19 66.5t5 80z" />
    <glyph glyph-name="oacute" unicode="&#xf3;" horiz-adv-x="581" 
d="M385 828l61 -61q-95 -81 -211 -149l-29 43q101 76 179 167zM537 273q0 -112 -74 -196.5t-179 -84.5q-240 0 -240 275q0 113 74 201.5t175 88.5q244 0 244 -284zM439 279q0 43 -6 76.5t-21.5 66t-48 50.5t-81.5 18q-142 0 -142 -224q0 -96 34.5 -148t125.5 -52q43 0 72 17
t43 49.5t19 66.5t5 80z" />
    <glyph glyph-name="ocircumflex" unicode="&#xf4;" horiz-adv-x="581" 
d="M165 622l-33 37q88 74 175 172q88 -106 163 -166l-41 -43q-50 30 -133 104q-69 -60 -131 -104zM537 273q0 -112 -74 -196.5t-179 -84.5q-240 0 -240 275q0 113 74 201.5t175 88.5q244 0 244 -284zM439 279q0 43 -6 76.5t-21.5 66t-48 50.5t-81.5 18q-142 0 -142 -224
q0 -96 34.5 -148t125.5 -52q43 0 72 17t43 49.5t19 66.5t5 80z" />
    <glyph glyph-name="otilde" unicode="&#xf5;" horiz-adv-x="581" 
d="M475 719l-7.5 -7.5t-9 -8.5t-9.5 -8t-11.5 -9l-12 -8t-14.5 -7.5t-15.5 -5.5t-17.5 -4t-19 -1q-21 0 -76.5 21.5t-70.5 21.5q-50 0 -78 -26l-27 33l9 10q9 10 12.5 12.5t13 11.5t16.5 12.5l18 9t22.5 7.5t24.5 2q27 0 86 -22t70 -22q19 0 36 5.5t25 10.5l8 5zM537 273
q0 -112 -74 -196.5t-179 -84.5q-240 0 -240 275q0 113 74 201.5t175 88.5q244 0 244 -284zM439 279q0 43 -6 76.5t-21.5 66t-48 50.5t-81.5 18q-142 0 -142 -224q0 -96 34.5 -148t125.5 -52q43 0 72 17t43 49.5t19 66.5t5 80z" />
    <glyph glyph-name="odieresis" unicode="&#xf6;" horiz-adv-x="581" 
d="M181 655q-10 0 -36 26.5t-26 35.5q0 10 26.5 36t35.5 26q10 0 36.5 -26t26.5 -36q0 -8 -26 -35t-37 -27zM399 655q-10 0 -36 26.5t-26 35.5q0 10 26.5 36t35.5 26q10 0 36.5 -26t26.5 -36q0 -8 -26 -35t-37 -27zM537 273q0 -112 -74 -196.5t-179 -84.5q-240 0 -240 275
q0 113 74 201.5t175 88.5q244 0 244 -284zM439 279q0 43 -6 76.5t-21.5 66t-48 50.5t-81.5 18q-142 0 -142 -224q0 -96 34.5 -148t125.5 -52q43 0 72 17t43 49.5t19 66.5t5 80z" />
    <glyph glyph-name="divide" unicode="&#xf7;" horiz-adv-x="574" 
d="M292 36q-10 0 -37 28t-27 38t27.5 37t36.5 27q10 0 37.5 -27t27.5 -37q0 -9 -27 -37.5t-38 -28.5zM291 427q-10 0 -37 28t-27 38t27.5 37t36.5 27q10 0 37.5 -27t27.5 -37q0 -9 -27 -37.5t-38 -28.5zM47 270v65h480v-65h-480z" />
    <glyph glyph-name="oslash" unicode="&#xf8;" horiz-adv-x="580" 
d="M559 553l-69 -86q47 -68 47 -194q0 -112 -74 -196t-179 -84q-102 0 -161 50l-75 -79l-38 32l79 86q-45 67 -45 185q0 113 74 200t175 87q105 0 164 -50l65 81zM401 437q-40 50 -119 50q-142 0 -142 -221q0 -68 15 -110q137 151 246 281zM439 279q0 67 -14 110
q-125 -150 -242 -280q39 -42 117 -42q43 0 72 17t43 49.5t19 66t5 79.5z" />
    <glyph glyph-name="ugrave" unicode="&#xf9;" horiz-adv-x="665" 
d="M159 779l61 61q78 -91 179 -167l-29 -43q-116 68 -211 149zM653 75l7 -40q-75 -41 -135 -41q-68 0 -73 76q-28 -26 -47 -40t-56 -28t-79 -14q-52 0 -85 11.5t-49 36t-21 50.5t-5 66v328h-90v49q88 22 141 22q21 0 29.5 -8t8.5 -28v-241l3 -94q1 -28 3.5 -46t11 -36.5
t26.5 -27.5t46 -9q64 0 159 75l4 136v208h-101v48q89 23 149 23q21 0 30 -8t9 -28v-242l3 -198h111z" />
    <glyph glyph-name="uacute" unicode="&#xfa;" horiz-adv-x="665" 
d="M406 828l61 -61q-95 -81 -211 -149l-29 43q101 76 179 167zM653 75l7 -40q-75 -41 -135 -41q-68 0 -73 76q-28 -26 -47 -40t-56 -28t-79 -14q-52 0 -85 11.5t-49 36t-21 50.5t-5 66v328h-90v49q88 22 141 22q21 0 29.5 -8t8.5 -28v-241l3 -94q1 -28 3.5 -46t11 -36.5
t26.5 -27.5t46 -9q64 0 159 75l4 136v208h-101v48q89 23 149 23q21 0 30 -8t9 -28v-242l3 -198h111z" />
    <glyph glyph-name="ucircumflex" unicode="&#xfb;" horiz-adv-x="665" 
d="M176 622l-33 37q88 74 175 172q88 -106 163 -166l-41 -43q-50 30 -133 104q-69 -60 -131 -104zM653 75l7 -40q-75 -41 -135 -41q-68 0 -73 76q-28 -26 -47 -40t-56 -28t-79 -14q-52 0 -85 11.5t-49 36t-21 50.5t-5 66v328h-90v49q88 22 141 22q21 0 29.5 -8t8.5 -28v-241
l3 -94q1 -28 3.5 -46t11 -36.5t26.5 -27.5t46 -9q64 0 159 75l4 136v208h-101v48q89 23 149 23q21 0 30 -8t9 -28v-242l3 -198h111z" />
    <glyph glyph-name="udieresis" unicode="&#xfc;" horiz-adv-x="665" 
d="M203 655q-10 0 -36 26.5t-26 35.5q0 10 26.5 36t35.5 26q10 0 36.5 -26t26.5 -36q0 -8 -26 -35t-37 -27zM421 655q-10 0 -36 26.5t-26 35.5q0 10 26.5 36t35.5 26q10 0 36.5 -26t26.5 -36q0 -8 -26 -35t-37 -27zM653 75l7 -40q-75 -41 -135 -41q-68 0 -73 76
q-28 -26 -47 -40t-56 -28t-79 -14q-52 0 -85 11.5t-49 36t-21 50.5t-5 66v328h-90v49q88 22 141 22q21 0 29.5 -8t8.5 -28v-241l3 -94q1 -28 3.5 -46t11 -36.5t26.5 -27.5t46 -9q64 0 159 75l4 136v208h-101v48q89 23 149 23q21 0 30 -8t9 -28v-242l3 -198h111z" />
    <glyph glyph-name="yacute" unicode="&#xfd;" horiz-adv-x="554" 
d="M394 828l61 -61q-95 -81 -211 -149l-29 43q101 76 179 167zM551 546q0 -35 -4 -47q-28 -10 -40 -25q-13 -15 -25 -47l-200 -507q-44 -108 -119 -156l-55 71q54 34 91 88q26 38 39 80l-171 440q-18 42 -65 58q0 35 4 45h221q0 -36 -4 -52h-77l146 -387l120 314
q9 21 1.5 43t-29.5 30l-21 8q-1 6 -1 13q0 17 2 31h187z" />
    <glyph glyph-name="thorn" unicode="&#xfe;" horiz-adv-x="592" 
d="M545 289q0 -82 -22.5 -142t-61.5 -92.5t-85 -47.5t-100 -15t-95 6l6 -130q0 -7 0.5 -10t5 -6.5t13.5 -5.5l80 -15q3 -33 -4 -51h-257q-5 28 -3 47l26 15q37 21 37 63l3 370v419h-101v48q88 22 149 22q39 0 39 -39v-222q70 49 141 49q229 0 229 -263zM448 269q0 40 -8 76
t-24 68t-46 51.5t-70 19.5q-63 0 -124 -34v-177l3 -208q50 -8 100 -8q86 0 127.5 57t41.5 155z" />
    <glyph glyph-name="ydieresis" unicode="&#xff;" horiz-adv-x="554" 
d="M167 655q-10 0 -36 26.5t-26 35.5q0 10 26.5 36t35.5 26q10 0 36.5 -26t26.5 -36q0 -8 -26 -35t-37 -27zM385 655q-10 0 -36 26.5t-26 35.5q0 10 26.5 36t35.5 26q10 0 36.5 -26t26.5 -36q0 -8 -26 -35t-37 -27zM551 546q0 -35 -4 -47q-28 -10 -40 -25q-13 -15 -25 -47
l-200 -507q-44 -108 -119 -156l-55 71q54 34 91 88q26 38 39 80l-171 440q-18 42 -65 58q0 35 4 45h221q0 -36 -4 -52h-77l146 -387l120 314q9 21 1.5 43t-29.5 30l-21 8q-1 6 -1 13q0 17 2 31h187z" />
    <glyph glyph-name="Amacron" unicode="&#x100;" horiz-adv-x="698" 
d="M687 44q0 -29 -4 -44h-274q-4 20 -4 44l71 21q30 8 30 50q0 9 -4 25l-48 146h-248l-62 -156q-3 -8 -3 -16q0 -39 50 -54l55 -16q0 -29 -4 -44h-239q-4 20 -4 44q48 35 67 80l248 583l85 11l212 -583q8 -22 30 -48.5t46 -42.5zM433 351l-66 207l-21 78h-7l-25 -76
l-82 -209h201zM498 775h-298v69h298v-69z" />
    <glyph glyph-name="amacron" unicode="&#x101;" horiz-adv-x="560" 
d="M396 687h-298v69h298v-69zM561 35q-12 -11 -60 -26t-75 -15q-25 0 -40.5 7t-22 21.5t-8.5 26t-2 30.5q-15 -16 -35.5 -32.5t-65 -35.5t-88.5 -19q-57 0 -94.5 33t-37.5 94q0 74 55 116t135 55l130 17v78q0 59 -31 80.5t-107 21.5q-62 0 -131 -21l-16 58q81 33 174 33
q31 0 51 -1.5t50.5 -9t49 -22t32.5 -43t14 -69.5v-139l7 -198h109zM352 126v127q-73 -8 -124 -20q-103 -24 -103 -98q0 -26 17.5 -43t57.5 -17q27 0 65 12.5t63 25.5z" />
    <glyph glyph-name="Abreve" unicode="&#x102;" horiz-adv-x="698" 
d="M358 752q-48 0 -88 19t-55.5 34.5t-21.5 26.5l51 49q43 -59 118 -59q31 0 59 12.5t40 23.5t19 20l37 -38q-4 -7 -14 -19t-29 -29t-50 -28.5t-66 -11.5zM687 44q0 -29 -4 -44h-274q-4 20 -4 44l71 21q30 8 30 50q0 9 -4 25l-48 146h-248l-62 -156q-3 -8 -3 -16
q0 -39 50 -54l55 -16q0 -29 -4 -44h-239q-4 20 -4 44q48 35 67 80l248 583l85 11l212 -583q8 -22 30 -48.5t46 -42.5zM433 351l-66 207l-21 78h-7l-25 -76l-82 -209h201z" />
    <glyph glyph-name="abreve" unicode="&#x103;" horiz-adv-x="560" 
d="M377 790l37 -38q-4 -7 -14 -19t-29 -29t-50 -28.5t-66 -11.5q-48 0 -88 19t-55.5 34.5t-21.5 26.5l51 49q43 -59 118 -59q31 0 59 12.5t40 23.5t19 20zM561 35q-12 -11 -60 -26t-75 -15q-25 0 -40.5 7t-22 21.5t-8.5 26t-2 30.5q-15 -16 -35.5 -32.5t-65 -35.5t-88.5 -19
q-57 0 -94.5 33t-37.5 94q0 74 55 116t135 55l130 17v78q0 59 -31 80.5t-107 21.5q-62 0 -131 -21l-16 58q81 33 174 33q31 0 51 -1.5t50.5 -9t49 -22t32.5 -43t14 -69.5v-139l7 -198h109zM352 126v127q-73 -8 -124 -20q-103 -24 -103 -98q0 -26 17.5 -43t57.5 -17
q27 0 65 12.5t63 25.5z" />
    <glyph glyph-name="Aogonek" unicode="&#x104;" horiz-adv-x="698" 
d="M527 -179l18 -55q-44 -25 -110 -25q-60 0 -90.5 28.5t-30.5 75.5q0 31 13 60t40.5 56t43.5 40t48 36q13 6 30 25.5t17 33.5q0 29 -16 80l-36 110h-248l-62 -156q-3 -8 -3 -16q0 -39 50 -54l55 -16q0 -29 -4 -44h-239q-4 20 -4 44q48 35 67 80l240 574l93 27l212 -590
q8 -22 30 -48.5t46 -42.5q0 -29 -4 -44h-115q-74 0 -122 -33.5t-48 -88.5q1 -33 18.5 -52.5t42.5 -19.5q41 0 68 15zM433 351l-66 207l-21 78h-7l-25 -76l-82 -209h201z" />
    <glyph glyph-name="aogonek" unicode="&#x105;" horiz-adv-x="561" 
d="M443 -259q-60 0 -90.5 28.5t-30.5 75.5q0 79 85 151q-23 4 -35.5 18.5t-15 28.5t-3.5 36q-15 -16 -35.5 -32.5t-65 -35.5t-88.5 -19q-57 0 -94.5 33t-37.5 94q0 74 55 116t135 55l130 17v79q0 59 -31 80.5t-107 21.5q-62 0 -131 -21l-16 58q81 33 174 33q31 0 51 -1.5
t50.5 -9t49 -22t32.5 -43t14 -69.5v-140l7 -198h109l7 -40q-65 -27 -111.5 -68.5t-43.5 -94.5q1 -32 19 -50t44 -18q36 0 66 17l18 -55q-44 -25 -110 -25zM200 75q27 0 65 12.5t63 25.5l24 13v127q-73 -8 -124 -20q-103 -24 -103 -98q0 -26 17.5 -43t57.5 -17z" />
    <glyph glyph-name="Cacute" unicode="&#x106;" horiz-adv-x="661" 
d="M308 740l-15 46q114 40 223 108l38 -75q-88 -46 -246 -79zM616 19q-81 -27 -202 -27q-365 0 -365 356q0 162 96 266t265 104q30 0 55.5 -2t41.5 -4t34.5 -7.5t24.5 -7.5t22.5 -9t18.5 -8v-151h-46q-21 59 -55.5 90t-99.5 31q-118 0 -188.5 -72t-70.5 -220
q0 -147 77.5 -218t207.5 -71q81 0 163 17z" />
    <glyph glyph-name="cacute" unicode="&#x107;" horiz-adv-x="505" 
d="M376 828l61 -61q-95 -81 -211 -149l-29 43q101 76 179 167zM467 485q0 -20 -13 -42t-34 -34q-36 41 -65 59.5t-75 18.5q-143 0 -143 -211q0 -102 39.5 -156.5t140.5 -54.5q74 0 131 19l17 -52q-64 -41 -173 -41q-135 0 -190.5 65.5t-55.5 191.5q0 152 72 230.5t210 78.5
q18 0 35.5 -2t44 -8t43 -22t16.5 -40z" />
    <glyph glyph-name="Ccircumflex" unicode="&#x108;" horiz-adv-x="661" 
d="M267 740l-30 38q96 65 172 151q59 -71 160 -142l-38 -47q-75 37 -133 84q-73 -53 -131 -84zM616 19q-81 -27 -202 -27q-365 0 -365 356q0 162 96 266t265 104q30 0 55.5 -2t41.5 -4t34.5 -7.5t24.5 -7.5t22.5 -9t18.5 -8v-151h-46q-21 59 -55.5 90t-99.5 31
q-118 0 -188.5 -72t-70.5 -220q0 -147 77.5 -218t207.5 -71q81 0 163 17z" />
    <glyph glyph-name="ccircumflex" unicode="&#x109;" horiz-adv-x="505" 
d="M154 622l-33 37q88 74 175 172q88 -106 163 -166l-41 -43q-50 30 -133 104q-69 -60 -131 -104zM467 485q0 -20 -13 -42t-34 -34q-36 41 -65 59.5t-75 18.5q-143 0 -143 -211q0 -102 39.5 -156.5t140.5 -54.5q74 0 131 19l17 -52q-64 -41 -173 -41q-135 0 -190.5 65.5
t-55.5 191.5q0 152 72 230.5t210 78.5q18 0 35.5 -2t44 -8t43 -22t16.5 -40z" />
    <glyph glyph-name="Cdotaccent" unicode="&#x10a;" horiz-adv-x="661" 
d="M457 823q0 -9 -27.5 -37.5t-38.5 -28.5q-10 0 -37.5 28t-27.5 38q0 11 28 38t37 27q10 0 38 -27.5t28 -37.5zM616 19q-81 -27 -202 -27q-365 0 -365 356q0 162 96 266t265 104q30 0 55.5 -2t41.5 -4t34.5 -7.5t24.5 -7.5t22.5 -9t18.5 -8v-151h-46q-21 59 -55.5 90
t-99.5 31q-118 0 -188.5 -72t-70.5 -220q0 -147 77.5 -218t207.5 -71q81 0 163 17z" />
    <glyph glyph-name="cdotaccent" unicode="&#x10b;" horiz-adv-x="505" 
d="M360 721q0 -9 -28 -38t-39 -29q-10 0 -38 28.5t-28 38.5q0 11 28 38.5t38 27.5t38.5 -28t28.5 -38zM467 485q0 -20 -13 -42t-34 -34q-36 41 -65 59.5t-75 18.5q-143 0 -143 -211q0 -102 39.5 -156.5t140.5 -54.5q74 0 131 19l17 -52q-64 -41 -173 -41q-135 0 -190.5 65.5
t-55.5 191.5q0 152 72 230.5t210 78.5q18 0 35.5 -2t44 -8t43 -22t16.5 -40z" />
    <glyph glyph-name="Ccaron" unicode="&#x10c;" horiz-adv-x="661" 
d="M530 926l30 -38q-96 -65 -172 -151q-59 71 -160 142l38 47q75 -37 133 -84q73 53 131 84zM616 19q-81 -27 -202 -27q-365 0 -365 356q0 162 96 266t265 104q30 0 55.5 -2t41.5 -4t34.5 -7.5t24.5 -7.5t22.5 -9t18.5 -8v-151h-46q-21 59 -55.5 90t-99.5 31
q-118 0 -188.5 -72t-70.5 -220q0 -147 77.5 -218t207.5 -71q81 0 163 17z" />
    <glyph glyph-name="ccaron" unicode="&#x10d;" horiz-adv-x="505" 
d="M467 485q0 -20 -13 -42t-34 -34q-36 41 -65 59.5t-75 18.5q-143 0 -143 -211q0 -102 39.5 -156.5t140.5 -54.5q74 0 131 19l17 -52q-64 -41 -173 -41q-135 0 -190.5 65.5t-55.5 191.5q0 152 72 230.5t210 78.5q18 0 35.5 -2t44 -8t43 -22t16.5 -40zM454 788
q-88 -74 -175 -172q-88 106 -163 166l41 43q50 -30 133 -104q69 60 131 104z" />
    <glyph glyph-name="Dcaron" unicode="&#x10e;" horiz-adv-x="786" 
d="M519 926l30 -38q-96 -65 -172 -151q-59 71 -160 142l38 47q75 -37 133 -84q73 53 131 84zM736 371q0 -180 -106 -275.5t-288 -95.5h-300q-6 28 -4 48l68 18q39 10 39 68l2 140l1 332q0 29 -24 36l-74 24q-3 23 4 41h282q73 0 129.5 -8t109 -30t86.5 -59t54.5 -97
t20.5 -142zM626 353q0 149 -73.5 218t-219.5 69h-94v-367l6 -207h108q141 0 207 67t66 220z" />
    <glyph glyph-name="dcaron" unicode="&#x10f;" horiz-adv-x="621" 
d="M579 834l86 -5q-16 -112 -65 -235l-50 13q30 112 29 227zM613 36q-25 -15 -68 -29t-80 -14q-52 0 -52 82q-68 -82 -157 -82q-41 0 -76 12.5t-66.5 40t-49.5 80t-18 125.5q0 135 74 217t183 82q61 0 111 -11v155h-102v47q92 23 149 23q21 0 30.5 -8t9.5 -28v-455l4 -198
h101zM414 273v200q-73 14 -114 14q-48 0 -80.5 -18t-49 -52t-23 -74t-6.5 -95q0 -94 37.5 -132t111.5 -38q58 0 120 41z" />
    <glyph glyph-name="Dcroat" unicode="&#x110;" horiz-adv-x="784" 
d="M734 371q0 -180 -106 -275.5t-288 -95.5h-300q-6 28 -4 48l68 18q39 10 39 68l2 140v48h-107v66h107l1 218q0 29 -24 36l-74 24q-3 23 4 41h282q73 0 129.5 -8t109 -30t86.5 -59t54.5 -97t20.5 -142zM624 353q0 149 -73.5 218t-219.5 69h-94v-252h191v-66h-191v-49
l6 -207h108q141 0 207 67t66 220z" />
    <glyph glyph-name="dcroat" unicode="&#x111;" horiz-adv-x="622" 
d="M583 620h-82v-347l4 -197h101l7 -39q-25 -15 -68 -29t-80 -14q-52 0 -52 82q-24 -24 -37.5 -36t-46 -29t-63.5 -17q-220 0 -220 257q0 135 74 217t183 82q61 0 111 -11v81h-179v64h179v80h87v-80h82v-64zM414 273v200q-73 14 -114 14q-48 0 -80.5 -18t-49 -52t-23 -74
t-6.5 -95q0 -94 37.5 -131.5t111.5 -37.5q20 0 40 5t30.5 10t28.5 15t21 11z" />
    <glyph glyph-name="Emacron" unicode="&#x112;" horiz-adv-x="642" 
d="M604 165l-19 -165h-543q-6 28 -4 49l68 18q39 11 39 58l3 149v328q0 32 -24 40l-75 26v17q2 15 5 22h508v-160q-9 -1 -52 -1q-9 47 -26 68t-53 22l-192 6v-254l271 5v-76l-271 5v-49l5 -207l187 3q50 1 82 31.5t46 71.5zM484 775h-298v69h298v-69z" />
    <glyph glyph-name="emacron" unicode="&#x113;" horiz-adv-x="541" 
d="M443 687h-298v69h298v-69zM498 267h-362q3 -64 18 -105t43 -61t57 -26.5t72 -6.5q74 0 144 17l16 -54q-65 -40 -187 -40q-58 0 -100.5 11t-79 38t-55 78.5t-18.5 126.5q0 145 67.5 228.5t182.5 83.5q202 0 202 -262v-28zM396 324q0 87 -25.5 130.5t-83.5 43.5
q-61 0 -102.5 -45.5t-47.5 -128.5h259z" />
    <glyph glyph-name="Ebreve" unicode="&#x114;" horiz-adv-x="642" 
d="M330 752q-48 0 -88 19t-55.5 34.5t-21.5 26.5l51 49q43 -59 118 -59q31 0 59 12.5t40 23.5t19 20l37 -38q-4 -7 -14 -19t-29 -29t-50 -28.5t-66 -11.5zM604 165l-19 -165h-543q-6 28 -4 49l68 18q39 11 39 58l3 149v328q0 32 -24 40l-75 26v17q2 15 5 22h508v-160
q-9 -1 -52 -1q-9 47 -26 68t-53 22l-192 6v-254l271 5v-76l-271 5v-49l5 -207l187 3q50 1 82 31.5t46 71.5z" />
    <glyph glyph-name="ebreve" unicode="&#x115;" horiz-adv-x="541" 
d="M411 790l37 -38q-4 -7 -14 -19t-29 -29t-50 -28.5t-66 -11.5q-48 0 -88 19t-55.5 34.5t-21.5 26.5l51 49q43 -59 118 -59q31 0 59 12.5t40 23.5t19 20zM498 267h-362q3 -64 18 -105t43 -61t57 -26.5t72 -6.5q74 0 144 17l16 -54q-65 -40 -187 -40q-58 0 -100.5 11t-79 38
t-55 78.5t-18.5 126.5q0 145 67.5 228.5t182.5 83.5q202 0 202 -262v-28zM396 324q0 87 -25.5 130.5t-83.5 43.5q-61 0 -102.5 -45.5t-47.5 -128.5h259z" />
    <glyph glyph-name="Edotaccent" unicode="&#x116;" horiz-adv-x="642" 
d="M411 823q0 -9 -27.5 -37.5t-38.5 -28.5q-10 0 -37.5 28t-27.5 38q0 11 28 38t37 27q10 0 38 -27.5t28 -37.5zM604 165l-19 -165h-543q-6 28 -4 49l68 18q39 11 39 58l3 149v328q0 32 -24 40l-75 26v17q2 15 5 22h508v-160q-9 -1 -52 -1q-9 47 -26 68t-53 22l-192 6v-254
l271 5v-76l-271 5v-49l5 -207l187 3q50 1 82 31.5t46 71.5z" />
    <glyph glyph-name="edotaccent" unicode="&#x117;" horiz-adv-x="541" 
d="M345 721q0 -9 -28 -38t-39 -29q-10 0 -38 28.5t-28 38.5q0 11 28 38.5t38 27.5t38.5 -28t28.5 -38zM498 267h-362q3 -64 18 -105t43 -61t57 -26.5t72 -6.5q74 0 144 17l16 -54q-65 -40 -187 -40q-58 0 -100.5 11t-79 38t-55 78.5t-18.5 126.5q0 145 67.5 228.5
t182.5 83.5q202 0 202 -262v-28zM396 324q0 87 -25.5 130.5t-83.5 43.5q-61 0 -102.5 -45.5t-47.5 -128.5h259z" />
    <glyph glyph-name="Eogonek" unicode="&#x118;" horiz-adv-x="642" 
d="M595 -179l18 -55q-44 -25 -110 -25q-60 0 -90.5 28.5t-30.5 75.5q0 45 33.5 87t84.5 68h-458q-6 28 -4 49l68 18q18 4 28.5 20.5t10.5 37.5l3 149v328q0 32 -24 40l-75 26q-2 20 5 39h508v-160q-3 -1 -52 -1q-9 47 -26 68t-53 22l-192 6v-254l271 5v-76l-271 5v-49
l5 -207l187 3q50 1 82 31.5t46 71.5l45 -7l-19 -165q-119 -66 -119 -128q1 -32 19 -50t44 -18q36 0 66 17z" />
    <glyph glyph-name="eogonek" unicode="&#x119;" horiz-adv-x="542" 
d="M471 -179l18 -55q-44 -25 -110 -25q-60 0 -90.5 28.5t-30.5 75.5q0 80 80 147q-6 -1 -28 -1q-68 0 -113.5 11t-81.5 40.5t-52.5 83.5t-16.5 137q0 126 68.5 211t177.5 85q206 0 206 -264v-28h-362q3 -65 18 -106.5t44 -61t59.5 -25.5t77.5 -6q69 0 135 17l17 -56
q-63 -22 -104 -63.5t-41 -93.5q1 -32 19 -50t44 -18q36 0 66 17zM396 324q0 88 -25.5 132t-86.5 44q-58 0 -99.5 -46.5t-47.5 -129.5h259z" />
    <glyph glyph-name="Ecaron" unicode="&#x11a;" horiz-adv-x="642" 
d="M479 926l30 -38q-96 -65 -172 -151q-59 71 -160 142l38 47q75 -37 133 -84q73 53 131 84zM604 165l-19 -165h-543q-6 28 -4 49l68 18q39 11 39 58l3 149v328q0 32 -24 40l-75 26v17q2 15 5 22h508v-160q-9 -1 -52 -1q-9 47 -26 68t-53 22l-192 6v-254l271 5v-76l-271 5
v-49l5 -207l187 3q50 1 82 31.5t46 71.5z" />
    <glyph glyph-name="ecaron" unicode="&#x11b;" horiz-adv-x="541" 
d="M498 267h-362q3 -64 18 -105t43 -61t57 -26.5t72 -6.5q74 0 144 17l16 -54q-65 -40 -187 -40q-58 0 -100.5 11t-79 38t-55 78.5t-18.5 126.5q0 145 67.5 228.5t182.5 83.5q202 0 202 -262v-28zM396 324q0 87 -25.5 130.5t-83.5 43.5q-61 0 -102.5 -45.5t-47.5 -128.5h259
zM454 788q-88 -74 -175 -172q-88 106 -163 166l41 43q50 -30 133 -104q69 60 131 104z" />
    <glyph glyph-name="Gcircumflex" unicode="&#x11c;" horiz-adv-x="714" 
d="M277 740l-30 38q96 65 172 151q59 -71 160 -142l-38 -47q-75 37 -133 84q-73 -53 -131 -84zM414 -8q-365 0 -365 356q0 162 96 266t265 104q156 0 237 -45v-151h-46q-45 128 -195 128q-118 0 -188.5 -72t-70.5 -220q0 -147 77.5 -218t207.5 -71q73 0 123 13v214h91
l1 -273q-82 -31 -233 -31z" />
    <glyph glyph-name="gcircumflex" unicode="&#x11d;" horiz-adv-x="601" 
d="M157 622l-33 37q88 74 175 172q88 -106 163 -166l-41 -43q-50 30 -133 104q-69 -60 -131 -104zM586 465h-113q17 -30 17 -93q0 -71 -58.5 -124.5t-147.5 -53.5q-70 0 -123 25v-103h179q123 0 170 -33.5t47 -102.5q0 -84 -89 -143.5t-217 -59.5q-218 0 -218 135
q0 69 94 124q-13 0 -33.5 15t-20.5 45q0 60 62 135q-66 48 -66 137q0 70 53.5 129.5t155.5 59.5t144 -37l164 32v-87zM395 367q0 58 -30 96.5t-80 38.5q-66 0 -96.5 -35.5t-30.5 -88.5q0 -58 30.5 -92.5t93.5 -34.5q51 0 82 31t31 85zM460 -35q0 41 -36 52.5t-118 11.5h-137
q-43 -38 -43 -82q0 -104 167 -104q71 0 119 33.5t48 88.5z" />
    <glyph glyph-name="Gbreve" unicode="&#x11e;" horiz-adv-x="714" 
d="M403 752q-48 0 -88 19t-55.5 34.5t-21.5 26.5l51 49q43 -59 118 -59q31 0 59 12.5t40 23.5t19 20l37 -38q-4 -7 -14 -19t-29 -29t-50 -28.5t-66 -11.5zM414 -8q-365 0 -365 356q0 162 96 266t265 104q156 0 237 -45v-151h-46q-45 128 -195 128q-118 0 -188.5 -72
t-70.5 -220q0 -147 77.5 -218t207.5 -71q73 0 123 13v214h91l1 -273q-82 -31 -233 -31z" />
    <glyph glyph-name="gbreve" unicode="&#x11f;" horiz-adv-x="601" 
d="M402 790l37 -38q-4 -7 -14 -19t-29 -29t-50 -28.5t-66 -11.5q-48 0 -88 19t-55.5 34.5t-21.5 26.5l51 49q43 -59 118 -59q31 0 59 12.5t40 23.5t19 20zM586 465h-113q17 -30 17 -93q0 -71 -58.5 -124.5t-147.5 -53.5q-70 0 -123 25v-103h179q123 0 170 -33.5t47 -102.5
q0 -84 -89 -143.5t-217 -59.5q-218 0 -218 135q0 69 94 124q-13 0 -33.5 15t-20.5 45q0 60 62 135q-66 48 -66 137q0 70 53.5 129.5t155.5 59.5t144 -37l164 32v-87zM395 367q0 58 -30 96.5t-80 38.5q-66 0 -96.5 -35.5t-30.5 -88.5q0 -58 30.5 -92.5t93.5 -34.5q51 0 82 31
t31 85zM460 -35q0 41 -36 52.5t-118 11.5h-137q-43 -38 -43 -82q0 -104 167 -104q71 0 119 33.5t48 88.5z" />
    <glyph glyph-name="Gdotaccent" unicode="&#x120;" horiz-adv-x="714" 
d="M462 823q0 -9 -27.5 -37.5t-38.5 -28.5q-10 0 -37.5 28t-27.5 38q0 11 28 38t37 27q10 0 38 -27.5t28 -37.5zM414 -8q-365 0 -365 356q0 162 96 266t265 104q156 0 237 -45v-151h-46q-45 128 -195 128q-118 0 -188.5 -72t-70.5 -220q0 -147 77.5 -218t207.5 -71
q73 0 123 13v214h91l1 -273q-82 -31 -233 -31z" />
    <glyph glyph-name="gdotaccent" unicode="&#x121;" horiz-adv-x="601" 
d="M345 721q0 -9 -28 -38t-39 -29q-10 0 -38 28.5t-28 38.5q0 11 28 38.5t38 27.5t38.5 -28t28.5 -38zM586 465h-113q17 -30 17 -93q0 -71 -58.5 -124.5t-147.5 -53.5q-70 0 -123 25v-103h179q123 0 170 -33.5t47 -102.5q0 -84 -89 -143.5t-217 -59.5q-218 0 -218 135
q0 69 94 124q-13 0 -33.5 15t-20.5 45q0 60 62 135q-66 48 -66 137q0 70 53.5 129.5t155.5 59.5t144 -37l164 32v-87zM395 367q0 58 -30 96.5t-80 38.5q-66 0 -96.5 -35.5t-30.5 -88.5q0 -58 30.5 -92.5t93.5 -34.5q51 0 82 31t31 85zM460 -35q0 41 -36 52.5t-118 11.5h-137
q-43 -38 -43 -82q0 -104 167 -104q71 0 119 33.5t48 88.5z" />
    <glyph glyph-name="Gcommaaccent" unicode="&#x122;" horiz-adv-x="714" 
d="M375 -68l86 -5q-16 -112 -65 -235l-50 13q30 112 29 227zM414 -8q-365 0 -365 356q0 162 96 266t265 104q156 0 237 -45v-151h-46q-45 128 -195 128q-118 0 -188.5 -72t-70.5 -220q0 -147 77.5 -218t207.5 -71q73 0 123 13v214h91l1 -273q-82 -31 -233 -31z" />
    <glyph glyph-name="gcommaaccent" unicode="&#x123;" horiz-adv-x="601" 
d="M318 618l-86 5q16 112 65 235l50 -13q-30 -112 -29 -227zM586 465h-113q17 -30 17 -93q0 -71 -58.5 -124.5t-147.5 -53.5q-70 0 -123 25v-103h179q123 0 170 -33.5t47 -102.5q0 -84 -89 -143.5t-217 -59.5q-218 0 -218 135q0 69 94 124q-13 0 -33.5 15t-20.5 45
q0 60 62 135q-66 48 -66 137q0 70 53.5 129.5t155.5 59.5t144 -37l164 32v-87zM395 367q0 58 -30 96.5t-80 38.5q-66 0 -96.5 -35.5t-30.5 -88.5q0 -58 30.5 -92.5t93.5 -34.5q51 0 82 31t31 85zM460 -35q0 41 -36 52.5t-118 11.5h-137q-43 -38 -43 -82q0 -104 167 -104
q71 0 119 33.5t48 88.5z" />
    <glyph glyph-name="Hcircumflex" unicode="&#x124;" horiz-adv-x="858" 
d="M301 740l-30 38q96 65 172 151q59 -71 160 -142l-38 -47q-75 37 -133 84q-73 -53 -131 -84zM823 53q0 -39 -5 -53h-286q-6 28 -4 48l42 12q31 9 42 29.5t12 63.5l2 120v49h-390v-49l4 -160q1 -32 22 -37l96 -26q0 -36 -5 -50h-306q-5 27 -4 44l58 21q41 16 43 80l2 128
v308q0 55 -30 64l-73 21q0 26 4 41h272q5 -27 4 -45l-56 -13q-20 -5 -25.5 -13t-5.5 -28v-220h390v183q0 62 -41 77l-49 18q-2 23 1 41h262q0 -36 -2 -45l-52 -12q-17 -5 -23 -12.5t-6 -26.5v-338l4 -161q0 -36 19 -40z" />
    <glyph glyph-name="hcircumflex" unicode="&#x125;" horiz-adv-x="677" 
d="M13 783l-30 38q96 65 172 151q59 -71 160 -142l-38 -47q-75 37 -133 84q-73 -53 -131 -84zM662 53q0 -39 -5 -53h-248q-4 32 -3 49l43 19q28 11 29 59l3 146v84q0 73 -20.5 98.5t-92.5 25.5q-43 0 -96 -15.5t-75 -29.5v-163l4 -174q0 -18 3 -24t16 -8l94 -16
q0 -37 -5 -51h-278q-4 30 -3 44l46 20q14 6 23.5 25t10.5 42l2 142v421h-101v47q92 23 149 23q21 0 30 -8t9 -28v-243q99 72 206 72q44 0 75 -9.5t48.5 -24t27 -40t12 -49.5t2.5 -61v-100l3 -185q0 -11 4 -15t15 -6z" />
    <glyph glyph-name="Hbar" unicode="&#x126;" horiz-adv-x="858" 
d="M822 53q0 -39 -5 -53h-286q-6 28 -4 48l42 12q31 9 42 29.5t12 63.5l2 120v49h-390v-49l4 -160q1 -32 22 -37l96 -26q0 -36 -5 -50h-306q-5 27 -4 44l58 21q41 16 43 80l2 128v208h-83v57h83v43q0 55 -30 64l-73 21q0 26 4 41h272q5 -27 4 -45l-56 -13q-20 -5 -25.5 -13
t-5.5 -28v-70h390v33q0 62 -41 77l-49 18q-2 23 1 41h262q0 -36 -2 -45l-52 -12q-17 -5 -23 -12.5t-6 -26.5v-73h82v-57h-82v-208l4 -161q0 -36 19 -40zM235 388h390v93h-390v-93z" />
    <glyph glyph-name="hbar" unicode="&#x127;" horiz-adv-x="677" 
d="M662 53q0 -39 -5 -53h-248q-4 32 -3 49l43 19q12 5 20.5 24.5t8.5 34.5l3 146v84q0 73 -20.5 98.5t-92.5 25.5q-43 0 -96 -15.5t-75 -29.5v-163l4 -174q0 -18 3 -24t16 -8l94 -16q0 -37 -5 -51h-278q-4 30 -3 44l46 20q14 6 23.5 25t10.5 42l2 142v347h-103v64h103v80h87
v-80h225v-64h-225v-135q99 72 206 72q44 0 75 -9.5t48.5 -24t27 -40t12 -49.5t2.5 -61v-100l3 -185q0 -11 4 -15t15 -6z" />
    <glyph glyph-name="Itilde" unicode="&#x128;" horiz-adv-x="379" 
d="M270 757q-21 0 -86.5 21.5t-80.5 21.5q-45 0 -78 -26l-27 33l9 10q9 10 12.5 12.5t13 11.5t16.5 12.5l18 9t22.5 7.5t24.5 2q27 0 96 -22t80 -22q19 0 36 5t25 11l8 5l27 -33l-7.5 -7.5t-9 -8.5t-9.5 -8t-11.5 -9l-12 -8t-14.5 -7.5t-15.5 -5.5t-17.5 -4t-19 -1zM344 50
q0 -36 -5 -50h-283q-5 27 -4 44l53 21q37 14 38 69l2 139v300q0 61 -50 78l-40 15q-2 6 -1.5 19.5t2.5 21.5h262q5 -23 3 -45l-41 -9q-44 -10 -44 -77v-303l3 -170q0 -18 6 -25.5t22 -10.5z" />
    <glyph glyph-name="itilde" unicode="&#x129;" horiz-adv-x="339" 
d="M351 719l-7.5 -7.5t-9 -8.5t-9.5 -8t-11.5 -9l-12 -8t-14.5 -7.5t-15.5 -5.5t-17.5 -4t-19 -1q-21 0 -76.5 21.5t-70.5 21.5q-50 0 -78 -26l-27 33l9 10q9 10 12.5 12.5t13 11.5t16.5 12.5l18 9t22.5 7.5t24.5 2q27 0 86 -22t70 -22q19 0 36 5.5t25 10.5l8 5zM329 51
q0 -37 -5 -51h-284q-4 30 -3 44l63 22q11 4 21 22t11 32l3 152v209h-102v50q99 22 149 22q21 0 30.5 -8t9.5 -28v-245l3 -183q0 -19 17 -22z" />
    <glyph glyph-name="Imacron" unicode="&#x12a;" horiz-adv-x="379" 
d="M344 50q0 -36 -5 -50h-283q-5 27 -4 44l53 21q37 14 38 69l2 139v300q0 61 -50 78l-40 15q-2 6 -1.5 19.5t2.5 21.5h262q5 -23 3 -45l-41 -9q-44 -10 -44 -77v-303l3 -170q0 -18 6 -25.5t22 -10.5zM340 775h-298v69h298v-69z" />
    <glyph glyph-name="imacron" unicode="&#x12b;" horiz-adv-x="339" 
d="M312 687h-298v69h298v-69zM329 51q0 -37 -5 -51h-284q-4 30 -3 44l63 22q11 4 21 22t11 32l3 152v209h-102v50q99 22 149 22q21 0 30.5 -8t9.5 -28v-245l3 -183q0 -19 17 -22z" />
    <glyph glyph-name="Ibreve" unicode="&#x12c;" horiz-adv-x="379" 
d="M193 752q-48 0 -88 19t-55.5 34.5t-21.5 26.5l51 49q43 -59 118 -59q31 0 59 12.5t40 23.5t19 20l37 -38q-4 -7 -14 -19t-29 -29t-50 -28.5t-66 -11.5zM344 50q0 -36 -5 -50h-283q-5 27 -4 44l53 21q37 14 38 69l2 139v300q0 61 -50 78l-40 15q-2 6 -1.5 19.5t2.5 21.5
h262q5 -23 3 -45l-41 -9q-44 -10 -44 -77v-303l3 -170q0 -18 6 -25.5t22 -10.5z" />
    <glyph glyph-name="ibreve" unicode="&#x12d;" horiz-adv-x="339" 
d="M296 790l37 -38q-4 -7 -14 -19t-29 -29t-50 -28.5t-66 -11.5q-48 0 -88 19t-55.5 34.5t-21.5 26.5l51 49q43 -59 118 -59q31 0 59 12.5t40 23.5t19 20zM329 51q0 -37 -5 -51h-284q-4 30 -3 44l63 22q11 4 21 22t11 32l3 152v209h-102v50q99 22 149 22q21 0 30.5 -8
t9.5 -28v-245l3 -183q0 -19 17 -22z" />
    <glyph glyph-name="Iogonek" unicode="&#x12e;" horiz-adv-x="377" 
d="M160 -179l18 -55q-44 -25 -110 -25q-60 0 -90.5 28.5t-30.5 75.5q0 101 134 189q58 33 60 100l2 139v300q0 61 -50 78l-40 15q-1 5 -1 22q0 9 2 19h262q5 -23 3 -45l-41 -9q-22 -5 -33 -27.5t-11 -49.5v-303l3 -170q0 -19 4.5 -26t20.5 -10l80 -17q0 -36 -5 -50h-158
q-62 1 -105 -35.5t-43 -92.5q1 -32 19 -50t44 -18q36 0 66 17z" />
    <glyph glyph-name="iogonek" unicode="&#x12f;" horiz-adv-x="347" 
d="M141 -179l18 -55q-44 -25 -110 -25q-60 0 -90.5 28.5t-30.5 75.5q0 61 48 116t112 88q51 23 53 84l2 139v208h-102v51q99 22 149 22q21 0 30.5 -8t9.5 -28v-245l3 -183q0 -19 17 -22l87 -16q0 -37 -5 -51h-174q-63 0 -104.5 -35t-41.5 -93q1 -32 19 -50t44 -18
q36 0 66 17zM260 715q0 -10 -31.5 -42.5t-43.5 -32.5t-43 32t-31 43q0 12 31 43t43 31q11 0 43 -31.5t32 -42.5z" />
    <glyph glyph-name="Idotaccent" unicode="&#x130;" horiz-adv-x="379" 
d="M250 823q0 -9 -27.5 -37.5t-38.5 -28.5q-10 0 -37.5 28t-27.5 38q0 11 28 38t37 27q10 0 38 -27.5t28 -37.5zM344 50q0 -36 -5 -50h-283q-5 27 -4 44l53 21q37 14 38 69l2 139v300q0 61 -50 78l-40 15q-2 6 -1.5 19.5t2.5 21.5h262q5 -23 3 -45l-41 -9q-44 -10 -44 -77
v-303l3 -170q0 -18 6 -25.5t22 -10.5z" />
    <glyph glyph-name="dotlessi" unicode="&#x131;" horiz-adv-x="339" 
d="M329 51q0 -37 -5 -51h-284q-4 30 -3 44l63 22q11 4 21 22t11 32l3 152v209h-102v50q99 22 149 22q21 0 30.5 -8t9.5 -28v-245l3 -183q0 -19 17 -22z" />
    <glyph glyph-name="IJ" unicode="&#x132;" horiz-adv-x="718" 
d="M344 50q0 -36 -5 -50h-283q-5 27 -4 44l53 21q37 14 38 69l2 139v300q0 61 -50 78l-40 15q-2 6 -1.5 19.5t2.5 21.5h262q5 -23 3 -45l-41 -9q-44 -10 -44 -77v-303l3 -170q0 -18 6 -25.5t22 -10.5zM679 663l-48 -12q-23 -5 -30.5 -13.5t-7.5 -30.5v-520
q0 -103 -50 -162.5t-153 -111.5l-34 59q80 49 112.5 109.5t32.5 164.5v431q0 57 -48 74l-44 15q0 27 5 41h262q4 -30 3 -44z" />
    <glyph glyph-name="ij" unicode="&#x133;" horiz-adv-x="679" 
d="M41 0q-3 22 -3 44l63 22q11 4 21 22t11 32l3 152v208h-102v51q99 22 149 22q21 0 30.5 -8t9.5 -28v-245l3 -183q0 -19 17 -22l87 -16q0 -37 -5 -51h-284zM178 640q-12 0 -43 32t-31 43q0 12 31 43t43 31q11 0 43 -31.5t32 -42.5q0 -10 -31.5 -42.5t-43.5 -32.5zM412 -224
q-39 0 -60 8l9 65q34 -8 63 -8q50 0 66 29.5t16 97.5v512h-100v51q99 22 149 22q21 0 29.5 -8t8.5 -28v-245l5 -275q2 -99 -52.5 -160t-133.5 -61zM549 641q-11 0 -42.5 32t-31.5 43q0 12 31.5 43t42.5 31t43 -31.5t32 -42.5q0 -10 -31.5 -42.5t-43.5 -32.5z" />
    <glyph glyph-name="Jcircumflex" unicode="&#x134;" horiz-adv-x="353" 
d="M46 740l-30 38q96 65 172 151q59 -71 160 -142l-38 -47q-75 37 -133 84q-73 -53 -131 -84zM314 663l-48 -12q-23 -5 -30.5 -13.5t-7.5 -30.5v-520q0 -103 -50 -162.5t-153 -111.5l-34 59q80 49 112.5 109.5t32.5 164.5v431q0 57 -48 74l-44 15q0 27 5 41h262q4 -30 3 -44
z" />
    <glyph glyph-name="jcircumflex" unicode="&#x135;" horiz-adv-x="289" 
d="M23 622l-33 37q88 74 175 172q88 -106 163 -166l-41 -43q-50 30 -133 104q-69 -60 -131 -104zM22 -212q-39 0 -60 8l9 65q34 -8 63 -8q50 0 66 29.5t16 97.5v500h-100v51q99 22 149 22q21 0 29.5 -8t8.5 -28v-245l5 -263q2 -99 -52.5 -160t-133.5 -61z" />
    <glyph glyph-name="Kcommaaccent" unicode="&#x136;" horiz-adv-x="719" 
d="M370 -68l86 -5q-16 -112 -65 -235l-50 13q30 112 29 227zM41 0q-5 27 -4 44l66 23q36 13 38 67l2 139v310q0 20 -7.5 38t-22.5 24l-60 21q-2 6 -1.5 19.5t2.5 21.5h262q5 -25 4 -39l-50 -19q-36 -14 -36 -71v-297l2 -173q0 -30 21 -36l65 -21q0 -37 -5 -51h-276zM717 -22
q-120 5 -176 65l-281 298v43l224 204q20 17 20 36t-17 24l-48 15q0 33 4 44h234v-44l-327 -275l243 -253q76 -80 135 -100z" />
    <glyph glyph-name="kcommaaccent" unicode="&#x137;" horiz-adv-x="594" 
d="M28 0q-4 30 -3 44l53 21q16 6 25.5 26t9.5 39l4 143v421h-101v48q88 22 149 22q39 0 39 -39v-452l3 -149q2 -50 30 -62l38 -17q0 -31 -5 -45h-242zM594 35l-3 -47q-66 -1 -117.5 17.5t-91.5 72.5l-163 206l160 156q14 14 14 27q0 22 -16 27l-43 16q-1 25 2 36h198v-36
l-213 -201l137 -176q28 -38 68.5 -64t67.5 -34zM282 -68l86 -5q-16 -112 -65 -235l-50 13q30 112 29 227z" />
    <glyph glyph-name="uni0138" unicode="&#x138;" horiz-adv-x="607" 
d="M44 0q-4 30 -3 44l53 21q16 6 25.5 26t9.5 39l4 143v214h-101v48q88 22 149 22q39 0 39 -39v-245l3 -149q2 -50 30 -62l38 -17q0 -31 -5 -45h-242zM610 26l-3 -47q-66 -1 -117.5 17.5t-91.5 72.5l-163 215l160 156q14 14 14 27q0 22 -16 27l-43 16q-1 25 2 36h198v-36
l-213 -201l137 -185q28 -38 68.5 -64t67.5 -34z" />
    <glyph glyph-name="Lacute" unicode="&#x139;" horiz-adv-x="579" 
d="M122 740l-15 46q114 40 223 108l38 -75q-88 -46 -246 -79zM570 165l-20 -165h-506q-6 28 -4 48l64 18q17 4 27 20.5t10 37.5l3 148v311q0 20 -7.5 38.5t-22.5 23.5l-63 21q0 26 4 41h262q5 -27 4 -44l-48 -12q-23 -5 -30.5 -11.5t-7.5 -27.5v-339l5 -204l164 4
q86 3 121 99z" />
    <glyph glyph-name="lacute" unicode="&#x13a;" horiz-adv-x="322" 
d="M84 787l-15 46q114 40 223 108l38 -75q-88 -46 -246 -79zM312 50q0 -36 -5 -50h-280q-4 30 -3 44l53 19q33 12 35 56l5 154v421h-101v48q88 22 149 22q39 0 39 -39v-452l5 -187q0 -12 2 -14.5t10 -4.5z" />
    <glyph glyph-name="Lcommaaccent" unicode="&#x13b;" horiz-adv-x="579" 
d="M274 -68l86 -5q-16 -112 -65 -235l-50 13q30 112 29 227zM570 165l-20 -165h-506q-6 28 -4 48l64 18q17 4 27 20.5t10 37.5l3 148v311q0 20 -7.5 38.5t-22.5 23.5l-63 21q0 26 4 41h262q5 -27 4 -44l-48 -12q-23 -5 -30.5 -11.5t-7.5 -27.5v-339l5 -204l164 4
q86 3 121 99z" />
    <glyph glyph-name="lcommaaccent" unicode="&#x13c;" horiz-adv-x="322" 
d="M118 -68l86 -5q-16 -112 -65 -235l-50 13q30 112 29 227zM312 50q0 -36 -5 -50h-280q-4 30 -3 44l53 19q33 12 35 56l5 154v421h-101v48q88 22 149 22q39 0 39 -39v-452l5 -187q0 -12 2 -14.5t10 -4.5z" />
    <glyph glyph-name="Lcaron" unicode="&#x13d;" horiz-adv-x="579" 
d="M417 835l86 -5q-16 -112 -65 -235l-50 13q30 112 29 227zM570 165l-20 -165h-506q-6 28 -4 48l64 18q17 4 27 20.5t10 37.5l3 148v311q0 20 -7.5 38.5t-22.5 23.5l-63 21q0 26 4 41h262q5 -27 4 -44l-48 -12q-23 -5 -30.5 -11.5t-7.5 -27.5v-339l5 -204l164 4
q86 3 121 99z" />
    <glyph glyph-name="lcaron" unicode="&#x13e;" horiz-adv-x="322" 
d="M295 836l86 -5q-16 -112 -65 -235l-50 13q30 112 29 227zM312 50q0 -36 -5 -50h-280q-4 30 -3 44l53 19q33 12 35 56l5 154v421h-101v48q88 22 149 22q39 0 39 -39v-452l5 -187q0 -12 2 -14.5t10 -4.5z" />
    <glyph glyph-name="Ldot" unicode="&#x13f;" horiz-adv-x="579" 
d="M515 335q-12 0 -43.5 32t-31.5 43q0 12 32 43t43 31t42.5 -31.5t31.5 -42.5q0 -10 -31 -42.5t-43 -32.5zM570 165l-20 -165h-506q-6 28 -4 48l64 18q17 4 27 20.5t10 37.5l3 148v311q0 20 -7.5 38.5t-22.5 23.5l-63 21q0 26 4 41h262q5 -27 4 -44l-48 -12
q-23 -5 -30.5 -11.5t-7.5 -27.5v-339l5 -204l164 4q86 3 121 99z" />
    <glyph glyph-name="ldot" unicode="&#x140;" horiz-adv-x="390" 
d="M356 295q-12 0 -43.5 32t-31.5 43q0 12 32 43t43 31t42.5 -31.5t31.5 -42.5q0 -10 -31 -42.5t-43 -32.5zM312 50q0 -36 -5 -50h-280q-4 30 -3 44l53 19q33 12 35 56l5 154v421h-101v48q88 22 149 22q39 0 39 -39v-452l5 -187q0 -12 2 -14.5t10 -4.5z" />
    <glyph glyph-name="Lslash" unicode="&#x141;" horiz-adv-x="580" 
d="M42 268l-1 54l104 59v202q0 20 -7.5 38.5t-22.5 23.5l-63 21q0 26 4 41h262q5 -27 4 -44l-48 -12q-23 -5 -30.5 -11.5t-7.5 -27.5v-179l208 120v-74l-208 -109v-97l5 -204l164 4q86 3 121 99l45 -7l-20 -165h-506q-6 28 -4 48l64 18q17 4 27 20.5t10 37.5l3 148v50z" />
    <glyph glyph-name="lslash" unicode="&#x142;" horiz-adv-x="322" 
d="M312 50q0 -36 -5 -50h-280q-4 30 -3 44l53 19q33 12 35 56l5 154v60l-86 -44v54l86 48v303h-101v48q88 22 149 22q39 0 39 -39v-285l95 53v-66l-95 -49v-105l5 -187q0 -12 2 -14.5t10 -4.5z" />
    <glyph glyph-name="Nacute" unicode="&#x143;" horiz-adv-x="832" 
d="M345 740l-15 46q114 40 223 108l38 -75q-88 -46 -246 -79zM802 668l-59 -17q-19 -5 -30 -24t-11 -45v-582l-73 -12l-417 602h-7l9 -80v-237l3 -160q0 -19 4 -25.5t20 -12.5l85 -29q0 -32 -5 -46h-281q-5 27 -4 44l58 18q46 14 48 84l2 127v321q0 40 -29 51l-61 21
q0 34 2 41h202l377 -543h7l-10 105v312q0 50 -37 64l-63 21q0 30 4 41h262q4 -30 4 -39z" />
    <glyph glyph-name="nacute" unicode="&#x144;" horiz-adv-x="691" 
d="M467 828l61 -61q-95 -81 -211 -149l-29 43q101 76 179 167zM680 51q0 -40 -4 -51h-240q-4 32 -3 48l28 19q30 20 30 55l3 151v84q0 73 -20.5 98.5t-92.5 25.5q-43 0 -91.5 -15.5t-71.5 -29.5v-163l3 -182q0 -10 0.5 -13.5t3.5 -6.5t9 -4l88 -16q0 -40 -4 -51h-267
q-4 30 -3 44l46 22q15 7 24.5 25t9.5 33l3 149v207h-101v50q82 21 149 21q21 0 29 -8t8 -28v-30q99 72 200 72q44 0 75 -9.5t48.5 -24t27 -40t12 -49.5t2.5 -61v-100l4 -192q0 -9 2 -11t11 -4z" />
    <glyph glyph-name="Ncommaaccent" unicode="&#x145;" horiz-adv-x="832" 
d="M395 -68l86 -5q-16 -112 -65 -235l-50 13q30 112 29 227zM802 668l-59 -17q-19 -5 -30 -24t-11 -45v-582l-73 -12l-417 602h-7l9 -80v-237l3 -160q0 -19 4 -25.5t20 -12.5l85 -29q0 -32 -5 -46h-281q-5 27 -4 44l58 18q46 14 48 84l2 127v321q0 40 -29 51l-61 21
q0 34 2 41h202l377 -543h7l-10 105v312q0 50 -37 64l-63 21q0 30 4 41h262q4 -30 4 -39z" />
    <glyph glyph-name="ncommaaccent" unicode="&#x146;" horiz-adv-x="691" 
d="M680 51q0 -40 -4 -51h-240q-4 32 -3 48l28 19q30 20 30 55l3 151v84q0 73 -20.5 98.5t-92.5 25.5q-43 0 -91.5 -15.5t-71.5 -29.5v-163l3 -182q0 -10 0.5 -13.5t3.5 -6.5t9 -4l88 -16q0 -40 -4 -51h-267q-4 30 -3 44l46 22q15 7 24.5 25t9.5 33l3 149v207h-101v50
q82 21 149 21q21 0 29 -8t8 -28v-30q99 72 200 72q44 0 75 -9.5t48.5 -24t27 -40t12 -49.5t2.5 -61v-100l4 -192q0 -9 2 -11t11 -4zM332 -68l86 -5q-16 -112 -65 -235l-50 13q30 112 29 227z" />
    <glyph glyph-name="Ncaron" unicode="&#x147;" horiz-adv-x="832" 
d="M557 926l30 -38q-96 -65 -172 -151q-59 71 -160 142l38 47q75 -37 133 -84q73 53 131 84zM802 668l-59 -17q-19 -5 -30 -24t-11 -45v-582l-73 -12l-417 602h-7l9 -80v-237l3 -160q0 -19 4 -25.5t20 -12.5l85 -29q0 -32 -5 -46h-281q-5 27 -4 44l58 18q46 14 48 84l2 127
v321q0 40 -29 51l-61 21q0 34 2 41h202l377 -543h7l-10 105v312q0 50 -37 64l-63 21q0 30 4 41h262q4 -30 4 -39z" />
    <glyph glyph-name="ncaron" unicode="&#x148;" horiz-adv-x="691" 
d="M680 51q0 -40 -4 -51h-240q-4 32 -3 48l28 19q30 20 30 55l3 151v84q0 73 -20.5 98.5t-92.5 25.5q-43 0 -91.5 -15.5t-71.5 -29.5v-163l3 -182q0 -10 0.5 -13.5t3.5 -6.5t9 -4l88 -16q0 -40 -4 -51h-267q-4 30 -3 44l46 22q15 7 24.5 25t9.5 33l3 149v207h-101v50
q82 21 149 21q21 0 29 -8t8 -28v-30q99 72 200 72q44 0 75 -9.5t48.5 -24t27 -40t12 -49.5t2.5 -61v-100l4 -192q0 -9 2 -11t11 -4zM536 788q-88 -74 -175 -172q-88 106 -163 166l41 43q50 -30 133 -104q69 60 131 104z" />
    <glyph glyph-name="napostrophe" unicode="&#x149;" horiz-adv-x="747" 
d="M125 704q0 -48 -34.5 -101.5t-77.5 -79.5l-29 25q3 4 14 15.5t17.5 19t14.5 19t12 23t5 22.5q-16 9 -38 33t-22 33q0 11 29 39.5t39 28.5q14 0 42 -30t28 -47zM736 51q0 -40 -4 -51h-240q-4 32 -3 48l28 19q30 20 30 55l3 151v84q0 73 -20.5 98.5t-92.5 25.5
q-43 0 -91.5 -15.5t-71.5 -29.5v-163l3 -182q0 -10 0.5 -13.5t3.5 -6.5t9 -4l88 -16q0 -40 -4 -51h-267q-4 30 -3 44l46 22q15 7 24.5 25t9.5 33l3 149v207h-101v50q82 21 149 21q21 0 29 -8t8 -28v-30q99 72 200 72q44 0 75 -9.5t48.5 -24t27 -40t12 -49.5t2.5 -61v-100
l4 -192q0 -9 2 -11t11 -4z" />
    <glyph glyph-name="Eng" unicode="&#x14a;" horiz-adv-x="833" 
d="M802 668l-59 -17q-18 -5 -29.5 -25.5t-11.5 -43.5v-459l4 -114q2 -99 -52.5 -160t-133.5 -61q-39 0 -60 8l9 65q34 -8 63 -8q97 0 97 144l-22 -9l-395 602h-7l9 -80v-237l3 -160q0 -19 4 -25.5t20 -12.5l85 -29q0 -32 -5 -46h-281q-5 27 -4 44l58 18q22 6 34.5 31.5
t13.5 52.5l2 127v321q0 40 -29 51l-61 21q0 34 2 41h202l377 -560h7l-10 105v329q0 19 -11 38.5t-26 25.5l-63 21q0 30 4 41h262q4 -30 4 -39z" />
    <glyph glyph-name="eng" unicode="&#x14b;" horiz-adv-x="660" 
d="M400 -212q-39 0 -60 8l9 65q34 -8 63 -8q50 0 66 29.5t16 97.5v377q0 73 -20.5 98.5t-92.5 25.5q-43 0 -91.5 -15.5t-71.5 -29.5v-163l3 -182q0 -10 0.5 -13.5t3.5 -6.5t9 -4l88 -16q0 -40 -4 -51h-267q-4 30 -3 44l46 22q15 7 24.5 25t9.5 33l3 149v207h-101v50
q82 21 149 21q21 0 29 -8t8 -28v-30q99 72 200 72q44 0 75 -9.5t48.5 -24t27 -40t12 -49.5t2.5 -61v-221l5 -143q2 -99 -52.5 -160t-133.5 -61z" />
    <glyph glyph-name="Omacron" unicode="&#x14c;" horiz-adv-x="804" 
d="M756 380q0 -168 -98.5 -280t-263.5 -112q-164 0 -255 89.5t-91 251.5q0 169 101.5 279t263.5 110q167 0 255 -89.5t88 -248.5zM646 364q0 132 -59 208t-183 76q-66 0 -114.5 -23.5t-76.5 -66t-41.5 -95.5t-13.5 -117q0 -130 57 -208t182 -78q68 0 117.5 23.5t77.5 66.5
t41 95.5t13 118.5zM552 775h-298v69h298v-69z" />
    <glyph glyph-name="omacron" unicode="&#x14d;" horiz-adv-x="581" 
d="M446 687h-298v69h298v-69zM537 273q0 -112 -74 -196.5t-179 -84.5q-240 0 -240 275q0 113 74 201.5t175 88.5q244 0 244 -284zM439 279q0 43 -6 76.5t-21.5 66t-48 50.5t-81.5 18q-142 0 -142 -224q0 -96 34.5 -148t125.5 -52q43 0 72 17t43 49.5t19 66.5t5 80z" />
    <glyph glyph-name="Obreve" unicode="&#x14e;" horiz-adv-x="804" 
d="M410 752q-48 0 -88 19t-55.5 34.5t-21.5 26.5l51 49q43 -59 118 -59q31 0 59 12.5t40 23.5t19 20l37 -38q-4 -7 -14 -19t-29 -29t-50 -28.5t-66 -11.5zM756 380q0 -168 -98.5 -280t-263.5 -112q-164 0 -255 89.5t-91 251.5q0 169 101.5 279t263.5 110q167 0 255 -89.5
t88 -248.5zM646 364q0 132 -59 208t-183 76q-66 0 -114.5 -23.5t-76.5 -66t-41.5 -95.5t-13.5 -117q0 -130 57 -208t182 -78q68 0 117.5 23.5t77.5 66.5t41 95.5t13 118.5z" />
    <glyph glyph-name="obreve" unicode="&#x14f;" horiz-adv-x="581" 
d="M417 790l37 -38q-4 -7 -14 -19t-29 -29t-50 -28.5t-66 -11.5q-48 0 -88 19t-55.5 34.5t-21.5 26.5l51 49q43 -59 118 -59q31 0 59 12.5t40 23.5t19 20zM537 273q0 -112 -74 -196.5t-179 -84.5q-240 0 -240 275q0 113 74 201.5t175 88.5q244 0 244 -284zM439 279
q0 43 -6 76.5t-21.5 66t-48 50.5t-81.5 18q-142 0 -142 -224q0 -96 34.5 -148t125.5 -52q43 0 72 17t43 49.5t19 66.5t5 80z" />
    <glyph glyph-name="Ohungarumlaut" unicode="&#x150;" horiz-adv-x="804" 
d="M249 728l-25 46q111 61 189 143l54 -59q-48 -46 -96.5 -73.5t-121.5 -56.5zM467 750l-15 49q83 22 114 35t104 53l35 -71q-77 -50 -238 -66zM756 380q0 -168 -98.5 -280t-263.5 -112q-164 0 -255 89.5t-91 251.5q0 169 101.5 279t263.5 110q167 0 255 -89.5t88 -248.5z
M646 364q0 132 -59 208t-183 76q-66 0 -114.5 -23.5t-76.5 -66t-41.5 -95.5t-13.5 -117q0 -130 57 -208t182 -78q68 0 117.5 23.5t77.5 66.5t41 95.5t13 118.5z" />
    <glyph glyph-name="ohungarumlaut" unicode="&#x151;" horiz-adv-x="581" 
d="M174 595l-38 34q98 129 143 206l65 -52q-57 -86 -170 -188zM401 588l-45 35q91 131 130 213l73 -48q-66 -101 -158 -200zM537 273q0 -112 -74 -196.5t-179 -84.5q-240 0 -240 275q0 113 74 201.5t175 88.5q244 0 244 -284zM439 279q0 43 -6 76.5t-21.5 66t-48 50.5
t-81.5 18q-142 0 -142 -224q0 -96 34.5 -148t125.5 -52q43 0 72 17t43 49.5t19 66.5t5 80z" />
    <glyph glyph-name="OE" unicode="&#x152;" horiz-adv-x="1011" 
d="M973 165l-19 -165h-460q-46 -12 -100 -12q-162 0 -254 98.5t-92 262.5q0 167 100.5 268t264.5 101q51 0 100 -11h418v-160q-3 -1 -51 -1q-9 47 -26.5 68t-53.5 22l-192 6v-254l271 5v-76l-271 5v-49l5 -207l188 3q50 1 82 31.5t46 71.5zM517 274v328q0 14 -6 26
q-46 20 -107 20q-128 0 -187 -79t-59 -213q0 -63 13 -114.5t40 -93t74.5 -65t111.5 -23.5q58 0 87.5 13.5t30.5 51.5z" />
    <glyph glyph-name="oe" unicode="&#x153;" horiz-adv-x="940" 
d="M896 267h-361q3 -65 18 -106.5t44 -61t59 -25.5t77 -6q70 0 136 17l16 -54q-26 -17 -76 -28.5t-100 -11.5q-92 0 -149 22.5t-86 80.5q-73 -101 -190 -101q-240 0 -240 274q0 113 74 200t175 87q148 0 204 -103q70 108 194 108q205 0 205 -264v-28zM794 324q0 88 -25 132
t-86 44q-58 0 -99.5 -46.5t-48.5 -129.5h259zM443 279q0 208 -161 208q-146 0 -146 -221q0 -95 36.5 -147.5t127.5 -52.5q43 0 73 17.5t44.5 49.5t20 66.5t5.5 79.5z" />
    <glyph glyph-name="Racute" unicode="&#x154;" horiz-adv-x="739" 
d="M255 740l-15 46q114 40 223 108l38 -75q-88 -46 -246 -79zM752 42l-11 -54q-7 0 -29 2q-137 17 -205 90q-53 56 -146 223q-15 -3 -52 -3h-75l4 -202q0 -24 17 -27l81 -19q0 -41 -4 -52h-276q-4 30 -3 44l48 18q39 15 40 63l3 148v340q0 20 -23 29l-75 26q-2 20 5 39h302
q242 0 242 -195q0 -64 -34.5 -116.5t-95.5 -71.5q78 -127 128 -178q48 -48 82 -70t77 -34zM492 507q0 133 -164 133l-94 2v-276h93q165 0 165 141z" />
    <glyph glyph-name="racute" unicode="&#x155;" horiz-adv-x="445" 
d="M366 828l61 -61q-95 -81 -211 -149l-29 43q101 76 179 167zM440 548l-16 -92q-29 11 -64 11q-105 0 -142 -43v-150l4 -181q0 -24 15 -26l104 -16q0 -40 -4 -51h-286q-5 27 -4 44l47 24q33 18 35 75l2 131v207h-101v51q95 21 149 21q21 0 29.5 -8t8.5 -28v-44
q20 34 64 58.5t93 24.5q42 0 66 -8z" />
    <glyph glyph-name="Rcommaaccent" unicode="&#x156;" horiz-adv-x="739" 
d="M381 -68l86 -5q-16 -112 -65 -235l-50 13q30 112 29 227zM752 42l-11 -54q-7 0 -29 2q-137 17 -205 90q-53 56 -146 223q-15 -3 -52 -3h-75l4 -202q0 -24 17 -27l81 -19q0 -41 -4 -52h-276q-4 30 -3 44l48 18q39 15 40 63l3 148v340q0 20 -23 29l-75 26q-2 20 5 39h302
q242 0 242 -195q0 -64 -34.5 -116.5t-95.5 -71.5q78 -127 128 -178q48 -48 82 -70t77 -34zM492 507q0 133 -164 133l-94 2v-276h93q165 0 165 141z" />
    <glyph glyph-name="rcommaaccent" unicode="&#x157;" horiz-adv-x="445" 
d="M440 548l-16 -92q-29 11 -64 11q-105 0 -142 -43v-150l4 -181q0 -24 15 -26l104 -16q0 -40 -4 -51h-286q-5 27 -4 44l47 24q33 18 35 75l2 131v207h-101v51q95 21 149 21q21 0 29.5 -8t8.5 -28v-44q20 34 64 58.5t93 24.5q42 0 66 -8zM141 -68l86 -5q-16 -112 -65 -235
l-50 13q30 112 29 227z" />
    <glyph glyph-name="Rcaron" unicode="&#x158;" horiz-adv-x="739" 
d="M462 926l30 -38q-96 -65 -172 -151q-59 71 -160 142l38 47q75 -37 133 -84q73 53 131 84zM752 42l-11 -54q-7 0 -29 2q-137 17 -205 90q-53 56 -146 223q-15 -3 -52 -3h-75l4 -202q0 -24 17 -27l81 -19q0 -41 -4 -52h-276q-4 30 -3 44l48 18q39 15 40 63l3 148v340
q0 20 -23 29l-75 26q-2 20 5 39h302q242 0 242 -195q0 -64 -34.5 -116.5t-95.5 -71.5q78 -127 128 -178q48 -48 82 -70t77 -34zM492 507q0 133 -164 133l-94 2v-276h93q165 0 165 141z" />
    <glyph glyph-name="rcaron" unicode="&#x159;" horiz-adv-x="445" 
d="M440 548l-16 -92q-29 11 -64 11q-105 0 -142 -43v-150l4 -181q0 -24 15 -26l104 -16q0 -40 -4 -51h-286q-5 27 -4 44l47 24q33 18 35 75l2 131v207h-101v51q95 21 149 21q21 0 29.5 -8t8.5 -28v-44q20 34 64 58.5t93 24.5q42 0 66 -8zM426 788q-88 -74 -175 -172
q-88 106 -163 166l41 43q50 -30 133 -104q69 60 131 104z" />
    <glyph glyph-name="Sacute" unicode="&#x15a;" horiz-adv-x="577" 
d="M218 740l-15 46q114 40 223 108l38 -75q-88 -46 -246 -79zM528 191q0 -52 -23 -92t-62 -63.5t-85.5 -35t-98.5 -11.5q-117 0 -215 43l8 167h53q9 -71 56.5 -109t127.5 -38q64 0 103 31.5t39 94.5q0 26 -12 46t-36 35t-48.5 26t-60.5 25q-12 4 -19 7q-40 15 -68 30
t-57 38.5t-44 57t-15 74.5q0 89 69.5 144.5t163.5 55.5q134 0 201 -34v-157h-42q-11 55 -56 90.5t-101 35.5q-68 0 -107 -26.5t-39 -76.5q0 -46 37 -75t110 -58q35 -14 53.5 -22t49.5 -24t47.5 -31.5t35.5 -37.5t27 -49.5t8 -60.5z" />
    <glyph glyph-name="sacute" unicode="&#x15b;" horiz-adv-x="471" 
d="M348 828l61 -61q-95 -81 -211 -149l-29 43q101 76 179 167zM427 150q0 -45 -17.5 -77.5t-48.5 -49.5t-65.5 -25t-75.5 -8q-98 0 -175 36l8 156l47 -1q1 -55 35.5 -94t92.5 -39q116 0 116 77q0 32 -27.5 53t-99.5 50q-71 28 -113 67.5t-42 108.5q0 76 53.5 114.5
t138.5 38.5q90 0 160 -35l-17 -133l-37 4q-7 44 -42 73.5t-83 29.5q-44 0 -70.5 -20t-26.5 -49q0 -13 3 -23.5t11.5 -20t14 -15t21.5 -14t22 -11.5t27.5 -12t26.5 -11q37 -16 59.5 -28t50 -32.5t40.5 -47.5t13 -62z" />
    <glyph glyph-name="Scircumflex" unicode="&#x15c;" horiz-adv-x="577" 
d="M173 740l-30 38q96 65 172 151q59 -71 160 -142l-38 -47q-75 37 -133 84q-73 -53 -131 -84zM528 191q0 -52 -23 -92t-62 -63.5t-85.5 -35t-98.5 -11.5q-117 0 -215 43l8 167h53q9 -71 56.5 -109t127.5 -38q64 0 103 31.5t39 94.5q0 26 -12 46t-36 35t-48.5 26t-60.5 25
q-12 4 -19 7q-40 15 -68 30t-57 38.5t-44 57t-15 74.5q0 89 69.5 144.5t163.5 55.5q134 0 201 -34v-157h-42q-11 55 -56 90.5t-101 35.5q-68 0 -107 -26.5t-39 -76.5q0 -46 37 -75t110 -58q35 -14 53.5 -22t49.5 -24t47.5 -31.5t35.5 -37.5t27 -49.5t8 -60.5z" />
    <glyph glyph-name="scircumflex" unicode="&#x15d;" horiz-adv-x="471" 
d="M113 622l-33 37q88 74 175 172q88 -106 163 -166l-41 -43q-50 30 -133 104q-69 -60 -131 -104zM427 150q0 -45 -17.5 -77.5t-48.5 -49.5t-65.5 -25t-75.5 -8q-98 0 -175 36l8 156l47 -1q1 -55 35.5 -94t92.5 -39q116 0 116 77q0 32 -27.5 53t-99.5 50q-71 28 -113 67.5
t-42 108.5q0 76 53.5 114.5t138.5 38.5q90 0 160 -35l-17 -133l-37 4q-7 44 -42 73.5t-83 29.5q-44 0 -70.5 -20t-26.5 -49q0 -13 3 -23.5t11.5 -20t14 -15t21.5 -14t22 -11.5t27.5 -12t26.5 -11q37 -16 59.5 -28t50 -32.5t40.5 -47.5t13 -62z" />
    <glyph glyph-name="Scedilla" unicode="&#x15e;" horiz-adv-x="577" 
d="M412 -168q0 -45 -42.5 -82.5t-94.5 -37.5t-96 30l35 62q43 -28 91 -28q45 0 45 30q0 16 -10 27.5t-32 19.5t-41.5 12.5t-53.5 10.5l47 113h-1q-117 0 -215 43l8 167h53q9 -71 56.5 -109t127.5 -38q64 0 103 31.5t39 94.5q0 26 -12 46t-36 35t-48.5 26t-60.5 25
q-12 4 -19 7q-40 15 -68 30t-57 38.5t-44 57t-15 74.5q0 89 69.5 144.5t163.5 55.5q134 0 201 -34v-157h-42q-11 55 -56 90.5t-101 35.5q-68 0 -107 -26.5t-39 -76.5q0 -46 37 -75t110 -58q35 -14 53.5 -22t49.5 -24t47.5 -31.5t35.5 -37.5t27 -49.5t8 -60.5
q0 -85 -57.5 -134.5t-146.5 -62.5l-35 -64q65 -14 94 -35.5t29 -62.5z" />
    <glyph glyph-name="scedilla" unicode="&#x15f;" horiz-adv-x="471" 
d="M427 150q0 -75 -46 -112.5t-118 -45.5l-34 -62q65 -14 94 -35.5t29 -62.5q0 -45 -42.5 -82.5t-94.5 -37.5t-96 30l35 62q43 -28 91 -28q45 0 45 30q0 16 -10 27.5t-32 19.5t-41.5 12.5t-53.5 10.5l48 114q-91 4 -156 36l8 156l47 -1q1 -55 35.5 -94t92.5 -39
q116 0 116 77q0 32 -27.5 53t-99.5 50q-71 28 -113 67.5t-42 108.5q0 76 53.5 114.5t138.5 38.5q90 0 160 -35l-17 -133l-37 4q-7 44 -42 73.5t-83 29.5q-44 0 -70.5 -20t-26.5 -49q0 -13 3 -23.5t11.5 -20t14 -15t21.5 -14t22 -11.5t27.5 -12t26.5 -11q37 -16 59.5 -28
t50 -32.5t40.5 -47.5t13 -62z" />
    <glyph glyph-name="Scaron" unicode="&#x160;" horiz-adv-x="577" 
d="M443 926l30 -38q-96 -65 -172 -151q-59 71 -160 142l38 47q75 -37 133 -84q73 53 131 84zM528 191q0 -52 -23 -92t-62 -63.5t-85.5 -35t-98.5 -11.5q-117 0 -215 43l8 167h53q9 -71 56.5 -109t127.5 -38q64 0 103 31.5t39 94.5q0 26 -12 46t-36 35t-48.5 26t-60.5 25
q-12 4 -19 7q-40 15 -68 30t-57 38.5t-44 57t-15 74.5q0 89 69.5 144.5t163.5 55.5q134 0 201 -34v-157h-42q-11 55 -56 90.5t-101 35.5q-68 0 -107 -26.5t-39 -76.5q0 -46 37 -75t110 -58q35 -14 53.5 -22t49.5 -24t47.5 -31.5t35.5 -37.5t27 -49.5t8 -60.5z" />
    <glyph glyph-name="scaron" unicode="&#x161;" horiz-adv-x="471" 
d="M427 150q0 -45 -17.5 -77.5t-48.5 -49.5t-65.5 -25t-75.5 -8q-98 0 -175 36l8 156l47 -1q1 -55 35.5 -94t92.5 -39q116 0 116 77q0 32 -27.5 53t-99.5 50q-71 28 -113 67.5t-42 108.5q0 76 53.5 114.5t138.5 38.5q90 0 160 -35l-17 -133l-37 4q-7 44 -42 73.5t-83 29.5
q-44 0 -70.5 -20t-26.5 -49q0 -13 3 -23.5t11.5 -20t14 -15t21.5 -14t22 -11.5t27.5 -12t26.5 -11q37 -16 59.5 -28t50 -32.5t40.5 -47.5t13 -62zM408 788q-88 -74 -175 -172q-88 106 -163 166l41 43q50 -30 133 -104q69 60 131 104z" />
    <glyph glyph-name="Tcommaaccent" unicode="&#x162;" horiz-adv-x="664" 
d="M644 707v-165q-15 -5 -45 -3q-19 100 -94 100h-128v-366l5 -170q0 -19 3.5 -26t17.5 -10l95 -18q0 -34 -4 -49h-322q-6 28 -4 49l74 19q16 4 28 25.5t13 43.5l3 136v366h-137q-64 0 -83 -100q-23 -4 -46 3v165h624zM291 -68l86 -5q-16 -112 -65 -235l-50 13
q30 112 29 227z" />
    <glyph glyph-name="tcommaaccent" unicode="&#x163;" horiz-adv-x="421" 
d="M387 74l16 -66q-47 -19 -118 -19q-101 0 -141 34t-39 126l3 331h-80v36l156 142h14v-112h183v-66h-183v-208l3 -122q1 -53 24 -72.5t76 -19.5q44 0 86 16zM214 -68l86 -5q-16 -112 -65 -235l-50 13q30 112 29 227z" />
    <glyph glyph-name="Tcaron" unicode="&#x164;" horiz-adv-x="664" 
d="M472 926l30 -38q-96 -65 -172 -151q-59 71 -160 142l38 47q75 -37 133 -84q73 53 131 84zM644 707v-165q-15 -5 -45 -3q-19 100 -94 100h-128v-366l5 -170q0 -19 3.5 -26t17.5 -10l95 -18q0 -34 -4 -49h-322q-6 28 -4 49l74 19q16 4 28 25.5t13 43.5l3 136v366h-137
q-64 0 -83 -100q-23 -4 -46 3v165h624z" />
    <glyph glyph-name="tcaron" unicode="&#x165;" horiz-adv-x="421" 
d="M387 74l16 -66q-47 -19 -118 -19q-101 0 -141 34t-39 126l3 331h-80v36l156 142h14v-112h183v-66h-183v-208l3 -122q1 -53 24 -72.5t76 -19.5q44 0 86 16zM295 841l86 -5q-16 -112 -65 -235l-50 13q30 112 29 227z" />
    <glyph glyph-name="Tbar" unicode="&#x166;" horiz-adv-x="664" 
d="M644 707v-165q-15 -5 -45 -3q-19 100 -94 100h-128v-251h153v-66h-153v-49l5 -170q0 -19 3.5 -26t17.5 -10l95 -18q0 -34 -4 -49h-322q-6 28 -4 49l74 19q16 4 28 25.5t13 43.5l3 136v49h-144v66h144v251h-137q-64 0 -83 -100q-23 -4 -46 3v165h624z" />
    <glyph glyph-name="tbar" unicode="&#x167;" horiz-adv-x="422" 
d="M306 -11q-47 0 -75 2.5t-55 11.5t-40.5 26.5t-21.5 46.5t-8 73l1 123h-68v62h68l2 146h-80v36l156 142h14v-112h183v-66h-183v-146h147v-62h-147l3 -122q1 -60 19.5 -74.5t83.5 -14.5q45 0 85 9l12 -64q-48 -17 -96 -17z" />
    <glyph glyph-name="Utilde" unicode="&#x168;" horiz-adv-x="784" 
d="M483 757q-21 0 -86.5 21.5t-80.5 21.5q-45 0 -78 -26l-27 33l9 10q9 10 12.5 12.5t13 11.5t16.5 12.5l18 9t22.5 7.5t24.5 2q27 0 96 -22t80 -22q19 0 36 5t25 11l8 5l27 -33l-7.5 -7.5t-9 -8.5t-9.5 -8t-11.5 -9l-12 -8t-14.5 -7.5t-15.5 -5.5t-17.5 -4t-19 -1zM754 664
l-50 -16q-9 -3 -13.5 -6t-9 -11.5t-4.5 -22.5v-341q0 -75 -25.5 -131.5t-67.5 -87.5t-89 -46t-97 -15q-44 0 -82 6.5t-75.5 24t-63.5 45t-42.5 73t-16.5 104.5v353q0 17 -8 32.5t-21 19.5l-63 21q0 26 4 41h269q4 -20 2 -46l-57 -12q-26 -5 -26 -32v-370q0 -99 54.5 -145
t130.5 -46q184 0 184 215v314q0 26 -12 42.5t-44 25.5l-43 13q0 37 1 41h262q3 -15 3 -43z" />
    <glyph glyph-name="utilde" unicode="&#x169;" horiz-adv-x="665" 
d="M505 719l-7.5 -7.5t-9 -8.5t-9.5 -8t-11.5 -9l-12 -8t-14.5 -7.5t-15.5 -5.5t-17.5 -4t-19 -1q-21 0 -76.5 21.5t-70.5 21.5q-50 0 -78 -26l-27 33l9 10q9 10 12.5 12.5t13 11.5t16.5 12.5l18 9t22.5 7.5t24.5 2q27 0 86 -22t70 -22q19 0 36 5.5t25 10.5l8 5zM653 75
l7 -40q-75 -41 -135 -41q-68 0 -73 76q-28 -26 -47 -40t-56 -28t-79 -14q-52 0 -85 11.5t-49 36t-21 50.5t-5 66v328h-90v49q88 22 141 22q21 0 29.5 -8t8.5 -28v-241l3 -94q1 -28 3.5 -46t11 -36.5t26.5 -27.5t46 -9q64 0 159 75l4 136v208h-101v48q89 23 149 23
q21 0 30 -8t9 -28v-242l3 -198h111z" />
    <glyph glyph-name="Umacron" unicode="&#x16a;" horiz-adv-x="784" 
d="M754 664l-50 -16q-9 -3 -13.5 -6t-9 -11.5t-4.5 -22.5v-341q0 -75 -25.5 -131.5t-67.5 -87.5t-89 -46t-97 -15q-44 0 -82 6.5t-75.5 24t-63.5 45t-42.5 73t-16.5 104.5v353q0 17 -8 32.5t-21 19.5l-63 21q0 26 4 41h269q4 -20 2 -46l-57 -12q-26 -5 -26 -32v-370
q0 -99 54.5 -145t130.5 -46q184 0 184 215v314q0 26 -12 42.5t-44 25.5l-43 13q0 37 1 41h262q3 -15 3 -43zM547 775h-298v69h298v-69z" />
    <glyph glyph-name="umacron" unicode="&#x16b;" horiz-adv-x="665" 
d="M466 687h-298v69h298v-69zM653 75l7 -40q-75 -41 -135 -41q-68 0 -73 76q-28 -26 -47 -40t-56 -28t-79 -14q-52 0 -85 11.5t-49 36t-21 50.5t-5 66v328h-90v49q88 22 141 22q21 0 29.5 -8t8.5 -28v-241l3 -94q1 -28 3.5 -46t11 -36.5t26.5 -27.5t46 -9q64 0 159 75l4 136
v208h-101v48q89 23 149 23q21 0 30 -8t9 -28v-242l3 -198h111z" />
    <glyph glyph-name="Ubreve" unicode="&#x16c;" horiz-adv-x="784" 
d="M396 752q-48 0 -88 19t-55.5 34.5t-21.5 26.5l51 49q43 -59 118 -59q31 0 59 12.5t40 23.5t19 20l37 -38q-4 -7 -14 -19t-29 -29t-50 -28.5t-66 -11.5zM754 664l-50 -16q-9 -3 -13.5 -6t-9 -11.5t-4.5 -22.5v-341q0 -75 -25.5 -131.5t-67.5 -87.5t-89 -46t-97 -15
q-44 0 -82 6.5t-75.5 24t-63.5 45t-42.5 73t-16.5 104.5v353q0 17 -8 32.5t-21 19.5l-63 21q0 26 4 41h269q4 -20 2 -46l-57 -12q-26 -5 -26 -32v-370q0 -99 54.5 -145t130.5 -46q184 0 184 215v314q0 26 -12 42.5t-44 25.5l-43 13q0 37 1 41h262q3 -15 3 -43z" />
    <glyph glyph-name="ubreve" unicode="&#x16d;" horiz-adv-x="665" 
d="M440 790l37 -38q-4 -7 -14 -19t-29 -29t-50 -28.5t-66 -11.5q-48 0 -88 19t-55.5 34.5t-21.5 26.5l51 49q43 -59 118 -59q31 0 59 12.5t40 23.5t19 20zM653 75l7 -40q-75 -41 -135 -41q-68 0 -73 76q-28 -26 -47 -40t-56 -28t-79 -14q-52 0 -85 11.5t-49 36t-21 50.5
t-5 66v328h-90v49q88 22 141 22q21 0 29.5 -8t8.5 -28v-241l3 -94q1 -28 3.5 -46t11 -36.5t26.5 -27.5t46 -9q64 0 159 75l4 136v208h-101v48q89 23 149 23q21 0 30 -8t9 -28v-242l3 -198h111z" />
    <glyph glyph-name="Uring" unicode="&#x16e;" horiz-adv-x="784" 
d="M754 664l-50 -16q-9 -3 -13.5 -6t-9 -11.5t-4.5 -22.5v-341q0 -75 -25.5 -131.5t-67.5 -87.5t-89 -46t-97 -15q-44 0 -82 6.5t-75.5 24t-63.5 45t-42.5 73t-16.5 104.5v353q0 17 -8 32.5t-21 19.5l-63 21q0 26 4 41h269q4 -20 2 -46l-57 -12q-26 -5 -26 -32v-370
q0 -99 54.5 -145t130.5 -46q184 0 184 215v314q0 26 -12 42.5t-44 25.5l-43 13q0 37 1 41h262q3 -15 3 -43zM523 847q0 -46 -37 -73t-79 -27q-15 0 -31 3t-39 12t-37.5 31t-14.5 55q0 51 35 78t83 27q47 0 83.5 -24.5t36.5 -81.5zM461 849q0 26 -17 42.5t-41 16.5
q-56 0 -56 -57q0 -26 16.5 -43t41.5 -17q27 0 41.5 15.5t14.5 42.5z" />
    <glyph glyph-name="uring" unicode="&#x16f;" horiz-adv-x="665" 
d="M653 75l7 -40q-75 -41 -135 -41q-68 0 -73 76q-28 -26 -47 -40t-56 -28t-79 -14q-52 0 -85 11.5t-49 36t-21 50.5t-5 66v328h-90v49q88 22 141 22q21 0 29.5 -8t8.5 -28v-241l3 -94q1 -28 3.5 -46t11 -36.5t26.5 -27.5t46 -9q64 0 159 75l4 136v208h-101v48q89 23 149 23
q21 0 30 -8t9 -28v-242l3 -198h111zM444 731q0 -46 -37 -73t-79 -27q-15 0 -31 3t-39 12t-37.5 31t-14.5 55q0 51 35 78t83 27q47 0 83.5 -24.5t36.5 -81.5zM382 733q0 26 -17 42.5t-41 16.5q-56 0 -56 -57q0 -26 16.5 -43t41.5 -17q27 0 41.5 15.5t14.5 42.5z" />
    <glyph glyph-name="Uhungarumlaut" unicode="&#x170;" horiz-adv-x="784" 
d="M244 728l-25 46q111 61 189 143l54 -59q-48 -46 -96.5 -73.5t-121.5 -56.5zM462 750l-15 49q83 22 114 35t104 53l35 -71q-77 -50 -238 -66zM754 664l-50 -16q-9 -3 -13.5 -6t-9 -11.5t-4.5 -22.5v-341q0 -75 -25.5 -131.5t-67.5 -87.5t-89 -46t-97 -15q-44 0 -82 6.5
t-75.5 24t-63.5 45t-42.5 73t-16.5 104.5v353q0 17 -8 32.5t-21 19.5l-63 21q0 26 4 41h269q4 -20 2 -46l-57 -12q-26 -5 -26 -32v-370q0 -99 54.5 -145t130.5 -46q184 0 184 215v314q0 26 -12 42.5t-44 25.5l-43 13q0 37 1 41h262q3 -15 3 -43z" />
    <glyph glyph-name="uhungarumlaut" unicode="&#x171;" horiz-adv-x="665" 
d="M184 595l-38 34q98 129 143 206l65 -52q-57 -86 -170 -188zM411 588l-45 35q91 131 130 213l73 -48q-66 -101 -158 -200zM653 75l7 -40q-75 -41 -135 -41q-68 0 -73 76q-28 -26 -47 -40t-56 -28t-79 -14q-52 0 -85 11.5t-49 36t-21 50.5t-5 66v328h-90v49q88 22 141 22
q21 0 29.5 -8t8.5 -28v-241l3 -94q1 -28 3.5 -46t11 -36.5t26.5 -27.5t46 -9q64 0 159 75l4 136v208h-101v48q89 23 149 23q21 0 30 -8t9 -28v-242l3 -198h111z" />
    <glyph glyph-name="Uogonek" unicode="&#x172;" horiz-adv-x="785" 
d="M446 -259q-60 0 -90.5 28.5t-30.5 75.5q0 75 82 147q-289 0 -289 248v353q0 17 -8 32.5t-21 19.5l-63 21q0 26 4 41h269q4 -20 2 -46l-57 -12q-26 -5 -26 -32v-370q0 -99 54.5 -145t130.5 -46q184 0 184 215v314q0 52 -56 68l-43 13q0 37 1 41h262q3 -15 3 -43l-50 -16
q-9 -3 -13.5 -6t-9 -11.5t-4.5 -22.5v-341q0 -46 -10 -84.5t-23 -62.5t-37.5 -47.5t-41 -35.5t-45.5 -29q-30 -18 -43 -27t-33 -26.5t-27.5 -37.5t-7.5 -45q1 -32 19 -50t44 -18q36 0 66 17l18 -55q-44 -25 -110 -25z" />
    <glyph glyph-name="uogonek" unicode="&#x173;" horiz-adv-x="665" 
d="M632 -179l18 -55q-44 -25 -110 -25q-60 0 -90.5 28.5t-30.5 75.5q0 81 84 152q-47 11 -51 73q-4 -3 -25 -19.5t-32 -23.5t-32.5 -18t-44 -16t-48.5 -5q-52 0 -85 11.5t-49 36t-21 50.5t-5 66v328h-90v49q88 22 141 22q21 0 29.5 -8t8.5 -28v-241l3 -94q1 -28 3.5 -46
t11 -36.5t26.5 -27.5t46 -9q36 0 82 25.5t77 49.5l4 136v208h-101v48q89 23 149 23q21 0 30 -8t9 -28v-242l3 -198h111l7 -40q-64 -24 -111.5 -67t-45.5 -96q1 -32 19 -50t44 -18q36 0 66 17z" />
    <glyph glyph-name="Wcircumflex" unicode="&#x174;" horiz-adv-x="1063" 
d="M415 740l-30 38q96 65 172 151q59 -71 160 -142l-38 -47q-75 37 -133 84q-73 -53 -131 -84zM835 707h236q4 -29 3 -39l-39 -18q-34 -15 -52 -69l-198 -581l-70 -12l-170 448l-207 -436l-65 -12l-191 608q-10 35 -28 44l-56 30q0 22 4 37h256q5 -23 4 -40l-51 -18
q-28 -9 -24 -52q2 -14 4 -19l132 -463l190 404l-29 93q-6 19 -22 28l-56 30q0 26 3 37h259q6 -18 4 -40l-51 -18q-25 -9 -25 -43q0 -15 4 -27l156 -466l145 463q4 12 4 28q0 29 -17 37l-58 27q0 25 5 39z" />
    <glyph glyph-name="wcircumflex" unicode="&#x175;" horiz-adv-x="886" 
d="M596 -12l-153 420l-156 -408l-64 -11l-149 438q-19 58 -62 71q0 34 6 48h224q0 -25 -6 -52h-82l114 -371l150 412l68 20l157 -434l111 333q4 13 -3 25t-19 18l-33 14v10q0 18 3 25h186q0 -27 -2 -34q-24 -11 -40.5 -28t-29.5 -54l-155 -431zM330 622l-33 37
q88 74 175 172q88 -106 163 -166l-41 -43q-50 30 -133 104q-69 -60 -131 -104z" />
    <glyph glyph-name="Ycircumflex" unicode="&#x176;" horiz-adv-x="646" 
d="M201 740l-30 38q96 65 172 151q59 -71 160 -142l-38 -47q-75 37 -133 84q-73 -53 -131 -84zM412 707h237q3 -19 3 -39q-55 -22 -78 -60l-205 -324l3 -162q0 -18 8 -33.5t21 -19.5l84 -23q0 -31 -4 -46h-309q-6 28 -4 50l70 18q37 9 37 57l3 159l-195 310
q-10 15 -21.5 27.5t-19 19t-20 16t-17.5 13.5q0 30 2 37h241q4 -20 4 -40l-51 -19q-15 -6 -15 -27q0 -19 13 -42l135 -229l144 235q8 11 6 24q-2 22 -19 32l-56 27q0 31 3 39z" />
    <glyph glyph-name="ycircumflex" unicode="&#x177;" horiz-adv-x="554" 
d="M158 622l-33 37q88 74 175 172q88 -106 163 -166l-41 -43q-50 30 -133 104q-69 -60 -131 -104zM551 546q0 -35 -4 -47q-28 -10 -40 -25q-13 -15 -25 -47l-200 -507q-44 -108 -119 -156l-55 71q54 34 91 88q26 38 39 80l-171 440q-18 42 -65 58q0 35 4 45h221
q0 -36 -4 -52h-77l146 -387l120 314q9 21 1.5 43t-29.5 30l-21 8q-1 6 -1 13q0 17 2 31h187z" />
    <glyph glyph-name="Ydieresis" unicode="&#x178;" horiz-adv-x="646" 
d="M222 741q-10 0 -36 26.5t-26 35.5q0 10 26.5 36t35.5 26q10 0 36.5 -26t26.5 -36q0 -8 -26 -35t-37 -27zM450 741q-10 0 -36 26.5t-26 35.5q0 10 26.5 36t35.5 26q10 0 36.5 -26t26.5 -36q0 -8 -26 -35t-37 -27zM412 707h237q3 -19 3 -39q-55 -22 -78 -60l-205 -324
l3 -162q0 -18 8 -33.5t21 -19.5l84 -23q0 -31 -4 -46h-309q-6 28 -4 50l70 18q37 9 37 57l3 159l-195 310q-10 15 -21.5 27.5t-19 19t-20 16t-17.5 13.5q0 30 2 37h241q4 -20 4 -40l-51 -19q-15 -6 -15 -27q0 -19 13 -42l135 -229l144 235q8 11 6 24q-2 22 -19 32l-56 27
q0 31 3 39z" />
    <glyph glyph-name="Zacute" unicode="&#x179;" horiz-adv-x="618" 
d="M230 740l-15 46q114 40 223 108l38 -75q-88 -46 -246 -79zM582 170l-19 -170h-513l-17 57l398 586l-240 -4q-66 -10 -83 -99q-11 -2 -24 0q-21 3 -22 3v164h488l12 -44l-404 -591l253 4q50 1 82 31t44 70z" />
    <glyph glyph-name="zacute" unicode="&#x17a;" horiz-adv-x="536" 
d="M365 828l61 -61q-95 -81 -211 -149l-29 43q101 76 179 167zM503 165l-27 -165h-428l-12 35l330 436h-191q-49 0 -102 -68l-31 12l34 131h386l15 -40l-322 -432h189q60 0 121 102z" />
    <glyph glyph-name="Zdotaccent" unicode="&#x17b;" horiz-adv-x="618" 
d="M372 823q0 -9 -27.5 -37.5t-38.5 -28.5q-10 0 -37.5 28t-27.5 38q0 11 28 38t37 27q10 0 38 -27.5t28 -37.5zM582 170l-19 -170h-513l-17 57l398 586l-240 -4q-66 -10 -83 -99q-11 -2 -24 0q-21 3 -22 3v164h488l12 -44l-404 -591l253 4q50 1 82 31t44 70z" />
    <glyph glyph-name="zdotaccent" unicode="&#x17c;" horiz-adv-x="536" 
d="M333 721q0 -9 -28 -38t-39 -29q-10 0 -38 28.5t-28 38.5q0 11 28 38.5t38 27.5t38.5 -28t28.5 -38zM503 165l-27 -165h-428l-12 35l330 436h-191q-49 0 -102 -68l-31 12l34 131h386l15 -40l-322 -432h189q60 0 121 102z" />
    <glyph glyph-name="Zcaron" unicode="&#x17d;" horiz-adv-x="618" 
d="M459 926l30 -38q-96 -65 -172 -151q-59 71 -160 142l38 47q75 -37 133 -84q73 53 131 84zM582 170l-19 -170h-513l-17 57l398 586l-240 -4q-66 -10 -83 -99q-11 -2 -24 0q-21 3 -22 3v164h488l12 -44l-404 -591l253 4q50 1 82 31t44 70z" />
    <glyph glyph-name="zcaron" unicode="&#x17e;" horiz-adv-x="536" 
d="M441 788q-88 -74 -175 -172q-88 106 -163 166l41 43q50 -30 133 -104q69 60 131 104zM503 165l-27 -165h-428l-12 35l330 436h-191q-49 0 -102 -68l-31 12l34 131h386l15 -40l-322 -432h189q60 0 121 102z" />
    <glyph glyph-name="longs" unicode="&#x17f;" horiz-adv-x="335" 
d="M446 709q0 -45 -50 -70q-17 24 -43 44t-49 20q-51 0 -70 -28t-19 -86v-316l7 -178q0 -9 2 -12t9 -5l87 -26q0 -38 -5 -52h-277q-5 27 -4 44l57 24q14 6 23.5 23.5t9.5 36.5l3 145v207h-80v50l80 16v24q0 82 52.5 141.5t130.5 59.5q59 0 97.5 -17t38.5 -45z" />
    <glyph glyph-name="uni018E" unicode="&#x18e;" horiz-adv-x="643" 
d="M39 542l19 165h543q6 -28 4 -49l-68 -18q-39 -11 -39 -58l-3 -149v-328q0 -32 24 -40l75 -26v-17q-2 -16 -5 -22h-508v160q9 1 52 1q9 -47 26 -68t53 -22l192 -6v254l-271 -5v76l271 -5v49l-5 207l-187 -3q-50 -1 -82 -31.5t-46 -71.5z" />
    <glyph glyph-name="uni018F" unicode="&#x18f;" horiz-adv-x="731" 
d="M340 -12q-144 0 -225 89.5t-81 251.5v34h538q0 271 -242 271q-45 0 -103 -13t-93 -32l-34 61q109 68 243 68q172 0 255.5 -82t83.5 -256q0 -167 -95.5 -279.5t-246.5 -112.5zM343 60q106 0 160.5 67t65.5 180h-424q12 -247 198 -247z" />
    <glyph glyph-name="florin" unicode="&#x192;" horiz-adv-x="442" 
d="M449 554q0 -29 -35 -64q-50 44 -77 57q-40 -1 -60 -32.5t-24 -102.5l-4 -103h112v-52h-115l-7 -167q-2 -71 -56 -128t-113 -57q-33 0 -54.5 15.5t-21.5 48.5q0 13 6 31h129q18 35 20 93l6 164h-95v52h98l4 107q4 73 58.5 132.5t117.5 59.5q55 0 83 -12t28 -42z" />
    <glyph glyph-name="uni01C4" unicode="&#x1c4;" horiz-adv-x="1403" 
d="M736 371q0 -180 -106 -275.5t-288 -95.5h-300q-6 28 -4 48l68 18q39 10 39 68l2 140l1 332q0 29 -24 36l-74 24q-3 23 4 41h282q73 0 129.5 -8t109 -30t86.5 -59t54.5 -97t20.5 -142zM626 353q0 149 -73.5 218t-219.5 69h-94v-367l6 -207h108q141 0 207 67t66 220z
M1367 170l-19 -170h-513l-17 57l398 586l-240 -4q-66 -10 -83 -99q-11 -2 -24 0q-21 3 -22 3v164h488l12 -44l-404 -591l253 4q50 1 82 31t44 70zM1215 926l30 -38q-96 -65 -172 -151q-59 71 -160 142l38 47q75 -37 133 -84q73 53 131 84z" />
    <glyph glyph-name="uni01C5" unicode="&#x1c5;" horiz-adv-x="1309" 
d="M734 371q0 -180 -106 -275.5t-288 -95.5h-300q-6 28 -4 48l68 18q39 10 39 68l2 140l1 332q0 29 -24 36l-74 24q-3 23 4 41h282q73 0 129.5 -8t109 -30t86.5 -59t54.5 -97t20.5 -142zM624 353q0 149 -73.5 218t-219.5 69h-94v-367l6 -207h108q141 0 207 67t66 220z
M1276 165l-27 -165h-428l-12 35l330 436h-191q-49 0 -102 -68l-31 12l34 131h386l15 -40l-322 -432h189q60 0 121 102zM1212 788q-88 -74 -175 -172q-88 106 -163 166l41 43q50 -30 133 -104q69 60 131 104z" />
    <glyph glyph-name="uni01C6" unicode="&#x1c6;" horiz-adv-x="1149" 
d="M613 36q-25 -15 -68 -29t-80 -14q-52 0 -52 82q-68 -82 -157 -82q-41 0 -76 12.5t-66.5 40t-49.5 80t-18 125.5q0 135 74 217t183 82q61 0 111 -11v155h-102v47q92 23 149 23q21 0 30.5 -8t9.5 -28v-455l4 -198h101zM414 273v200q-73 14 -114 14q-48 0 -80.5 -18t-49 -52
t-23 -74t-6.5 -95q0 -94 37.5 -132t111.5 -38q58 0 120 41zM1116 165l-27 -165h-428l-12 35l330 436h-191q-49 0 -102 -68l-31 12l34 131h386l15 -40l-322 -432h189q60 0 121 102zM1058 788q-88 -74 -175 -172q-88 106 -163 166l41 43q50 -30 133 -104q69 60 131 104z" />
    <glyph glyph-name="uni01C7" unicode="&#x1c7;" horiz-adv-x="927" 
d="M570 165l-20 -165h-506q-6 28 -4 48l64 18q17 4 27 20.5t10 37.5l3 148v311q0 20 -7.5 38.5t-22.5 23.5l-63 21q0 26 4 41h262q5 -27 4 -44l-48 -12q-23 -5 -30.5 -11.5t-7.5 -27.5v-339l5 -204l164 4q86 3 121 99zM888 663l-48 -12q-23 -5 -30.5 -13.5t-7.5 -30.5v-520
q0 -103 -50 -162.5t-153 -111.5l-34 59q80 49 112.5 109.5t32.5 164.5v431q0 57 -48 74l-44 15q0 27 5 41h262q4 -30 3 -44z" />
    <glyph glyph-name="uni01C8" unicode="&#x1c8;" horiz-adv-x="893" 
d="M571 165l-20 -165h-506q-6 28 -4 48l64 18q17 4 27 20.5t10 37.5l3 148v311q0 20 -7.5 38.5t-22.5 23.5l-63 21q0 26 4 41h262q5 -27 4 -44l-48 -12q-23 -5 -30.5 -11.5t-7.5 -27.5v-339l5 -204l164 4q86 3 121 99zM630 -224q-39 0 -60 8l9 65q34 -8 63 -8q50 0 66 29.5
t16 97.5v512h-100v51q99 22 149 22q21 0 29.5 -8t8.5 -28v-245l5 -275q2 -99 -52.5 -160t-133.5 -61zM767 641q-11 0 -42.5 32t-31.5 43q0 12 31.5 43t42.5 31t43 -31.5t32 -42.5q0 -10 -31.5 -42.5t-43.5 -32.5z" />
    <glyph glyph-name="uni01C9" unicode="&#x1c9;" horiz-adv-x="635" 
d="M312 50q0 -36 -5 -50h-280q-4 30 -3 44l53 19q33 12 35 56l5 154v421h-101v48q88 22 149 22q39 0 39 -39v-452l5 -187q0 -12 2 -14.5t10 -4.5zM371 -224q-39 0 -60 8l9 65q34 -8 63 -8q50 0 66 29.5t16 97.5v512h-100v51q99 22 149 22q21 0 29.5 -8t8.5 -28v-245l5 -275
q2 -99 -52.5 -160t-133.5 -61zM508 641q-11 0 -42.5 32t-31.5 43q0 12 31.5 43t42.5 31t43 -31.5t32 -42.5q0 -10 -31.5 -42.5t-43.5 -32.5z" />
    <glyph glyph-name="uni01CA" unicode="&#x1ca;" horiz-adv-x="1173" 
d="M802 668l-59 -17q-19 -5 -30 -24t-11 -45v-582l-73 -12l-417 602h-7l9 -80v-237l3 -160q0 -19 4 -25.5t20 -12.5l85 -29q0 -32 -5 -46h-281q-5 27 -4 44l58 18q46 14 48 84l2 127v321q0 40 -29 51l-61 21q0 34 2 41h202l377 -543h7l-10 105v312q0 50 -37 64l-63 21
q0 30 4 41h262q4 -30 4 -39zM1134 663l-48 -12q-23 -5 -30.5 -13.5t-7.5 -30.5v-520q0 -103 -50 -162.5t-153 -111.5l-34 59q80 49 112.5 109.5t32.5 164.5v431q0 57 -48 74l-44 15q0 27 5 41h262q4 -30 3 -44z" />
    <glyph glyph-name="uni01CB" unicode="&#x1cb;" horiz-adv-x="1139" 
d="M802 668l-59 -17q-19 -5 -30 -24t-11 -45v-582l-73 -12l-417 602h-7l9 -80v-237l3 -160q0 -19 4 -25.5t20 -12.5l85 -29q0 -32 -5 -46h-281q-5 27 -4 44l58 18q46 14 48 84l2 127v321q0 40 -29 51l-61 21q0 34 2 41h202l377 -543h7l-10 105v312q0 50 -37 64l-63 21
q0 30 4 41h262q4 -30 4 -39zM875 -224q-39 0 -60 8l9 65q34 -8 63 -8q50 0 66 29.5t16 97.5v512h-100v51q99 22 149 22q21 0 29.5 -8t8.5 -28v-245l5 -275q2 -99 -52.5 -160t-133.5 -61zM1012 641q-11 0 -42.5 32t-31.5 43q0 12 31.5 43t42.5 31t43 -31.5t32 -42.5
q0 -10 -31.5 -42.5t-43.5 -32.5z" />
    <glyph glyph-name="uni01CC" unicode="&#x1cc;" horiz-adv-x="1014" 
d="M680 51q0 -40 -4 -51h-240q-4 32 -3 48l28 19q30 20 30 55l3 151v84q0 73 -20.5 98.5t-92.5 25.5q-43 0 -91.5 -15.5t-71.5 -29.5v-163l3 -182q0 -10 0.5 -13.5t3.5 -6.5t9 -4l88 -16q0 -40 -4 -51h-267q-4 30 -3 44l46 22q15 7 24.5 25t9.5 33l3 149v207h-101v50
q82 21 149 21q21 0 29 -8t8 -28v-30q99 72 200 72q44 0 75 -9.5t48.5 -24t27 -40t12 -49.5t2.5 -61v-100l4 -192q0 -9 2 -11t11 -4zM751 -224q-39 0 -60 8l9 65q34 -8 63 -8q50 0 66 29.5t16 97.5v512h-100v51q99 22 149 22q21 0 29.5 -8t8.5 -28v-245l5 -275
q2 -99 -52.5 -160t-133.5 -61zM888 641q-11 0 -42.5 32t-31.5 43q0 12 31.5 43t42.5 31t43 -31.5t32 -42.5q0 -10 -31.5 -42.5t-43.5 -32.5z" />
    <glyph glyph-name="uni01DD" unicode="&#x1dd;" horiz-adv-x="540" 
d="M43 281h362q-3 65 -18 106.5t-44 61t-59.5 25.5t-77.5 6q-69 0 -135 -17l-16 54q26 17 76 28.5t100 11.5q68 0 113.5 -11t81.5 -40.5t52.5 -83.5t16.5 -137q0 -126 -68.5 -210t-177.5 -84q-206 0 -206 262v28zM145 224q0 -88 25.5 -131t86.5 -43q58 0 99.5 46t47.5 128
h-259z" />
    <glyph glyph-name="uni01E2" unicode="&#x1e2;" horiz-adv-x="969" 
d="M930 165l-19 -165h-533q-4 32 -3 49l58 18q37 11 39 58l2 149v49h-192l-118 -205q-7 -12 -7 -23q1 -14 19 -19l97 -24q0 -38 -5 -52h-278q-5 27 -4 44l36 24q36 23 56 56l346 583h464v-160q-3 -1 -51 -1q-9 47 -26.5 68t-53.5 22l-192 6v-254l291 5v-76l-291 5v-49
l5 -207l188 3q50 1 82 31.5t46 71.5zM476 658l-156 -270h154v214q0 26 2 56zM782 775h-298v69h298v-69z" />
    <glyph glyph-name="uni01E3" unicode="&#x1e3;" horiz-adv-x="847" 
d="M555 687h-298v69h298v-69zM803 263l-361 -14q3 -105 53.5 -143t144.5 -38q69 0 135 17l16 -54q-26 -17 -76 -28.5t-100 -11.5q-90 0 -146.5 21.5t-85.5 77.5q-109 -98 -219 -98q-57 0 -94.5 33t-37.5 94q0 74 55 116t135 55q62 9 130 13v83q0 59 -31 80.5t-107 21.5
q-62 0 -131 -21l-16 58q81 33 174 33q30 0 50 -2t49.5 -8.5t51 -23.5t33.5 -43q68 78 172 78q206 0 206 -264v-32zM701 324q0 88 -25.5 132t-86.5 44q-60 0 -99 -47.5t-46 -144.5zM367 132q-14 45 -16 114q-77 -2 -123 -13q-103 -24 -103 -98q0 -26 17.5 -43t57.5 -17
q50 0 167 57z" />
    <glyph glyph-name="uni01EF" unicode="&#x1ef;" horiz-adv-x="491" 
d="M440 506l-208 -277q102 -7 163 -61t61 -141q0 -97 -84 -179.5t-180 -82.5q-101 0 -173 31l23 83q4 -2 18 -8t21.5 -9t21.5 -8.5t25 -8t25.5 -4.5t28.5 -2q74 0 123 42.5t49 108.5q0 67 -52 105t-139 45l-36 38l202 293h-191q-49 0 -102 -68l-31 12l34 131h386zM402 788
q-88 -74 -175 -172q-88 106 -163 166l41 43q50 -30 133 -104q69 60 131 104z" />
    <glyph glyph-name="uni01F1" unicode="&#x1f1;" horiz-adv-x="1403" 
d="M736 371q0 -180 -106 -275.5t-288 -95.5h-300q-6 28 -4 48l68 18q39 10 39 68l2 140l1 332q0 29 -24 36l-74 24q-3 23 4 41h282q73 0 129.5 -8t109 -30t86.5 -59t54.5 -97t20.5 -142zM626 353q0 149 -73.5 218t-219.5 69h-94v-367l6 -207h108q141 0 207 67t66 220z
M1367 170l-19 -170h-513l-17 57l398 586l-240 -4q-66 -10 -83 -99q-11 -2 -24 0q-21 3 -22 3v164h488l12 -44l-404 -591l253 4q50 1 82 31t44 70z" />
    <glyph glyph-name="uni01F2" unicode="&#x1f2;" horiz-adv-x="1337" 
d="M734 371q0 -180 -106 -275.5t-288 -95.5h-300q-6 28 -4 48l68 18q39 10 39 68l2 140l1 332q0 29 -24 36l-74 24q-3 23 4 41h282q73 0 129.5 -8t109 -30t86.5 -59t54.5 -97t20.5 -142zM624 353q0 149 -73.5 218t-219.5 69h-94v-367l6 -207h108q141 0 207 67t66 220z
M1304 165l-27 -165h-428l-12 35l330 436h-191q-49 0 -102 -68l-31 12l34 131h386l15 -40l-322 -432h189q60 0 121 102z" />
    <glyph glyph-name="uni01F3" unicode="&#x1f3;" horiz-adv-x="1149" 
d="M613 36q-25 -15 -68 -29t-80 -14q-52 0 -52 82q-68 -82 -157 -82q-41 0 -76 12.5t-66.5 40t-49.5 80t-18 125.5q0 135 74 217t183 82q61 0 111 -11v155h-102v47q92 23 149 23q21 0 30.5 -8t9.5 -28v-455l4 -198h101zM414 273v200q-73 14 -114 14q-48 0 -80.5 -18t-49 -52
t-23 -74t-6.5 -95q0 -94 37.5 -132t111.5 -38q58 0 120 41zM1116 165l-27 -165h-428l-12 35l330 436h-191q-49 0 -102 -68l-31 12l34 131h386l15 -40l-322 -432h189q60 0 121 102z" />
    <glyph glyph-name="AEacute" unicode="&#x1fc;" horiz-adv-x="969" 
d="M566 740l-15 46q114 40 223 108l38 -75q-88 -46 -246 -79zM930 165l-19 -165h-533q-4 32 -3 49l58 18q37 11 39 58l2 149v49h-192l-118 -205q-7 -12 -7 -23q1 -14 19 -19l97 -24q0 -38 -5 -52h-278q-5 27 -4 44l36 24q36 23 56 56l346 583h464v-160q-3 -1 -51 -1
q-9 47 -26.5 68t-53.5 22l-192 6v-254l291 5v-76l-291 5v-49l5 -207l188 3q50 1 82 31.5t46 71.5zM476 658l-156 -270h154v214q0 26 2 56z" />
    <glyph glyph-name="aeacute" unicode="&#x1fd;" horiz-adv-x="847" 
d="M535 828l61 -61q-95 -81 -211 -149l-29 43q101 76 179 167zM803 263l-361 -14q3 -105 53.5 -143t144.5 -38q69 0 135 17l16 -54q-26 -17 -76 -28.5t-100 -11.5q-90 0 -146.5 21.5t-85.5 77.5q-109 -98 -219 -98q-57 0 -94.5 33t-37.5 94q0 74 55 116t135 55q62 9 130 13
v83q0 59 -31 80.5t-107 21.5q-62 0 -131 -21l-16 58q81 33 174 33q30 0 50 -2t49.5 -8.5t51 -23.5t33.5 -43q68 78 172 78q206 0 206 -264v-32zM701 324q0 88 -25.5 132t-86.5 44q-60 0 -99 -47.5t-46 -144.5zM367 132q-14 45 -16 114q-77 -2 -123 -13q-103 -24 -103 -98
q0 -26 17.5 -43t57.5 -17q50 0 167 57z" />
    <glyph glyph-name="Oslashacute" unicode="&#x1fe;" horiz-adv-x="804" 
d="M768 709q-47 -55 -86 -96q74 -88 74 -233q0 -168 -98.5 -280t-263.5 -112q-153 0 -243 78l-90 -88l-36 34l92 90q-69 87 -69 227q0 169 101.5 279t263.5 110q147 0 234 -70q48 51 85 94zM646 364q0 103 -35 172q-163 -176 -392 -403q60 -73 178 -73q68 0 117.5 23.5
t77.5 66.5t41 95.5t13 118.5zM582 578q-62 70 -178 70q-66 0 -114.5 -23.5t-76.5 -66t-41.5 -95.5t-13.5 -117q0 -103 34 -171q224 224 390 403zM317 740l-15 46q114 40 223 108l38 -75q-88 -46 -246 -79z" />
    <glyph glyph-name="oslashacute" unicode="&#x1ff;" horiz-adv-x="580" 
d="M559 553l-69 -86q47 -68 47 -194q0 -112 -74 -196t-179 -84q-102 0 -161 50l-75 -79l-38 32l79 86q-45 67 -45 185q0 113 74 200t175 87q105 0 164 -50l65 81zM401 437q-40 50 -119 50q-142 0 -142 -221q0 -68 15 -110q137 151 246 281zM439 279q0 67 -14 110
q-125 -150 -242 -280q39 -42 117 -42q43 0 72 17t43 49.5t19 66t5 79.5zM375 828l61 -61q-95 -81 -211 -149l-29 43q101 76 179 167z" />
    <glyph glyph-name="Scommaaccent" unicode="&#x218;" horiz-adv-x="577" 
d="M253 -68l86 -5q-16 -112 -65 -235l-50 13q30 112 29 227zM528 191q0 -52 -23 -92t-62 -63.5t-85.5 -35t-98.5 -11.5q-117 0 -215 43l8 167h53q9 -71 56.5 -109t127.5 -38q64 0 103 31.5t39 94.5q0 26 -12 46t-36 35t-48.5 26t-60.5 25q-12 4 -19 7q-40 15 -68 30
t-57 38.5t-44 57t-15 74.5q0 89 69.5 144.5t163.5 55.5q134 0 201 -34v-157h-42q-11 55 -56 90.5t-101 35.5q-68 0 -107 -26.5t-39 -76.5q0 -46 37 -75t110 -58q35 -14 53.5 -22t49.5 -24t47.5 -31.5t35.5 -37.5t27 -49.5t8 -60.5z" />
    <glyph glyph-name="scommaaccent" unicode="&#x219;" horiz-adv-x="471" 
d="M427 150q0 -45 -17.5 -77.5t-48.5 -49.5t-65.5 -25t-75.5 -8q-98 0 -175 36l8 156l47 -1q1 -55 35.5 -94t92.5 -39q116 0 116 77q0 32 -27.5 53t-99.5 50q-71 28 -113 67.5t-42 108.5q0 76 53.5 114.5t138.5 38.5q90 0 160 -35l-17 -133l-37 4q-7 44 -42 73.5t-83 29.5
q-44 0 -70.5 -20t-26.5 -49q0 -13 3 -23.5t11.5 -20t14 -15t21.5 -14t22 -11.5t27.5 -12t26.5 -11q37 -16 59.5 -28t50 -32.5t40.5 -47.5t13 -62zM195 -68l86 -5q-16 -112 -65 -235l-50 13q30 112 29 227z" />
    <glyph glyph-name="uni021A" unicode="&#x21a;" horiz-adv-x="664" 
d="M291 -68l86 -5q-16 -112 -65 -235l-50 13q30 112 29 227zM644 707v-165q-15 -5 -45 -3q-19 100 -94 100h-128v-366l5 -170q0 -19 3.5 -26t17.5 -10l95 -18q0 -34 -4 -49h-322q-6 28 -4 49l74 19q16 4 28 25.5t13 43.5l3 136v366h-137q-64 0 -83 -100q-23 -4 -46 3v165
h624z" />
    <glyph glyph-name="uni021B" unicode="&#x21b;" horiz-adv-x="421" 
d="M387 74l16 -66q-47 -19 -118 -19q-101 0 -141 34t-39 126l3 331h-80v36l156 142h14v-112h183v-66h-183v-208l3 -122q1 -53 24 -72.5t76 -19.5q44 0 86 16zM214 -68l86 -5q-16 -112 -65 -235l-50 13q30 112 29 227z" />
    <glyph glyph-name="uni021D" unicode="&#x21d;" horiz-adv-x="491" 
d="M440 506l-208 -277q102 -7 163 -61t61 -141q0 -97 -84 -179.5t-180 -82.5q-101 0 -173 31l23 83q4 -2 18 -8t21.5 -9t21.5 -8.5t25 -8t25.5 -4.5t28.5 -2q74 0 123 42.5t49 108.5q0 67 -52 105t-139 45l-36 38l202 293h-191q-49 0 -102 -68l-31 12l34 131h386z" />
    <glyph glyph-name="uni0259" unicode="&#x259;" horiz-adv-x="540" 
d="M43 281h362q-3 65 -18 106.5t-44 61t-59.5 25.5t-77.5 6q-69 0 -135 -17l-16 54q26 17 76 28.5t100 11.5q68 0 113.5 -11t81.5 -40.5t52.5 -83.5t16.5 -137q0 -126 -68.5 -210t-177.5 -84q-206 0 -206 262v28zM145 224q0 -88 25.5 -131t86.5 -43q58 0 99.5 46t47.5 128
h-259z" />
    <glyph glyph-name="circumflex" unicode="&#x2c6;" horiz-adv-x="581" 
d="M154 622l-33 37q88 74 175 172q88 -106 163 -166l-41 -43q-50 30 -133 104q-69 -60 -131 -104z" />
    <glyph glyph-name="caron" unicode="&#x2c7;" horiz-adv-x="497" 
d="M417 788q-88 -74 -175 -172q-88 106 -163 166l41 43q50 -30 133 -104q69 60 131 104z" />
    <glyph glyph-name="breve" unicode="&#x2d8;" horiz-adv-x="815" 
d="M532 790l37 -38q-4 -7 -14 -19t-29 -29t-50 -28.5t-66 -11.5q-48 0 -88 19t-55.5 34.5t-21.5 26.5l51 49q43 -59 118 -59q31 0 59 12.5t40 23.5t19 20z" />
    <glyph glyph-name="dotaccent" unicode="&#x2d9;" horiz-adv-x="348" 
d="M238 721q0 -9 -28 -38t-39 -29q-10 0 -38 28.5t-28 38.5q0 11 28 38.5t38 27.5t38.5 -28t28.5 -38z" />
    <glyph glyph-name="ring" unicode="&#x2da;" horiz-adv-x="680" 
d="M429 731q0 -46 -37 -73t-79 -27q-15 0 -31 3t-39 12t-37.5 31t-14.5 55q0 51 35 78t83 27q47 0 83.5 -24.5t36.5 -81.5zM367 733q0 26 -17 42.5t-41 16.5q-56 0 -56 -57q0 -26 16.5 -43t41.5 -17q27 0 41.5 15.5t14.5 42.5z" />
    <glyph glyph-name="ogonek" unicode="&#x2db;" horiz-adv-x="565" 
d="M491 -179l18 -55q-44 -25 -110 -25q-60 0 -90.5 28.5t-30.5 75.5q0 70 57 125.5t129 88.5l47 -29q-64 -22 -106.5 -64.5t-42.5 -93.5q1 -32 19 -50t44 -18q36 0 66 17z" />
    <glyph glyph-name="tilde" unicode="&#x2dc;" horiz-adv-x="581" 
d="M474 719l-7.5 -7.5t-9 -8.5t-9.5 -8t-11.5 -9l-12 -8t-14.5 -7.5t-15.5 -5.5t-17.5 -4t-19 -1q-21 0 -76.5 21.5t-70.5 21.5q-50 0 -78 -26l-27 33l9 10q9 10 12.5 12.5t13 11.5t16.5 12.5l18 9t22.5 7.5t24.5 2q27 0 86 -22t70 -22q19 0 36 5.5t25 10.5l8 5z" />
    <glyph glyph-name="hungarumlaut" unicode="&#x2dd;" horiz-adv-x="680" 
d="M184 595l-38 34q98 129 143 206l65 -52q-57 -86 -170 -188zM411 588l-45 35q91 131 130 213l73 -48q-66 -101 -158 -200z" />
    <glyph glyph-name="gravecmb" unicode="&#x300;" horiz-adv-x="0" 
d="M-430 767l61 61q78 -91 179 -167l-29 -43q-116 68 -211 149z" />
    <glyph glyph-name="acutecmb" unicode="&#x301;" horiz-adv-x="0" 
d="M-151 828l61 -61q-95 -81 -211 -149l-29 43q101 76 179 167z" />
    <glyph glyph-name="uni0302" unicode="&#x302;" horiz-adv-x="0" 
d="M-403 622l-33 37q88 74 175 172q88 -106 163 -166l-41 -43q-50 30 -133 104q-69 -60 -131 -104z" />
    <glyph glyph-name="tildecmb" unicode="&#x303;" horiz-adv-x="0" 
d="M-84 719l-7.5 -7.5t-9 -8.5t-9.5 -8t-11.5 -9l-12 -8t-14.5 -7.5t-15.5 -5.5t-17.5 -4t-19 -1q-21 0 -76.5 21.5t-70.5 21.5q-50 0 -78 -26l-27 33l9 10q9 10 12.5 12.5t13 11.5t16.5 12.5l18 9t22.5 7.5t24.5 2q27 0 86 -22t70 -22q19 0 36 5.5t25 10.5l8 5z" />
    <glyph glyph-name="uni0304" unicode="&#x304;" horiz-adv-x="0" 
d="M-114 687h-298v69h298v-69z" />
    <glyph glyph-name="uni0306" unicode="&#x306;" horiz-adv-x="0" 
d="M-157 790l37 -38q-4 -7 -14 -19t-29 -29t-50 -28.5t-66 -11.5q-48 0 -88 19t-55.5 34.5t-21.5 26.5l51 49q43 -59 118 -59q31 0 59 12.5t40 23.5t19 20z" />
    <glyph glyph-name="uni0307" unicode="&#x307;" horiz-adv-x="0" 
d="M-211 721q0 -9 -28 -38t-39 -29q-10 0 -38 28.5t-28 38.5q0 11 28 38.5t38 27.5t38.5 -28t28.5 -38z" />
    <glyph glyph-name="uni0308" unicode="&#x308;" horiz-adv-x="0" 
d="M-398 655q-10 0 -36 26.5t-26 35.5q0 10 26.5 36t35.5 26q10 0 36.5 -26t26.5 -36q0 -8 -26 -35t-37 -27zM-160 655q-10 0 -36 26.5t-26 35.5q0 10 26.5 36t35.5 26q10 0 36.5 -26t26.5 -36q0 -8 -26 -35t-37 -27z" />
    <glyph glyph-name="hookcmb" unicode="&#x309;" horiz-adv-x="0" 
d="M-188 756q0 -78 -112 -150l-36 38q77 53 77 99q0 42 -37 42q-34 0 -65 -22v59q38 24 77 24t67.5 -23t28.5 -67z" />
    <glyph glyph-name="uni030A" unicode="&#x30a;" horiz-adv-x="0" 
d="M-162 731q0 -46 -37 -73t-79 -27q-15 0 -31 3t-38.5 12t-37 31t-14.5 55q0 51 34.5 78t83.5 27q47 0 83 -24.5t36 -81.5zM-224 733q0 26 -16.5 42.5t-40.5 16.5q-56 0 -56 -57q0 -26 16 -43t41 -17q27 0 41.5 15.5t14.5 42.5z" />
    <glyph glyph-name="uni030B" unicode="&#x30b;" horiz-adv-x="0" 
d="M-405 595l-38 34q98 129 143 206l65 -52q-57 -86 -170 -188zM-178 588l-45 35q91 131 130 213l73 -48q-66 -101 -158 -200z" />
    <glyph glyph-name="uni030C" unicode="&#x30c;" horiz-adv-x="0" 
d="M-103 788q-88 -74 -175 -172q-88 106 -163 166l41 43q50 -30 133 -104q69 60 131 104z" />
    <glyph glyph-name="uni0310" unicode="&#x310;" horiz-adv-x="0" 
d="M-156 790l37 -38q-4 -7 -14 -19t-29 -29t-50 -28.5t-66 -11.5q-48 0 -88 19t-55.5 34.5t-21.5 26.5l51 49q43 -59 118 -59q31 0 59 12.5t40 23.5t19 20zM-208 841q0 -9 -28 -38t-39 -29q-10 0 -38 28.5t-28 38.5q0 11 28 38.5t38 27.5t38.5 -28t28.5 -38z" />
    <glyph glyph-name="dotbelowcmb" unicode="&#x323;" horiz-adv-x="0" 
d="M-225 -154q0 -9 -28 -38t-39 -29q-10 0 -38 28.5t-28 38.5q0 11 28 38.5t38 27.5t38.5 -28t28.5 -38z" />
    <glyph glyph-name="uni0324" unicode="&#x324;" horiz-adv-x="0" 
d="M-401 -212q-10 0 -36 26.5t-26 35.5q0 10 26.5 36t35.5 26q10 0 36.5 -26t26.5 -36q0 -8 -26 -35t-37 -27zM-163 -212q-10 0 -36 26.5t-26 35.5q0 10 26.5 36t35.5 26q10 0 36.5 -26t26.5 -36q0 -8 -26 -35t-37 -27z" />
    <glyph glyph-name="uni0325" unicode="&#x325;" horiz-adv-x="0" 
d="M-170 -176q0 -46 -37 -73t-79 -27q-15 0 -31 3t-39 12t-37.5 31t-14.5 55q0 51 35 78t83 27q47 0 83.5 -24.5t36.5 -81.5zM-232 -174q0 26 -17 42.5t-41 16.5q-56 0 -56 -57q0 -26 16.5 -43t41.5 -17q27 0 41.5 15.5t14.5 42.5z" />
    <glyph glyph-name="uni0327" unicode="&#x327;" horiz-adv-x="0" 
d="M-180 -168q0 -45 -42.5 -82.5t-94.5 -37.5t-96 30l35 62q43 -28 91 -28q45 0 45 30q0 16 -10 27.5t-32 19.5t-41.5 12.5t-53.5 10.5l54 128h63l-41 -74q65 -14 94 -35.5t29 -62.5z" />
    <glyph glyph-name="uni0328" unicode="&#x328;" horiz-adv-x="0" 
d="M-197 -179l18 -55q-44 -25 -110 -25q-60 0 -90.5 28.5t-30.5 75.5q0 70 57 125.5t129 88.5l47 -29q-64 -22 -106.5 -64.5t-42.5 -93.5q1 -32 19 -50t44 -18q36 0 66 17z" />
    <glyph glyph-name="uni032E" unicode="&#x32e;" horiz-adv-x="0" 
d="M-160 -72l37 -38q-4 -7 -14 -19t-29 -29t-50 -28.5t-66 -11.5q-48 0 -88 19t-55.5 34.5t-21.5 26.5l51 49q43 -59 118 -59q31 0 59 12.5t40 23.5t19 20z" />
    <glyph glyph-name="uni0331" unicode="&#x331;" horiz-adv-x="0" 
d="M-133 -183h-298v69h298v-69z" />
    <glyph glyph-name="Sigma" unicode="&#x3a3;" horiz-adv-x="625" 
d="M576 190l-21 -190h-501l-17 57l217 309l-207 292l13 49h499v-160q-27 -7 -46 -3q-18 98 -83 99l-254 4l178 -254l-215 -303l284 4q26 0 45 8.5t31.5 27.5t18 31t14.5 36q28 0 44 -7z" />
    <glyph glyph-name="alpha" unicode="&#x3b1;" horiz-adv-x="663" 
d="M523 -13q-53 0 -62 48l-25 119q-98 -158 -213 -158q-76 0 -125 64.5t-49 199.5q0 133 66.5 214.5t159.5 81.5q89 0 132 -46.5t62 -125.5q10 30 27.5 85.5t24.5 76.5h107q-87 -193 -129 -278l46 -175q10 -39 33 -39q9 0 54 9l6 -39q-59 -37 -115 -37zM254 72
q41 0 85.5 49.5t78.5 125.5l-7 35q-21 99 -50.5 154t-84.5 55q-69 0 -102.5 -64t-33.5 -159q0 -33 5.5 -65t17.5 -62.5t35.5 -49.5t55.5 -19z" />
    <glyph glyph-name="beta" unicode="&#x3b2;" horiz-adv-x="594" 
d="M555 230q0 -90 -72.5 -166t-169.5 -76q-78 0 -141 20l6 -228h-98l4 495v260q0 102 62 168.5t167 66.5q88 0 142 -42t54 -124q0 -55 -35 -102.5t-85 -70.5q76 -18 121 -71t45 -130zM457 208q0 77 -53 121.5t-131 44.5l-10 55q73 22 111.5 60.5t38.5 105.5q0 51 -30.5 81.5
t-81.5 30.5q-63 0 -96 -34.5t-33 -98.5v-488q88 -24 134 -24q69 0 110 41t41 105z" />
    <glyph glyph-name="gamma" unicode="&#x3b3;" horiz-adv-x="546" 
d="M264 -230q-28 0 -47 8q-6 45 -6 86q0 64 15 113q-28 127 -39.5 177.5t-33 127t-40.5 118.5q-20 42 -38.5 61.5t-43.5 19.5q-12 0 -27 -5l-13 37q15 14 44.5 29t57.5 15q64 0 101 -90q35 -86 89 -374q82 162 115 244.5t33 130.5q0 39 -10 62q22 25 59 25q24 0 40 -17
t16 -40q0 -61 -111 -271.5t-123 -261.5q9 -89 9 -187q-16 -8 -47 -8z" />
    <glyph glyph-name="delta" unicode="&#x3b4;" horiz-adv-x="574" 
d="M536 270q0 -117 -76.5 -197t-185.5 -80q-111 0 -171 68.5t-60 181.5q0 86 48.5 153t125.5 98q-56 35 -84.5 66t-28.5 78q0 53 65 92.5t127 39.5q187 0 187 -94q0 -32 -46 -57q-23 40 -67.5 62.5t-92.5 22.5q-38 0 -65 -14t-27 -40q0 -20 26 -43t65 -44t84.5 -50.5
t84.5 -61.5t65 -79.5t26 -101.5zM438 253q0 32 -10.5 60.5t-25 48.5t-40 40.5t-45.5 33t-51 29.5q-127 -53 -127 -194q0 -95 35 -148.5t123 -53.5q71 0 106 48t35 136z" />
    <glyph glyph-name="pi" unicode="&#x3c0;" horiz-adv-x="651" 
d="M508 -6q-44 0 -64 32t-19 83l3 161v202q-83 -2 -232 -8v-191l4 -273h-87l5 273v188l-104 -5l-2 10l51 80h534l-3 -70q-13 0 -87 -2v-201l4 -136q1 -41 13.5 -58t39.5 -17q29 0 57 7l8 -41q-57 -34 -121 -34z" />
    <glyph glyph-name="phi" unicode="&#x3c6;" horiz-adv-x="739" 
d="M318 -220l3 213q-132 4 -212 75t-80 199q0 107 92.5 193.5t209.5 92.5l2 154h64l2 -153q147 -1 229 -75t82 -206q0 -104 -90.5 -187.5t-210.5 -91.5l3 -214h-94zM407 69q101 0 152.5 61t51.5 149q0 81 -52.5 140t-157.5 65zM323 70l6 414q-99 -2 -151.5 -67t-52.5 -151
q0 -81 51.5 -134.5t146.5 -61.5z" />
    <glyph glyph-name="omega" unicode="&#x3c9;" horiz-adv-x="766" 
d="M721 246q0 -119 -56 -187t-149 -68q-83 0 -133 95q-18 -37 -52 -66t-81 -29q-93 0 -149 68t-56 187q0 124 59 208t143 99q2 1 9 1q12 0 18.5 -5.5t8 -11t3.5 -17.5q-145 -46 -145 -285q0 -64 32.5 -116t82.5 -52q31 0 55.5 21.5t33.5 39t12 29.5q-21 51 -21 203
q19 11 46 11q31 0 48 -11q0 -149 -21 -203q3 -11 12.5 -29t34.5 -39.5t55 -21.5q49 0 81.5 52t32.5 116q0 239 -145 285q2 12 3.5 17.5t8 11t18.5 5.5q7 0 9 -1q84 -15 143 -99t59 -208z" />
    <glyph glyph-name="Wgrave" unicode="&#x1e80;" horiz-adv-x="1063" 
d="M636 740q-158 33 -246 79l38 75q112 -69 223 -108zM835 707h236q4 -29 3 -39l-39 -18q-34 -15 -52 -69l-198 -581l-70 -12l-170 448l-207 -436l-65 -12l-191 608q-10 35 -28 44l-56 30q0 22 4 37h256q5 -23 4 -40l-51 -18q-28 -9 -24 -52q2 -14 4 -19l132 -463l190 404
l-29 93q-6 19 -22 28l-56 30q0 26 3 37h259q6 -18 4 -40l-51 -18q-25 -9 -25 -43q0 -15 4 -27l156 -466l145 463q4 12 4 28q0 29 -17 37l-58 27q0 25 5 39z" />
    <glyph glyph-name="wgrave" unicode="&#x1e81;" horiz-adv-x="886" 
d="M596 -12l-153 420l-156 -408l-64 -11l-149 438q-19 58 -62 71q0 34 6 48h224q0 -25 -6 -52h-82l114 -371l150 412l68 20l157 -434l111 333q4 13 -3 25t-19 18l-33 14v10q0 18 3 25h186q0 -27 -2 -34q-24 -11 -40.5 -28t-29.5 -54l-155 -431zM323 767l61 61
q78 -91 179 -167l-29 -43q-116 68 -211 149z" />
    <glyph glyph-name="Wacute" unicode="&#x1e82;" horiz-adv-x="1063" 
d="M442 740l-15 46q114 40 223 108l38 -75q-88 -46 -246 -79zM835 707h236q4 -29 3 -39l-39 -18q-34 -15 -52 -69l-198 -581l-70 -12l-170 448l-207 -436l-65 -12l-191 608q-10 35 -28 44l-56 30q0 22 4 37h256q5 -23 4 -40l-51 -18q-28 -9 -24 -52q2 -14 4 -19l132 -463
l190 404l-29 93q-6 19 -22 28l-56 30q0 26 3 37h259q6 -18 4 -40l-51 -18q-25 -9 -25 -43q0 -15 4 -27l156 -466l145 463q4 12 4 28q0 29 -17 37l-58 27q0 25 5 39z" />
    <glyph glyph-name="wacute" unicode="&#x1e83;" horiz-adv-x="886" 
d="M596 -12l-153 420l-156 -408l-64 -11l-149 438q-19 58 -62 71q0 34 6 48h224q0 -25 -6 -52h-82l114 -371l150 412l68 20l157 -434l111 333q4 13 -3 25t-19 18l-33 14v10q0 18 3 25h186q0 -27 -2 -34q-24 -11 -40.5 -28t-29.5 -54l-155 -431zM532 828l61 -61
q-95 -81 -211 -149l-29 43q101 76 179 167z" />
    <glyph glyph-name="Wdieresis" unicode="&#x1e84;" horiz-adv-x="1063" 
d="M427 741q-10 0 -36 26.5t-26 35.5q0 10 26.5 36t35.5 26q10 0 36.5 -26t26.5 -36q0 -8 -26 -35t-37 -27zM655 741q-10 0 -36 26.5t-26 35.5q0 10 26.5 36t35.5 26q10 0 36.5 -26t26.5 -36q0 -8 -26 -35t-37 -27zM835 707h236q4 -29 3 -39l-39 -18q-34 -15 -52 -69
l-198 -581l-70 -12l-170 448l-207 -436l-65 -12l-191 608q-10 35 -28 44l-56 30q0 22 4 37h256q5 -23 4 -40l-51 -18q-28 -9 -24 -52q2 -14 4 -19l132 -463l190 404l-29 93q-6 19 -22 28l-56 30q0 26 3 37h259q6 -18 4 -40l-51 -18q-25 -9 -25 -43q0 -15 4 -27l156 -466
l145 463q4 12 4 28q0 29 -17 37l-58 27q0 25 5 39z" />
    <glyph glyph-name="wdieresis" unicode="&#x1e85;" horiz-adv-x="886" 
d="M596 -12l-153 420l-156 -408l-64 -11l-149 438q-19 58 -62 71q0 34 6 48h224q0 -25 -6 -52h-82l114 -371l150 412l68 20l157 -434l111 333q4 13 -3 25t-19 18l-33 14v10q0 18 3 25h186q0 -27 -2 -34q-24 -11 -40.5 -28t-29.5 -54l-155 -431zM342 655q-10 0 -36 26.5
t-26 35.5q0 10 26.5 36t35.5 26q10 0 36.5 -26t26.5 -36q0 -8 -26 -35t-37 -27zM560 655q-10 0 -36 26.5t-26 35.5q0 10 26.5 36t35.5 26q10 0 36.5 -26t26.5 -36q0 -8 -26 -35t-37 -27z" />
    <glyph glyph-name="Ygrave" unicode="&#x1ef2;" horiz-adv-x="646" 
d="M429 740q-158 33 -246 79l38 75q112 -69 223 -108zM412 707h237q3 -19 3 -39q-55 -22 -78 -60l-205 -324l3 -162q0 -18 8 -33.5t21 -19.5l84 -23q0 -31 -4 -46h-309q-6 28 -4 50l70 18q37 9 37 57l3 159l-195 310q-10 15 -21.5 27.5t-19 19t-20 16t-17.5 13.5q0 30 2 37
h241q4 -20 4 -40l-51 -19q-15 -6 -15 -27q0 -19 13 -42l135 -229l144 235q8 11 6 24q-2 22 -19 32l-56 27q0 31 3 39z" />
    <glyph glyph-name="ygrave" unicode="&#x1ef3;" horiz-adv-x="554" 
d="M142 767l61 61q78 -91 179 -167l-29 -43q-116 68 -211 149zM551 546q0 -35 -4 -47q-28 -10 -40 -25q-13 -15 -25 -47l-200 -507q-44 -108 -119 -156l-55 71q54 34 91 88q26 38 39 80l-171 440q-18 42 -65 58q0 35 4 45h221q0 -36 -4 -52h-77l146 -387l120 314
q9 21 1.5 43t-29.5 30l-21 8q-1 6 -1 13q0 17 2 31h187z" />
    <glyph glyph-name="uni2012" unicode="&#x2012;" horiz-adv-x="584" 
d="M92 266v69h400v-69h-400z" />
    <glyph glyph-name="endash" unicode="&#x2013;" horiz-adv-x="632" 
d="M536 261h-440v66h440v-66z" />
    <glyph glyph-name="emdash" unicode="&#x2014;" horiz-adv-x="1072" 
d="M976 261h-880v66h880v-66z" />
    <glyph glyph-name="quoteleft" unicode="&#x2018;" horiz-adv-x="229" 
d="M194 716q0 -1 -15.5 -16.5t-20 -21.5l-15 -20t-14.5 -26t-4 -25q17 -11 41.5 -37.5t24.5 -35.5q0 -12 -32.5 -44t-43.5 -32q-15 0 -46.5 33.5t-31.5 51.5q0 53 39 113t86 88z" />
    <glyph glyph-name="quoteright" unicode="&#x2019;" horiz-adv-x="233" 
d="M204 659q0 -53 -39 -113t-86 -88l-32 28q1 1 16 16.5t20 22t15 20t14 25.5t5 25q-18 11 -42.5 37.5t-24.5 36.5q0 12 32.5 43.5t43.5 31.5q16 0 47 -33t31 -52z" />
    <glyph glyph-name="quotesinglbase" unicode="&#x201a;" horiz-adv-x="244" 
d="M198 45q0 -53 -39 -113t-86 -88l-32 28q1 1 16 16.5t20 22t15 20t14 25.5t5 25q-18 11 -42.5 37.5t-24.5 35.5q0 12 32.5 44t43.5 32q15 0 46.5 -33.5t31.5 -51.5z" />
    <glyph glyph-name="quotedblleft" unicode="&#x201c;" horiz-adv-x="449" 
d="M414 716q0 -1 -15.5 -16.5t-20 -21.5l-15 -20t-14.5 -26t-4 -25q17 -11 41.5 -37.5t24.5 -35.5q0 -12 -32.5 -44t-43.5 -32q-15 0 -46.5 33.5t-31.5 51.5q0 53 39 113t86 88zM194 716q0 -1 -15.5 -16.5t-20 -21.5l-15 -20t-14.5 -26t-4 -25q17 -11 41.5 -37.5t24.5 -35.5
q0 -12 -32.5 -44t-43.5 -32q-15 0 -46.5 33.5t-31.5 51.5q0 53 39 113t86 88z" />
    <glyph glyph-name="quotedblright" unicode="&#x201d;" horiz-adv-x="453" 
d="M424 659q0 -53 -39 -113t-86 -88l-32 28q1 1 16 16.5t20 22t15 20t14 25.5t5 25q-18 11 -42.5 37.5t-24.5 36.5q0 12 32.5 43.5t43.5 31.5q16 0 47 -33t31 -52zM204 659q0 -53 -39 -113t-86 -88l-32 28q1 1 16 16.5t20 22t15 20t14 25.5t5 25q-18 11 -42.5 37.5
t-24.5 36.5q0 12 32.5 43.5t43.5 31.5q16 0 47 -33t31 -52z" />
    <glyph glyph-name="quotedblbase" unicode="&#x201e;" horiz-adv-x="464" 
d="M418 45q0 -53 -39 -113t-86 -88l-32 28q1 1 16 16.5t19.5 22t15 20.5t14.5 26t5 25q-18 10 -42.5 36.5t-24.5 36.5q0 12 32.5 44t43.5 32q16 0 47 -33.5t31 -52.5zM198 45q0 -53 -39 -113t-86 -88l-32 28q1 1 16 16.5t19.5 22t15 20.5t14.5 26t5 25q-18 10 -42.5 36.5
t-24.5 36.5q0 12 32.5 44t43.5 32q16 0 47 -33.5t31 -52.5z" />
    <glyph glyph-name="dagger" unicode="&#x2020;" horiz-adv-x="500" 
d="M466 407l-10 -41l-176 15l15 -421l-44 -10l-46 10l15 421l-176 -15l-10 41l10 41l176 -15l-15 182l45 10l45 -10l-15 -182l176 15z" />
    <glyph glyph-name="daggerdbl" unicode="&#x2021;" horiz-adv-x="500" 
d="M280 195l176 15l10 -41l-10 -41l-176 15l15 -182l-45 -10l-45 10l15 182l-176 -15l-10 41l10 41l176 -15v186l-176 -15l-10 41l10 41l176 -15l-15 182l45 10l45 -10l-15 -182l176 15l10 -41l-10 -41l-176 15v-186z" />
    <glyph glyph-name="bullet" unicode="&#x2022;" horiz-adv-x="384" 
d="M337 352q0 -67 -41.5 -105.5t-103.5 -38.5t-103.5 39t-41.5 105t41.5 105.5t103.5 39.5t103.5 -39.5t41.5 -105.5z" />
    <glyph glyph-name="ellipsis" unicode="&#x2026;" horiz-adv-x="841" 
d="M800 35q0 -11 -35.5 -48t-49.5 -37q-13 0 -48 36t-35 49t35.5 48t47.5 35q13 0 49 -35t36 -48zM507 35q0 -11 -35.5 -48t-49.5 -37q-13 0 -48 36t-35 49t35.5 48t47.5 35q13 0 49 -35t36 -48zM210 35q0 -11 -35.5 -48t-49.5 -37q-13 0 -48 36t-35 49t35.5 48t47.5 35
q13 0 49 -35t36 -48z" />
    <glyph glyph-name="perthousand" unicode="&#x2030;" horiz-adv-x="898" 
d="M183 368q-53 0 -87 28.5t-34 88.5q0 59 36 92.5t87 33.5q55 0 90 -28.5t35 -91.5q0 -58 -37 -90.5t-90 -32.5zM183 420q27 0 43.5 19t16.5 52q0 68 -58 68q-25 0 -41 -18t-16 -56q0 -65 55 -65zM459 -19q-54 0 -88 28t-34 89q0 58 36 91.5t88 33.5q55 0 90 -28.5
t35 -91.5q0 -58 -37 -90t-90 -32zM459 32q27 0 43.5 19t16.5 52q0 68 -58 68q-25 0 -41 -18t-16 -55q0 -66 55 -66zM749 -19q-54 0 -88 28t-34 89q0 58 36 91.5t88 33.5q55 0 90 -28.5t35 -91.5q0 -58 -37 -90t-90 -32zM749 32q27 0 43.5 19t16.5 52q0 68 -58 68
q-25 0 -41 -18t-16 -55q0 -66 55 -66zM84 62l-38 52l501 405l38 -51z" />
    <glyph glyph-name="guilsinglleft" unicode="&#x2039;" horiz-adv-x="277" 
d="M226 479q-42 -136 -93 -207q58 -111 86 -209q-38 -7 -62 -13q-28 80 -119 222q89 120 130 220q33 -7 58 -13z" />
    <glyph glyph-name="guilsinglright" unicode="&#x203a;" horiz-adv-x="275" 
d="M238 272q-89 -139 -118 -222l-62 13q23 88 85 209q-47 66 -93 207l58 13q39 -95 130 -220z" />
    <glyph glyph-name="uni203D" unicode="&#x203d;" horiz-adv-x="378" 
d="M206 523l-5 -115q82 108 82 166q0 21 -27.5 42.5t-87.5 21.5q-19 0 -36.5 -2.5t-25.5 -4.5t-33 -10.5t-36 -11.5q-13 25 -13 43q0 68 119 68q97 0 160 -39t63 -97q0 -39 -19.5 -78.5t-42.5 -65.5t-57.5 -61.5t-49.5 -55.5l-2 -63l-2 -49h-71l-13 312l48 30zM236 35
q0 -11 -35.5 -48t-49.5 -37q-13 0 -48 36t-35 49t35.5 48t47.5 35q13 0 49 -35t36 -48z" />
    <glyph glyph-name="fraction" unicode="&#x2044;" horiz-adv-x="139" 
d="M359 627l-532 -533l-40 40l533 532z" />
    <glyph glyph-name="zerosuperior" unicode="&#x2070;" horiz-adv-x="355" 
d="M326 605q0 -194 -151 -194q-146 0 -146 183q0 53 12.5 94t48.5 70t93 29q143 0 143 -182zM251 601q0 27 -1.5 42.5t-7.5 37.5t-21.5 33t-39.5 11q-22 0 -37 -8.5t-22.5 -20t-12 -31.5t-5 -34t-0.5 -36q0 -59 16 -90.5t57 -31.5q21 0 35.5 8t22 19t11.5 30.5t4.5 33.5
t0.5 37z" />
    <glyph glyph-name="foursuperior" unicode="&#x2074;" horiz-adv-x="331" 
d="M313 505h-65v-90h-72v90h-152v68l120 209h104v-216h65v-61zM176 566v156l-87 -156h87z" />
    <glyph glyph-name="fivesuperior" unicode="&#x2075;" horiz-adv-x="317" 
d="M282 532q0 -57 -38.5 -89t-99.5 -32t-109 14q10 37 17 62q56 -13 91 -13q30 0 48 15t18 38q0 57 -64 57q-41 0 -96 -6v205h223v-61h-153v-77q6 0 17.5 1t16.5 1q58 0 93.5 -31t35.5 -84z" />
    <glyph glyph-name="sixsuperior" unicode="&#x2076;" horiz-adv-x="330" 
d="M301 539q0 -60 -38.5 -94.5t-93.5 -34.5q-70 0 -105 38t-35 129q0 101 48.5 156t128.5 55q33 0 69 -13l-16 -58q-25 8 -54 8q-77 0 -95 -79q35 8 63 8q61 0 94.5 -29t33.5 -86zM228 534q0 29 -16 43.5t-42 14.5q-30 0 -68 -6v-13q0 -57 15 -79t55 -22q25 0 40.5 17.5
t15.5 44.5z" />
    <glyph glyph-name="sevensuperior" unicode="&#x2077;" horiz-adv-x="270" 
d="M258 731l-169 -329l-64 28l150 291h-171v61h254v-51z" />
    <glyph glyph-name="eightsuperior" unicode="&#x2078;" horiz-adv-x="331" 
d="M301 512q0 -52 -37.5 -77t-99.5 -25q-60 0 -96.5 23t-36.5 72q0 37 19 60t53 42q-59 39 -59 88q0 47 34 69t91 22q55 0 88 -24t33 -61q0 -51 -65 -94q76 -44 76 -95zM215 690q0 16 -11 28.5t-37 12.5q-53 0 -53 -41q0 -25 60 -56q41 23 41 56zM227 517q0 5 -3 10.5
t-8.5 11.5t-11 10.5t-14 10t-13 9t-13 8t-9.5 5.5q-19 -11 -35.5 -31t-16.5 -39q0 -20 15 -33.5t47 -13.5q62 0 62 52z" />
    <glyph glyph-name="ninesuperior" unicode="&#x2079;" horiz-adv-x="329" 
d="M112 410q-28 0 -64 12l15 59q31 -9 53 -9q88 0 102 74q-40 -9 -66 -9q-59 0 -91 35t-32 89q0 59 37 92.5t96 33.5q64 0 101 -44.5t37 -122.5q0 -114 -49.5 -162t-138.5 -48zM159 599q26 0 65 7v20q0 43 -17.5 71t-48.5 28q-25 0 -39.5 -15.5t-14.5 -43.5q0 -38 14 -52.5
t41 -14.5z" />
    <glyph glyph-name="uni207A" unicode="&#x207a;" horiz-adv-x="310" 
d="M285 550l-96 2l2 -110h-72l2 110l-96 -2v65l96 -2l-2 110h72l-2 -110l96 2v-65z" />
    <glyph glyph-name="minussuperior" unicode="&#x207b;" horiz-adv-x="290" 
d="M265 550h-240v65h240v-65z" />
    <glyph glyph-name="uni207C" unicode="&#x207c;" horiz-adv-x="290" 
d="M265 615h-240v65h240v-65zM265 484h-240v65h240v-65z" />
    <glyph glyph-name="parenleftsuperior" unicode="&#x207d;" horiz-adv-x="233" 
d="M186 269q-6 4 -16.5 13t-36.5 39.5t-45.5 66.5t-36 94t-16.5 122t15.5 120.5t37.5 91.5t44.5 60.5t37.5 36.5l16 11l38 -43q-5 -3 -13.5 -10t-30 -32t-37.5 -54t-29.5 -78t-13.5 -102q0 -54 13 -104t31 -83t36 -58.5t31 -37.5l13 -11z" />
    <glyph glyph-name="parenrightsuperior" unicode="&#x207e;" horiz-adv-x="233" 
d="M54 269l-38 42q5 4 13.5 12t30 36t37.5 59.5t29.5 82t13.5 104.5q0 53 -13 101.5t-31 79t-36 53t-31 32.5l-13 10l38 43q6 -4 16.5 -11.5t36.5 -35.5t45.5 -61.5t36 -90.5t16.5 -121t-15.5 -121.5t-37.5 -95t-44.5 -65.5t-37.5 -40z" />
    <glyph glyph-name="n.superior" unicode="&#x207f;" horiz-adv-x="477" 
d="M463 451q0 -25 -5 -36h-170q-3 19 -2 35l20 12q18 11 18 32l2 105v50q0 46 -12 64t-56 18q-54 0 -101 -25v-107l1 -116q0 -19 10 -20l51 -11q0 -28 -4 -37h-185q-3 17 -2 32l32 14q20 8 20 36l2 102v135h-63v39q58 14 110 14q14 0 20 -5.5t6 -18.5v-21q65 48 131 48
q73 0 94 -29.5t21 -93.5v-68l2 -124q0 -12 9 -13z" />
    <glyph glyph-name="zeroinferior" unicode="&#x2080;" horiz-adv-x="355" 
d="M326 189q0 -194 -151 -194q-146 0 -146 183q0 53 12.5 94t48.5 70t93 29q143 0 143 -182zM251 185q0 27 -1.5 42.5t-7.5 37.5t-21.5 33t-39.5 11q-22 0 -37 -8.5t-22.5 -20t-12 -31.5t-5 -34t-0.5 -36q0 -59 16 -90.5t57 -31.5q21 0 35.5 8t22 19t11.5 30.5t4.5 33.5
t0.5 37z" />
    <glyph glyph-name="oneinferior" unicode="&#x2081;" horiz-adv-x="235" 
d="M176 0h-73v306h-73v58l146 3v-367z" />
    <glyph glyph-name="twoinferior" unicode="&#x2082;" horiz-adv-x="307" 
d="M277 0h-260v52q5 5 61 53t84.5 83t28.5 64q0 32 -12.5 44t-38.5 12q-47 0 -83 -24l-29 51q51 36 114 36q122 0 122 -112q0 -28 -11.5 -56t-35.5 -55t-42 -44.5t-48 -42.5h150v-61z" />
    <glyph glyph-name="threeinferior" unicode="&#x2083;" horiz-adv-x="300" 
d="M268 105q0 -59 -38.5 -85t-98.5 -26q-69 0 -113 19l16 58q45 -15 92 -15q34 0 51 10t17 36q0 35 -21 46.5t-78 15.5v51q83 5 83 59q0 35 -48 35q-16 0 -33.5 -3.5t-26.5 -6.5l-10 -3l-26 51q43 25 101 25q49 0 81.5 -23.5t32.5 -67.5q0 -51 -45 -84q64 -31 64 -92z" />
    <glyph glyph-name="fourinferior" unicode="&#x2084;" horiz-adv-x="330" 
d="M313 91h-65v-90h-72v90h-152v68l120 209h104v-216h65v-61zM176 152v156l-87 -156h87z" />
    <glyph glyph-name="fiveinferior" unicode="&#x2085;" horiz-adv-x="317" 
d="M283 116q0 -57 -38.5 -89t-99.5 -32t-109 14q10 37 17 62q56 -13 91 -13q30 0 48 15t18 38q0 57 -64 57q-41 0 -96 -6v205h223v-61h-153v-77q6 0 17.5 1t16.5 1q58 0 93.5 -31t35.5 -84z" />
    <glyph glyph-name="sixinferior" unicode="&#x2086;" horiz-adv-x="330" 
d="M301 122q0 -60 -38.5 -94.5t-93.5 -34.5q-70 0 -105 38t-35 129q0 101 48.5 156t128.5 55q33 0 69 -13l-16 -58q-25 8 -54 8q-77 0 -95 -79q35 8 63 8q61 0 94.5 -29t33.5 -86zM228 117q0 29 -16 43.5t-42 14.5q-30 0 -68 -6v-13q0 -57 15 -79t55 -22q25 0 40.5 17.5
t15.5 44.5z" />
    <glyph glyph-name="seveninferior" unicode="&#x2087;" horiz-adv-x="270" 
d="M258 316l-169 -329l-64 28l150 291h-171v61h254v-51z" />
    <glyph glyph-name="eightinferior" unicode="&#x2088;" horiz-adv-x="332" 
d="M301 97q0 -52 -37.5 -77t-99.5 -25q-60 0 -96.5 23t-36.5 72q0 37 19 60t53 42q-59 39 -59 88q0 47 34 69t91 22q55 0 88 -24t33 -61q0 -51 -65 -94q76 -44 76 -95zM215 275q0 16 -11 28.5t-37 12.5q-53 0 -53 -41q0 -25 60 -56q41 23 41 56zM227 102q0 5 -3 10.5
t-8.5 11.5t-11 10.5t-14 10t-13 9t-13 8t-9.5 5.5q-19 -11 -35.5 -31t-16.5 -39q0 -20 15 -33.5t47 -13.5q62 0 62 52z" />
    <glyph glyph-name="nineinferior" unicode="&#x2089;" horiz-adv-x="329" 
d="M112 -6q-28 0 -64 12l15 59q31 -9 53 -9q88 0 102 74q-40 -9 -66 -9q-59 0 -91 35t-32 89q0 59 37 92.5t96 33.5q64 0 101 -44.5t37 -122.5q0 -114 -49.5 -162t-138.5 -48zM159 183q26 0 65 7v20q0 43 -17.5 71t-48.5 28q-25 0 -39.5 -15.5t-14.5 -43.5q0 -38 14 -52.5
t41 -14.5z" />
    <glyph glyph-name="parenleft.inferior" unicode="&#x208d;" horiz-adv-x="240" 
d="M186 -146q-6 4 -16.5 13t-36.5 39.5t-45.5 66.5t-36 94t-16.5 122t15.5 120.5t37.5 91.5t44.5 60.5t37.5 36.5l16 11l38 -43q-5 -3 -13.5 -10t-30 -32t-37.5 -54t-29.5 -78t-13.5 -102q0 -54 13 -104t31 -83t36 -58.5t31 -36.5l13 -12z" />
    <glyph glyph-name="parenright.inferior" unicode="&#x208e;" horiz-adv-x="240" 
d="M54 -146l-38 42q5 4 13.5 12t30 36t37.5 59.5t29.5 82t13.5 104.5q0 53 -13 101.5t-31 79t-36 53t-31 32.5l-13 10l38 43q6 -4 16.5 -11.5t36.5 -35.5t45.5 -61.5t36 -90.5t16.5 -121t-15.5 -121.5t-37.5 -95t-44.5 -65.5t-37.5 -41z" />
    <glyph glyph-name="colonsign" unicode="&#x20a1;" horiz-adv-x="656" 
d="M79 -75l58 156q-92 89 -92 268q0 155 88 257t245 112l31 82h62l-31 -82q54 -1 95 -12l36 94h62l-43 -114l13 -5v-151h-46q-4 11 -14 33l-183 -488q35 -5 68 -5q81 0 163 17l21 -67q-81 -27 -202 -27q-38 0 -80 5l-27 -73h-62l31 84q-47 12 -86 35l-45 -119h-62zM303 90
l200 529q-34 28 -89 31l-192 -510q33 -31 81 -50zM180 194l171 453q-96 -14 -152 -85.5t-56 -202.5q0 -100 37 -165z" />
    <glyph glyph-name="uni20A2" unicode="&#x20a2;" horiz-adv-x="669" 
d="M409 -7q-365 0 -365 356q0 162 96 266t265 104q30 0 55.5 -2t41.5 -4t34.5 -7.5t24.5 -7.5t22.5 -9t18.5 -8v-151h-46q-21 59 -55.5 90t-99.5 31q-118 0 -188.5 -72t-70.5 -220q0 -117 50 -186t139 -92v278h-91v51q95 21 139 21q21 0 29.5 -8t8.5 -28v-44q20 34 64 58.5
t93 24.5q42 0 66 -8l-16 -92q-29 11 -64 11q-105 0 -142 -43v-232q90 0 172 17l21 -67q-81 -27 -202 -27z" />
    <glyph glyph-name="franc" unicode="&#x20a3;" horiz-adv-x="793" 
d="M51 0q-5 27 -4 44l58 18q18 5 28.5 23t10.5 40l3 148v329q0 32 -24 40l-75 26q-2 20 5 39h518v-167q-34 -6 -48 1q-5 21 -10.5 34t-15 26.5t-26 21t-39.5 8.5l-195 11v-238l146 4q81 17 128 17q21 0 29.5 -8t8.5 -28v-44q20 34 64 58.5t93 24.5q42 0 66 -8l-16 -92
q-29 11 -64 11q-105 0 -142 -43v-36l4 -167q0 -24 15 -26l104 -16q0 -40 -4 -51h-276q-5 27 -4 44l37 24q33 18 35 75l2 117v74l-226 4v-66l3 -160q2 -30 30 -36l76 -21q0 -41 -5 -55h-290z" />
    <glyph glyph-name="lira" unicode="&#x20a4;" horiz-adv-x="586" 
d="M44 0q-4 18 -4 49l60 17q20 6 28 20t11 45l17 163h-99v60h105l7 62h-112v60h118l10 93q8 82 66 141.5t136 59.5q20 0 40.5 -2t48 -7.5t45 -18.5t17.5 -32q0 -41 -35 -65q-78 57 -106 57q-37 0 -60.5 -9.5t-35 -31t-16 -41t-8.5 -55.5l-9 -89h194v-60h-200l-7 -62h207v-60
h-213l-21 -215l205 6q25 1 41 10t36 28l48 -44q-26 -39 -53.5 -59t-75.5 -20h-385z" />
    <glyph glyph-name="mill" unicode="&#x20a5;" horiz-adv-x="1052" 
d="M734 741l-77 -205q54 21 113 21q54 0 88 -12.5t49 -40.5t19.5 -56t4.5 -75v-100l4 -183q0 -14 3.5 -17.5t16.5 -5.5l76 -15q0 -41 -4 -52h-246q-6 22 -4 50l36 20q27 14 28 54l3 148v85q0 74 -18.5 99t-90.5 25q-48 0 -106 -20l-45 -120v-68l3 -183q0 -20 16 -23l90 -15
q0 -41 -4 -52h-233l-50 -133h-69l160 425v65q0 32 -1.5 49t-7 34t-17 24.5t-31 12t-49.5 4.5q-43 0 -86 -15t-68 -30v-163l4 -176q0 -27 15 -29l79 -15q0 -42 -4 -53h-260q-4 12 -4 44l42 18q16 7 27.5 23.5t11.5 38.5l2 149v207h-102v50q95 21 149 21q21 0 29.5 -8t8.5 -28
v-30q33 24 48 34t56.5 24t86.5 14q117 0 144 -69l96 253h68z" />
    <glyph glyph-name="uni20A6" unicode="&#x20a6;" horiz-adv-x="843" 
d="M630 -21l-211 311h-201v-17l3 -160q0 -19 4 -25.5t20 -12.5l85 -29q0 -32 -5 -46h-281q-5 27 -4 44l58 18q46 14 48 84l2 127v17h-100v57h100v89h-100v57h100v101q0 40 -29 51l-61 21q0 34 2 41h202l148 -214h226v88q0 50 -37 64l-63 21q0 30 4 41h262q4 -30 4 -39
l-59 -17q-19 -5 -30 -24t-11 -45v-89h104v-57h-104v-89h104v-57h-104v-289zM218 493h63l-65 97h-7l9 -80v-17zM639 164h7l-10 105v21h-85zM218 347h162l-60 89h-102v-89zM512 347h124v89h-186z" />
    <glyph glyph-name="uni20A7" unicode="&#x20a7;" horiz-adv-x="1470" 
d="M592 492q0 -100 -70.5 -161t-209.5 -61h-19v62l25 1q87 3 131 38t44 116q0 150 -155 153l-113 2v-369l2 -154q0 -38 23 -43l102 -27q0 -35 -5 -49h-309q-5 27 -4 44l58 18q38 11 39 62l3 149v329q0 32 -24 40l-75 26q-2 20 5 39h324q108 0 168 -53.5t60 -161.5zM990 74
l16 -66q-47 -19 -118 -19q-101 0 -141 34t-39 126l3 331h-80v36l156 142h14v-112h183v-66h-183v-208l3 -122q1 -53 24 -72.5t76 -19.5q44 0 86 16zM1436 150q0 -45 -17.5 -77.5t-48.5 -49.5t-65.5 -25t-75.5 -8q-98 0 -175 36l8 156l47 -1q1 -55 35.5 -94t92.5 -39
q116 0 116 77q0 32 -27.5 53t-99.5 50q-71 28 -113 67.5t-42 108.5q0 76 53.5 114.5t138.5 38.5q90 0 160 -35l-17 -133l-37 4q-7 44 -42 73.5t-83 29.5q-44 0 -70.5 -20t-26.5 -49q0 -13 3 -23.5t11.5 -20t14 -15t21.5 -14t22 -11.5t27.5 -12t26.5 -11q37 -16 59.5 -28
t50 -32.5t40.5 -47.5t13 -62z" />
    <glyph glyph-name="uni20A8" unicode="&#x20a8;" horiz-adv-x="1049" 
d="M46 0q-4 30 -3 44l48 18q39 15 40 63l3 148v340q0 20 -23 29l-75 26q-2 20 5 39h302q242 0 242 -195q0 -64 -34.5 -116.5t-95.5 -71.5l53 -88q59 -97 142.5 -146t160.5 -49q54 0 87.5 22.5t33.5 61.5q0 32 -27.5 53t-99.5 50q-71 28 -113 67.5t-42 108.5q0 76 53.5 114.5
t138.5 38.5q90 0 160 -35l-17 -133l-37 4q-7 44 -42 73.5t-83 29.5q-44 0 -70.5 -20t-26.5 -49q0 -13 3 -23.5t11.5 -20t14 -15t21.5 -14t22 -11.5t27.5 -12t26.5 -11q37 -16 59.5 -28t50 -32.5t40.5 -47.5t13 -62q0 -79 -63.5 -125t-157.5 -46q-106 0 -206.5 50t-160.5 149
l-76 125q-15 -3 -52 -3h-75l4 -202q0 -24 17 -27l81 -19q0 -41 -4 -52h-276zM224 366h93q165 0 165 141q0 133 -164 133l-94 2v-276z" />
    <glyph glyph-name="uni20A9" unicode="&#x20a9;" horiz-adv-x="1145" 
d="M747 -21l-119 320h-115l-142 -298l-65 -19l-99 317h-143v57h125l-27 89h-98v57h80l-29 94q-10 35 -28 44l-56 30q0 22 4 37h256q5 -26 4 -40l-51 -18q-17 -6 -22.5 -28t2.5 -43l21 -76h293l8 17l-29 93q-6 19 -22 28l-56 30v37h262q5 -26 4 -40l-51 -18q-17 -6 -22.5 -27
t1.5 -43l26 -77h252l23 74q4 12 4 28q0 29 -17 37l-58 27q0 25 5 39h236q4 -29 3 -39l-39 -18q-34 -15 -52 -69l-27 -79h96v-57h-115l-31 -89h146v-57h-165l-102 -300zM287 356h182l42 89h-249zM708 356h157l28 89h-215zM356 115l86 184h-139zM540 356h67l-29 80zM789 113
l58 186h-120z" />
    <glyph glyph-name="uni20AA" unicode="&#x20aa;" horiz-adv-x="816" 
d="M268 0v466h82v-373h154q30 0 53.5 3t41.5 6.5t31 13.5t22 17t15 24.5t9.5 28.5t4.5 36.5t1.5 40.5t0.5 48v3v393h82v-413q0 -44 -1 -73t-5.5 -61t-12 -51.5t-21 -40t-33 -31.5t-46.5 -20.5t-63 -13t-83 -3.5h-232zM60 0v707h232q47 0 82.5 -3.5t63 -13t47 -20.5
t32.5 -31.5t21 -40t12 -51.5t5 -61t1 -73v-172h-82v152q0 113 -12 148q-19 54 -92 67q-30 6 -75 6h-154v-614h-81z" />
    <glyph glyph-name="dong" unicode="&#x20ab;" horiz-adv-x="604" 
d="M227 95q-192 0 -192 226q0 102 65.5 165.5t171.5 63.5q51 0 101 -11v81h-159v64h159v80h87v-80h82v-64h-82v-277l4 -167h101l7 -39q-24 -14 -67.5 -27.5t-80.5 -13.5q-22 0 -34.5 12.5t-15 26.5t-2.5 36q-26 -31 -66 -53.5t-79 -22.5zM259 179q38 0 110 36l4 128v130
q-5 1 -19 4t-23 5t-26 3.5t-36 1.5q-68 0 -103.5 -48t-35.5 -121t30.5 -106t98.5 -33zM77 0v64h465v-64h-465z" />
    <glyph glyph-name="Euro" unicode="&#x20ac;" horiz-adv-x="571" 
d="M532 34q-22 -14 -66.5 -28.5t-101.5 -14.5q-116 0 -173.5 45t-72.5 141h-84v53h78q-1 16 -1 49q0 24 2 36h-79v53h90q24 84 89.5 138t156.5 54q22 0 45 -2.5t51.5 -9t46.5 -21.5t18 -37q0 -19 -4.5 -31t-9.5 -17t-23 -21q-2 1 -10.5 8t-11.5 9.5t-12 9t-13.5 9.5t-13 8.5
t-14.5 8t-14.5 6.5t-15.5 5.5t-15 3t-16 1.5q-63 0 -99 -29t-49 -93h203v-53h-210q-1 -12 -1 -39q0 -31 1 -46h210v-53h-201q31 -117 175 -117q20 0 114 52q31 -31 31 -78z" />
    <glyph glyph-name="uni20AD" unicode="&#x20ad;" horiz-adv-x="759" 
d="M728 -22q-120 5 -176 65l-277 293h-30v-55l2 -173q0 -30 21 -36l65 -21q0 -37 -5 -51h-276q-5 27 -4 44l66 23q36 13 38 67l2 139v63h-98v57h98v190q0 20 -7.5 38t-22.5 24l-60 21q-2 6 -1.5 19.5t2.5 21.5h262q5 -25 4 -39l-50 -19q-36 -14 -36 -71v-185h36l214 195
q20 17 20 36t-17 24l-48 15q0 33 4 44h234v-44l-321 -270h314v-57h-270l193 -201q76 -80 135 -100z" />
    <glyph glyph-name="uni20AE" unicode="&#x20ae;" horiz-adv-x="693" 
d="M188 0q-6 28 -4 49l74 19q16 4 28 25.5t13 43.5l2 82l-175 -74v62l176 75v64l-176 -75v62l176 75v231h-137q-64 0 -83 -100q-23 -4 -46 3v165h624v-165q-15 -5 -45 -3q-19 100 -94 100h-128v-192l178 76v-62l-178 -76v-64l178 76v-62l-178 -76l5 -156q0 -19 3.5 -26
t17.5 -10l95 -18q0 -34 -4 -49h-322z" />
    <glyph glyph-name="uni20B1" unicode="&#x20b1;" horiz-adv-x="702" 
d="M57 0q-5 27 -4 44l58 18q38 11 39 62l3 149v129h-97v57h97v61h-97v57h97v25q0 32 -24 40l-75 26q-2 20 5 39h324q174 0 216 -130h82v-57h-71l1 -28q0 -13 -2 -33h72v-57h-88q-57 -132 -262 -132h-19v62l25 1q121 5 156 69h-249v-129l2 -154q0 -38 23 -43l102 -27
q0 -35 -5 -49h-309zM244 459h266q2 18 2 28q0 11 -2 33h-266v-61zM244 577h248q-36 62 -135 63l-113 2v-65z" />
    <glyph glyph-name="uni2113" unicode="&#x2113;" horiz-adv-x="433" 
d="M60 201l-27 43q49 37 83 67v197q0 127 44.5 193t116.5 66q52 0 86.5 -28t34.5 -97q0 -80 -49 -156.5t-146 -166.5v-130q0 -73 13.5 -105.5t46.5 -32.5q35 0 71 28l30 -26q-17 -28 -49.5 -46.5t-73.5 -18.5q-72 0 -98.5 45t-26.5 133v76q-29 -22 -56 -41zM203 570v-173
q111 126 111 233q0 42 -10 62.5t-39 20.5q-62 0 -62 -143z" />
    <glyph glyph-name="uni2116" unicode="&#x2116;" horiz-adv-x="996" 
d="M660 81v57h291v-57h-291zM951 370q0 -60 -44 -101t-104 -41q-143 0 -143 122q0 60 43.5 100.5t102.5 40.5q63 0 104 -31t41 -90zM879 360q0 39 -19.5 61t-54.5 22t-54.5 -22t-19.5 -61q0 -85 74 -85t74 85zM654 506l-49 -14q-11 -3 -19 -17t-8 -30v-443l-64 -22l-337 458
h-4l8 -47v-179l2 -121q1 -9 1.5 -12.5t3.5 -6t10 -4.5l69 -23q0 -32 -5 -45h-227q-4 31 -3 43l49 15q14 4 23 21.5t9 36.5l2 96v242q0 30 -28 38l-41 13q0 33 3 41h163l303 -404h3l-6 67l-1 236q0 13 -7 26t-17 16l-53 18q0 25 5 41h212q4 -27 3 -40z" />
    <glyph glyph-name="uni2117" unicode="&#x2117;" horiz-adv-x="677" 
d="M484 323q0 -61 -42 -91t-99 -30h-39l3 -101h-59l2 137v200l117 1q51 0 84 -29.5t33 -86.5zM424 321q0 37 -16.5 55.5t-54.5 18.5h-49v-150h41q79 0 79 76zM639 269q0 -135 -84 -212t-214 -77q-54 0 -104.5 15t-96.5 47t-74 90.5t-28 136.5q0 136 85.5 215t215.5 79
q57 0 108.5 -16.5t95.5 -50t70 -92t26 -135.5zM587 269q0 122 -72 185.5t-174 63.5q-109 0 -179 -60.5t-70 -183.5q0 -61 19 -108t46.5 -73t64.5 -42.5t66.5 -21.5t58.5 -5q106 0 173 64.5t67 180.5z" />
    <glyph glyph-name="uni2120" unicode="&#x2120;" horiz-adv-x="834" 
d="M161 340q-82 0 -127 60l36 36q43 -56 96 -56q31 0 52 15t21 41q0 25 -28 43.5t-62 30.5t-62 39t-28 66q0 51 36.5 77t92.5 26q68 0 107 -39l-36 -36q-36 36 -76 36q-31 0 -51.5 -14t-20.5 -37q0 -20 19 -35t46 -26t53.5 -24t45.5 -36.5t19 -56.5q0 -53 -39 -81.5
t-94 -28.5zM791 348h-61l-40 250l-5 46l-93 -296h-69l-73 292l-3 -37l-49 -255h-54l75 359h63l60 -233l21 -86l25 89l76 230h64z" />
    <glyph glyph-name="trademark" unicode="&#x2122;" horiz-adv-x="862" 
d="M806 348h-61l-40 250l-6 46l-12 -43l-80 -253h-69l-64 257l-8 35l-4 -37l-49 -255h-54l75 359h63l60 -233l21 -86l25 89l76 230h64zM373 707v-55l-133 12v-177l4 -139h-58l3 139v177l-133 -12v55h317z" />
    <glyph glyph-name="Omega" unicode="&#x2126;" horiz-adv-x="822" 
d="M34 0v79l218 -13l1 3q-77 29 -131.5 107.5t-54.5 188.5q0 163 99.5 258t252.5 95q165 0 250 -96.5t85 -258.5q0 -93 -57 -176t-135 -118l1 -3l224 13v-79h-289l-22 69q166 114 166 295q0 132 -57 208t-175 76q-236 0 -236 -282q0 -55 12 -98t39.5 -78.5t50.5 -57
t65 -55.5l-23 -77h-284z" />
    <glyph glyph-name="estimated" unicode="&#x212e;" horiz-adv-x="608" 
d="M316 -8q-120 0 -198 72t-78 199t77.5 211t203.5 84q112 0 182 -64t70 -176v-50h-423v-67q0 -56 47 -100t124 -44q66 0 106.5 20t77.5 67l43 -32q-83 -120 -232 -120zM150 323h313v20q0 71 -33.5 117t-108.5 46q-82 0 -126.5 -42t-44.5 -121v-20z" />
    <glyph glyph-name="uni2139" unicode="&#x2139;" horiz-adv-x="800" 
d="M400 -8q-149 0 -255.5 106t-106.5 256q0 149 106.5 255.5t255.5 106.5t255.5 -106.5t106.5 -255.5q0 -150 -106.5 -256t-255.5 -106zM400 48q127 0 216 89.5t90 216.5q0 127 -89.5 216.5t-216.5 89.5t-216.5 -89.5t-89.5 -216.5t89.5 -216.5t216.5 -89.5zM400 454
q-31 0 -53 21.5t-22 53.5q0 30 22.5 51t52.5 21t52.5 -21t22.5 -51q0 -32 -22 -53.5t-53 -21.5zM328 140v280h143v-280h-143z" />
    <glyph glyph-name="uni213B" unicode="&#x213b;" horiz-adv-x="804" 
d="M754 0h-704v309h111v344h309l175 -175v-169h109v-309zM585 483l-109 110v-110h109zM606 309v135h-170v170h-236v-305h406zM715 39l-1 231h-625v-231h626zM390 529h-144v39h144v-39zM560 360h-314v38h314v-38zM390 444h-144v39h144v-39zM390 80h-144v39h144v-39z" />
    <glyph glyph-name="onethird" unicode="&#x2153;" horiz-adv-x="727" 
d="M611 627l-532 -533l-40 40l533 532zM175 415h-73v306h-73v58l146 3v-367zM688 105q0 -59 -38.5 -85t-98.5 -26q-69 0 -113 19l16 58q45 -15 92 -15q34 0 51 10t17 36q0 35 -21 46.5t-78 15.5v51q83 5 83 59q0 35 -48 35q-16 0 -33.5 -3.5t-26.5 -6.5l-10 -3l-26 51
q43 25 101 25q49 0 81.5 -23.5t32.5 -67.5q0 -51 -45 -84q64 -31 64 -92z" />
    <glyph glyph-name="twothirds" unicode="&#x2154;" horiz-adv-x="758" 
d="M289 415h-260v52q5 5 61 53t84.5 83t28.5 64q0 32 -12.5 44t-38.5 12q-47 0 -83 -24l-29 51q51 36 114 36q122 0 122 -112q0 -28 -11.5 -56t-35.5 -55t-42 -44.5t-48 -42.5h150v-61zM719 105q0 -59 -38.5 -85t-98.5 -26q-69 0 -113 19l16 58q45 -15 92 -15q34 0 51 10
t17 36q0 35 -21 46.5t-78 15.5v51q83 5 83 59q0 35 -48 35q-16 0 -33.5 -3.5t-27.5 -6.5l-9 -3l-26 51q43 25 101 25q49 0 81.5 -23.5t32.5 -67.5q0 -51 -45 -84q64 -31 64 -92zM666 627l-532 -533l-40 40l533 532z" />
    <glyph glyph-name="oneeighth" unicode="&#x215b;" horiz-adv-x="760" 
d="M172 415h-73v306h-73v58l146 3v-367zM624 627l-532 -533l-40 40l533 532zM717 97q0 -52 -37.5 -77t-99.5 -25q-60 0 -96.5 23t-36.5 72q0 37 19 60t53 42q-59 39 -59 88q0 47 34 69t91 22q55 0 88 -24t33 -61q0 -51 -65 -94q76 -44 76 -95zM631 275q0 16 -11 28.5
t-37 12.5q-53 0 -53 -41q0 -25 60 -56q41 23 41 56zM643 102q0 5 -3 10.5t-8.5 11.5t-11 10.5t-14 10t-13 9t-13 8t-9.5 5.5q-19 -11 -35.5 -31t-16.5 -39q0 -20 15 -33.5t47 -13.5q62 0 62 52z" />
    <glyph glyph-name="threeeighths" unicode="&#x215c;" horiz-adv-x="764" 
d="M281 522q0 -59 -38.5 -85t-98.5 -26q-69 0 -113 19l16 58q45 -15 92 -15q34 0 51 10t17 36q0 35 -21 46.5t-78 15.5v51q83 5 83 59q0 35 -48 35q-16 0 -33.5 -3t-27.5 -7l-9 -3l-26 51q43 25 101 25q49 0 81.5 -23.5t32.5 -67.5q0 -51 -45 -84q64 -31 64 -92zM652 627
l-532 -533l-40 40l533 532zM727 97q0 -52 -37.5 -77t-99.5 -25q-60 0 -96.5 23t-36.5 72q0 37 19 60t53 42q-59 39 -59 88q0 47 34 69t91 22q55 0 88 -24t33 -61q0 -51 -65 -94q76 -44 76 -95zM641 275q0 16 -11 28.5t-37 12.5q-53 0 -53 -41q0 -25 60 -56q41 23 41 56z
M653 102q0 5 -3 10.5t-8.5 11.5t-11 10.5t-14 10t-13 9t-13 8t-9.5 5.5q-19 -11 -35.5 -31t-16.5 -39q0 -20 15 -33.5t47 -13.5q62 0 62 52z" />
    <glyph glyph-name="fiveeighths" unicode="&#x215d;" horiz-adv-x="761" 
d="M286 532q0 -57 -38.5 -89t-99.5 -32t-109 14q10 37 17 62q56 -13 91 -13q30 0 48 15t18 38q0 57 -64 57q-41 0 -96 -6v205h223v-61h-153v-77q6 0 17.5 1t16.5 1q58 0 93.5 -31t35.5 -84zM643 627l-532 -533l-40 40l533 532zM733 97q0 -52 -37.5 -77t-99.5 -25
q-60 0 -96.5 23t-36.5 72q0 37 19 60t53 42q-59 39 -59 88q0 47 34 69t91 22q55 0 88 -24t33 -61q0 -51 -65 -94q76 -44 76 -95zM647 275q0 16 -11 28.5t-37 12.5q-53 0 -53 -41q0 -25 60 -56q41 23 41 56zM659 102q0 5 -3 10.5t-8.5 11.5t-11 10.5t-14 10t-13 9t-13 8
t-9.5 5.5q-19 -11 -35.5 -31t-16.5 -39q0 -20 15 -33.5t47 -13.5q62 0 62 52z" />
    <glyph glyph-name="seveneighths" unicode="&#x215e;" horiz-adv-x="734" 
d="M287 731l-169 -329l-64 28l150 291h-171v61h254v-51zM618 627l-532 -533l-40 40l533 532zM698 97q0 -52 -37.5 -77t-99.5 -25q-60 0 -96.5 23t-36.5 72q0 37 19 60t53 42q-59 39 -59 88q0 47 34 69t91 22q55 0 88 -24t33 -61q0 -51 -65 -94q76 -44 76 -95zM612 275
q0 16 -11 28.5t-37 12.5q-53 0 -53 -41q0 -25 60 -56q41 23 41 56zM624 102q0 5 -3 10.5t-8.5 11.5t-11 10.5t-14 10t-13 9t-13 8t-9.5 5.5q-19 -11 -35.5 -31t-16.5 -39q0 -20 15 -33.5t47 -13.5q62 0 62 52z" />
    <glyph glyph-name="uni2190" unicode="&#x2190;" horiz-adv-x="795" 
d="M302 58l-242 242l241 242l49 -49l-158 -158h543v-69h-543l159 -159z" />
    <glyph glyph-name="uni2191" unicode="&#x2191;" horiz-adv-x="603" 
d="M543 464l-48 -48l-160 159v-575h-69v575l-158 -158l-48 49l241 241z" />
    <glyph glyph-name="uni2192" unicode="&#x2192;" horiz-adv-x="795" 
d="M735 300l-242 -242l-49 49l159 159h-543v69h543l-158 158l49 49z" />
    <glyph glyph-name="uni2193" unicode="&#x2193;" horiz-adv-x="603" 
d="M495 291l48 -48l-242 -243l-241 241l48 49l158 -158v575h69v-575z" />
    <glyph glyph-name="uni2196" unicode="&#x2196;" horiz-adv-x="745" 
d="M628 76l-49 -49l-384 384v-224h-69v342h343v-69h-225z" />
    <glyph glyph-name="uni2197" unicode="&#x2197;" horiz-adv-x="745" 
d="M616 524v-343h-69v225l-384 -384l-49 49l384 384h-223v69h341z" />
    <glyph glyph-name="uni2198" unicode="&#x2198;" horiz-adv-x="745" 
d="M611 376v-341h-343v69h225l-384 384l49 48l384 -384v224h69z" />
    <glyph glyph-name="uni2199" unicode="&#x2199;" horiz-adv-x="745" 
d="M624 492l-384 -384h223v-69h-341v343h69v-225l384 384z" />
    <glyph glyph-name="partialdiff" unicode="&#x2202;" horiz-adv-x="571" 
d="M270 -13q-218 0 -218 208q0 102 66.5 170.5t162.5 68.5q30 0 63 -8t52 -16l18 -8q-19 95 -82.5 160.5t-147.5 87.5l24 64q37 -6 77 -23t82.5 -49.5t76 -75t55 -105.5t21.5 -136q0 -172 -72.5 -255t-177.5 -83zM281 52q140 0 140 280v6q-70 25 -140 25q-47 0 -90 -43
t-43 -124q0 -69 37.5 -106.5t95.5 -37.5z" />
    <glyph glyph-name="Delta" unicode="&#x2206;" horiz-adv-x="722" 
d="M670 61l-42 -61h-560l-24 53l281 645l93 27zM554 77l-166 481l-24 80h-7l-27 -78l-201 -488z" />
    <glyph glyph-name="product" unicode="&#x220f;" horiz-adv-x="827" 
d="M793 53q0 -39 -5 -53h-286q-5 37 -4 48l43 12q28 8 41 36.5t13 57.5l1 119v364h-368v-364l4 -160q1 -32 22 -37l96 -26q0 -36 -5 -50h-306q-5 35 -4 44l59 22q20 7 31.5 31t11.5 49l1 127v308q0 55 -30 64l-73 21q0 30 4 41h730q0 -37 -2 -45l-52 -12q-17 -4 -23 -11.5
t-6 -27.5v-338l4 -161q1 -36 19 -40z" />
    <glyph glyph-name="summation" unicode="&#x2211;" horiz-adv-x="563" 
d="M533 175l-20 -175h-446l-29 70l189 288l-180 278l21 71h442v-161h-51q-9 47 -26.5 68t-53.5 22l-229 7l172 -269l-196 -301l234 6q51 1 83.5 31.5t45.5 71.5z" />
    <glyph glyph-name="minus" unicode="&#x2212;" 
d="M540 270h-480v65h480v-65z" />
    <glyph glyph-name="radical" unicode="&#x221a;" horiz-adv-x="623" 
d="M623 815l-273 -903l-93 -19l-146 587h-105v51q80 20 154 20q20 0 26 -7t11 -29l96 -379l21 -127h5l30 128l213 692z" />
    <glyph glyph-name="infinity" unicode="&#x221e;" horiz-adv-x="866" 
d="M222 88q-76 0 -119 64.5t-43 147.5q0 81 45 146.5t117 65.5q33 0 63.5 -14t58.5 -41.5t46.5 -50.5t42.5 -58q25 35 43 57.5t46.5 50.5t59 42t62.5 14q72 0 117 -65.5t45 -146.5q0 -83 -43 -147.5t-119 -64.5q-32 0 -62.5 14t-58.5 41.5t-46.5 50.5t-43.5 58
q-33 -47 -58 -77.5t-67.5 -58.5t-85.5 -28zM222 152q25 0 50.5 13t50 39.5t39.5 45t37 50.5q-22 32 -37 50.5t-39.5 45t-50 39.5t-50.5 13q-44 0 -71 -43.5t-27 -104.5t27 -104.5t71 -43.5zM644 152q44 0 71 43.5t27 104.5t-27 104.5t-71 43.5q-25 0 -50.5 -13t-50 -39.5
t-39.5 -45t-37 -50.5q22 -32 37 -50.5t39.5 -45t50 -39.5t50.5 -13z" />
    <glyph glyph-name="integral" unicode="&#x222b;" horiz-adv-x="331" 
d="M-82 -231l-10 83h34q32 0 46 2q51 4 79 29.5t28 86.5v559q0 111 51.5 174.5t158.5 63.5q9 0 28 -1l-18 -83q-18 3 -44 3q-51 0 -69.5 -26.5t-18.5 -80.5v-569q0 -114 -74.5 -177.5t-190.5 -63.5z" />
    <glyph glyph-name="approxequal" unicode="&#x2248;" 
d="M202 481q33 0 63.5 -16t50 -35.5t44 -35.5t46.5 -16q26 0 50.5 14.5t35.5 29.5l11 14l37 -39q-66 -91 -142 -91q-33 0 -63.5 16t-50 35.5t-44 35.5t-46.5 16q-26 0 -50.5 -14.5t-35.5 -28.5l-11 -15l-37 39q66 91 142 91zM202 302q33 0 63.5 -16t50 -35.5t44 -35.5
t46.5 -16q26 0 50.5 14.5t35.5 28.5l11 15l37 -39q-66 -91 -142 -91q-33 0 -63.5 16t-50 35.5t-44 35.5t-46.5 16q-26 0 -50.5 -14.5t-35.5 -29.5l-11 -14l-37 39q66 91 142 91z" />
    <glyph glyph-name="notequal" unicode="&#x2260;" 
d="M191 173h-131v66h173l77 121h-250v66h294l112 174l48 -31l-94 -143h120v-66h-162l-77 -121h239v-66h-283l-112 -174l-45 35z" />
    <glyph glyph-name="lessequal" unicode="&#x2264;" 
d="M513 132l-453 198v38l453 197l27 -62l-354 -154l354 -155zM60 0v66h480v-66h-480z" />
    <glyph glyph-name="greaterequal" unicode="&#x2265;" 
d="M87 132l-27 62l354 155l-354 154l27 62l453 -197v-38zM60 0v66h480v-66h-480z" />
    <glyph glyph-name="uni231A" unicode="&#x231a;" horiz-adv-x="786" 
d="M754 354q0 -150 -106 -255.5t-255 -105.5t-255 105.5t-106 255.5q0 149 106 255t255 106t255 -106t106 -255zM712 354q0 133 -93 226t-226 93t-226 -93t-93 -226t93 -226t226 -93t226 93t93 226zM557 601l-20 -25l-26 15l15 31zM660 488l-32 -15l-15 27l26 20zM690 341
h-30v31h30v-31zM277 591l-26 -16l-20 26l31 21zM659 225l-21 -31l-26 20l15 26zM410 340h-200v33h167v263h33v-296zM175 500l-15 -27l-31 15l20 32zM557 112l-32 -19l-15 30l27 15zM409 61h-30v32h30v-32zM129 341h-31v31h31v-31zM176 214l-27 -20l-20 31l32 15zM277 123
l-15 -30l-31 19l20 26z" />
    <glyph glyph-name="uni235F" unicode="&#x235f;" horiz-adv-x="666" 
d="M616 333q0 -115 -81.5 -196.5t-196.5 -81.5t-196.5 81.5t-81.5 196.5t81.5 196.5t196.5 81.5q116 0 197 -81.5t81 -196.5zM491 385l-128 -10l-30 124l-30 -124l-127 10l109 -67l-49 -118l97 84l98 -84l-50 118z" />
    <glyph glyph-name="uni24CA" unicode="&#x24ca;" horiz-adv-x="918" 
d="M460 123q-33 0 -61.5 8t-54 25t-40 49.5t-14.5 76.5v278h69v-267q0 -66 26 -92t75 -26q54 0 83.5 30t29.5 102v253h60v-262q0 -49 -16 -84.5t-42.5 -54.5t-55 -27.5t-59.5 -8.5zM462 -12q-68 0 -132 19t-122 59.5t-93 114t-35 171.5q0 172 107.5 271t272.5 99
q72 0 137 -20.5t120 -63t88 -116t33 -170.5q0 -170 -106 -267t-270 -97zM470 32q138 0 226 84.5t88 235.5q0 82 -27 146t-73.5 102.5t-102.5 58t-119 19.5q-68 0 -125 -18.5t-102.5 -56t-71.5 -100.5t-26 -145q0 -80 25 -141.5t61 -95t84 -55t86.5 -28t76.5 -6.5z" />
    <glyph glyph-name="uni25A0" unicode="&#x25a0;" horiz-adv-x="926" 
d="M816 707v-707h-706v707h706z" />
    <glyph glyph-name="uni25A1" unicode="&#x25a1;" horiz-adv-x="800" 
d="M740 694v-681h-680v681h680zM663 91v526h-526v-526h526z" />
    <glyph glyph-name="uni25AA" unicode="&#x25aa;" horiz-adv-x="766" 
d="M656 547v-547h-546v547h546z" />
    <glyph glyph-name="uni25AB" unicode="&#x25ab;" horiz-adv-x="766" 
d="M656 547v-547h-546v547h546zM579 78v392h-392v-392h392z" />
    <glyph glyph-name="uni25B6" unicode="&#x25b6;" horiz-adv-x="665" 
d="M110 -36v670l535 -335z" />
    <glyph glyph-name="uni25B7" unicode="&#x25b7;" horiz-adv-x="665" 
d="M645 299l-535 -335v670zM518 299l-334 205v-405z" />
    <glyph glyph-name="uni25B8" unicode="&#x25b8;" horiz-adv-x="465" 
d="M444 273l-334 -335v670z" />
    <glyph glyph-name="uni25B9" unicode="&#x25b9;" horiz-adv-x="465" 
d="M444 273l-334 -335v670zM334 273l-145 146v-292z" />
    <glyph glyph-name="uni25BA" unicode="&#x25ba;" horiz-adv-x="1013" 
d="M1013 273l-903 -335v670z" />
    <glyph glyph-name="uni25BB" unicode="&#x25bb;" horiz-adv-x="1013" 
d="M1013 273l-903 -335v670zM801 273l-611 219v-438z" />
    <glyph glyph-name="uni25C0" unicode="&#x25c0;" horiz-adv-x="665" 
d="M555 -36l-535 335l535 335v-670z" />
    <glyph glyph-name="uni25C1" unicode="&#x25c1;" horiz-adv-x="665" 
d="M555 -36l-535 335l535 335v-670zM481 99v405l-334 -205z" />
    <glyph glyph-name="uni25C2" unicode="&#x25c2;" horiz-adv-x="464" 
d="M354 -62l-334 336l334 334v-670z" />
    <glyph glyph-name="uni25C3" unicode="&#x25c3;" horiz-adv-x="464" 
d="M354 -62l-334 336l334 334v-670zM276 127v292l-146 -146z" />
    <glyph glyph-name="uni25C4" unicode="&#x25c4;" horiz-adv-x="1013" 
d="M903 -62l-903 334l903 336v-670z" />
    <glyph glyph-name="uni25C5" unicode="&#x25c5;" horiz-adv-x="1013" 
d="M903 -62l-903 334l903 336v-670zM823 54v438l-611 -220z" />
    <glyph glyph-name="uni25C6" unicode="&#x25c6;" horiz-adv-x="510" 
d="M255 172l-175 175l175 175l175 -175z" />
    <glyph glyph-name="uni25C9" unicode="&#x25c9;" horiz-adv-x="891" 
d="M800 353q0 -145 -104 -249q-104 -105 -250 -105q-148 0 -251 105q-104 104 -104 249q0 147 104 251t251 104q146 0 250 -104t104 -251zM747 353q0 126 -88 214q-87 87 -213 87q-127 0 -214 -87t-87 -214q0 -125 87 -212q89 -89 214 -89q126 0 213 89q88 87 88 212z
M602 353q0 -64 -46 -110q-45 -45 -110 -45q-66 0 -111 45q-46 46 -46 110q0 65 46 111t111 46q64 0 110 -46t46 -111z" />
    <glyph glyph-name="lozenge" unicode="&#x25ca;" horiz-adv-x="542" 
d="M515 353q-27 -30 -95 -151t-99 -202h-113q-21 65 -79.5 173.5t-106.5 181.5q161 254 194 352h113q17 -61 78 -172t108 -182zM426 341q-112 175 -163 313q-26 -79 -73.5 -163t-78.5 -124q94 -145 163 -312q26 72 71 153.5t81 132.5z" />
    <glyph glyph-name="uni25CB" unicode="&#x25cb;" horiz-adv-x="840" 
d="M420 -5q-149 0 -254.5 105t-105.5 254t105.5 254t254.5 105t254.5 -105t105.5 -254q0 -148 -105.5 -253.5t-254.5 -105.5zM420 72q117 0 199.5 82.5t82.5 199.5t-82.5 199.5t-199.5 82.5t-199.5 -82.5t-82.5 -199.5t82.5 -199.5t199.5 -82.5z" />
    <glyph glyph-name="uni25CE" unicode="&#x25ce;" horiz-adv-x="891" 
d="M799 361q0 -146 -104 -249q-103 -104 -249 -104q-147 0 -250 104q-104 102 -104 249t104 250q103 104 250 104t249 -104q104 -103 104 -250zM743 361q0 122 -87 211q-88 86 -210 86q-124 0 -211 -86q-86 -87 -86 -211q0 -122 86 -210q90 -87 211 -87t210 87q87 87 87 210
zM655 361q0 -85 -62 -147q-60 -61 -147 -61t-148 61t-61 147q0 87 61 148t148 61t147 -61q62 -62 62 -148zM598 361q0 63 -44 109q-46 44 -108 44q-64 0 -108 -44q-45 -45 -45 -109q0 -63 45 -108q44 -44 108 -44q62 0 108 44q44 46 44 108zM510 361q0 -27 -19 -45
q-18 -19 -45 -19t-45 19q-19 19 -19 45q0 27 19 45q17 20 45 20q26 0 45 -20q19 -18 19 -45z" />
    <glyph glyph-name="uni25CF" unicode="&#x25cf;" horiz-adv-x="766" 
d="M660 273q0 -115 -81.5 -196.5t-196.5 -81.5t-197 81.5t-82 196.5t81.5 196.5t197.5 81.5q115 0 196.5 -81.5t81.5 -196.5z" />
    <glyph glyph-name="uni25EF" unicode="&#x25ef;" horiz-adv-x="926" 
d="M821 354q0 -149 -105 -254t-253 -105q-149 0 -254 105t-105 254t105 254t254 105q148 0 253 -105t105 -254zM744 354q0 116 -82.5 198.5t-198.5 82.5q-117 0 -199.5 -82.5t-82.5 -198.5q0 -117 82.5 -199t199.5 -82q116 0 198.5 82t82.5 199z" />
    <glyph glyph-name="uni260F" unicode="&#x260f;" horiz-adv-x="658" 
d="M608 125q-89 -85 -126 -97q-16 -6 -42 4q-117 45 -250 231q-78 112 -107 182q-30 74 -33 129q5 32 10 40q12 19 57 51t72 45l102 -178l-64 -47l186 -259l58 50zM542 129l-73 80l-50 -44q-13 -13 -29 11l-219 305q-8 9 -6.5 17.5t8.5 11.5l51 43l-56 90
q-22 -12 -45.5 -41.5t-20.5 -52.5q19 -113 125 -258q125 -166 211 -207q20 -9 51 7.5t53 37.5z" />
    <glyph glyph-name="uni2610" unicode="&#x2610;" horiz-adv-x="800" 
d="M740 694v-681h-680v681h680zM663 91v526h-526v-526h526z" />
    <glyph glyph-name="uni2611" unicode="&#x2611;" horiz-adv-x="800" 
d="M483 498q9 14 40.5 27.5t55.5 15.5l8 -9q-5 -7 -32.5 -48t-35 -51.5t-31.5 -45t-38 -52t-37.5 -47t-47 -56t-50.5 -54.5h-21q-27 21 -52.5 88t-21.5 89q8 11 25 25t27 17l22 -7q2 -74 29 -125q18 21 39.5 51t38 55t42.5 65.5t40 61.5zM740 694v-681h-680v681h680zM663 91
v526h-526v-526h526z" />
    <glyph glyph-name="uni2612" unicode="&#x2612;" horiz-adv-x="766" 
d="M110 0v547h546v-547h-546zM383 314l156 155h-312zM229 78h314l-160 154zM188 118l154 155l-154 155v-310zM578 123v305l-154 -155z" />
    <glyph glyph-name="uni261A" unicode="&#x261a;" horiz-adv-x="765" 
d="M715 97h-67q-11 0 -38.5 -21t-54.5 -21h-188q-39 0 -60.5 20.5t-21.5 51.5q0 9 3 18q-21 7 -34 26t-13 41q0 14 8 32q-15 16 -15 42q0 11 6 27h-116q-35 0 -54.5 21t-19.5 50q0 30 21.5 52.5t60.5 22.5h263l-45 42q-30 29 -30 59q0 43 59 100l237 -190h98z" />
    <glyph glyph-name="uni261B" unicode="&#x261b;" horiz-adv-x="765" 
d="M117 97h-67l1 373h98l237 190q59 -57 59 -100q0 -30 -30 -59l-45 -42h263q39 0 60.5 -22.5t21.5 -52.5q0 -29 -19.5 -50t-54.5 -21h-116q6 -16 6 -27q0 -26 -15 -42q8 -18 8 -32q0 -22 -13 -41t-34 -26q3 -9 3 -18q0 -31 -21.5 -51.5t-60.5 -20.5h-188q-27 0 -54.5 21
t-38.5 21z" />
    <glyph glyph-name="uni261C" unicode="&#x261c;" horiz-adv-x="765" 
d="M715 97h-67q-11 0 -38.5 -21t-54.5 -21h-188q-39 0 -60.5 20.5t-21.5 51.5q0 9 3 18q-21 7 -34 26t-13 41q0 14 8 32q-15 16 -15 42q0 11 6 27h-116q-35 0 -54.5 21t-19.5 50q0 30 21.5 52.5t60.5 22.5h263l-45 42q-30 29 -30 59q0 43 59 100l237 -190h98v-38h-112
l-222 178q-20 -20 -20 -43q0 -29 29 -53l108 -93h-365q-21 0 -32.5 -10.5t-11.5 -25.5q0 -14 9.5 -24t26.5 -10h334v-38h-178q-8 -14 -8 -22q0 -9 7 -17.5t22 -8.5h157v-38h-175q-5 -6 -5 -22q0 -26 47 -26h133v-38h-131q-4 -4 -4 -16q0 -14 14 -23t30 -9h188q18 0 44 21
t49 21h67v-38z" />
    <glyph glyph-name="uni261D" unicode="&#x261d;" horiz-adv-x="705" 
d="M655 361l-190 -237v-124h-38v138l178 222q-20 20 -43 20q-29 0 -53 -29l-93 -108v365q0 21 -10.5 32.5t-25.5 11.5q-14 0 -24 -9.5t-10 -26.5v-334h-38v178q-14 8 -22 8q-9 0 -17.5 -7t-8.5 -22v-157h-38v175q-6 5 -22 5q-26 0 -26 -47v-133h-38v130q-4 5 -16 5
q-14 0 -23 -14t-9 -30v-188q0 -18 21 -44t21 -49v-93h-38v93q0 11 -21 38.5t-21 54.5v188q0 39 20.5 60.5t51.5 21.5q9 0 18 -3q7 21 26 34t41 13q14 0 32 -8q18 15 42 15q11 0 27 -6v116q0 35 21 54.5t50 19.5q30 0 52.5 -21.5t22.5 -60.5v-263l42 45q28 30 59 30
q43 0 100 -59z" />
    <glyph glyph-name="uni261E" unicode="&#x261e;" horiz-adv-x="765" 
d="M715 384q0 -29 -19.5 -50t-54.5 -21h-116q6 -16 6 -27q0 -24 -15 -42q8 -18 8 -32q0 -22 -13 -41t-34 -26q3 -9 3 -18q0 -31 -21.5 -51.5t-60.5 -20.5h-188q-27 0 -54.5 21t-38.5 21h-67v38h67q23 0 49 -21t44 -21h188q16 0 30 9t14 23q0 12 -5 16h-130v38h133
q47 0 47 26q0 16 -5 22h-175v38h157q15 0 22 8.5t7 17.5q0 8 -8 22h-178v38h334q17 0 26.5 10t9.5 24q0 15 -11.5 25.5t-32.5 10.5h-365l108 93q29 24 29 53q0 23 -20 43l-222 -178h-112v38h98l237 190q59 -57 59 -100q0 -30 -30 -59l-45 -42h263q39 0 60.5 -22.5
t21.5 -52.5z" />
    <glyph glyph-name="uni261F" unicode="&#x261f;" horiz-adv-x="705" 
d="M655 361l-190 -237v-124h-38v138l178 222q-20 20 -43 20q-29 0 -53 -29l-93 -108v160q0 44 -26 44q-14 0 -24 -9.5t-10 -26.5v-129h-38v337q0 17 -9.5 27.5t-21.5 10.5t-19.5 -10.5t-7.5 -27.5v-337h-38v161q-6 5 -22 5q-15 0 -20.5 -6t-5.5 -27v-133h-38v130q-4 5 -16 5
q-14 0 -23 -14t-9 -30v-188q0 -18 21 -44t21 -49v-93h-38v93q0 11 -21 38.5t-21 54.5v188q0 39 20.5 60.5t51.5 21.5q9 0 18 -3q20 33 58 33q10 0 24 -7v153q0 28 22.5 47.5t47.5 19.5q26 0 45.5 -19t19.5 -44v-156q14 6 32 6q29 0 47 -21t18 -61v-58l42 45q27 28 67 28
q22 0 42 -13t50 -44z" />
    <glyph glyph-name="uni263A" unicode="&#x263a;" horiz-adv-x="830" 
d="M415 136q-74 0 -132.5 46t-76.5 117l52 16q15 -54 58.5 -88t99.5 -34q58 0 102 35.5t56 91.5l50 -20q-16 -71 -74.5 -117.5t-134.5 -46.5zM298 397q-22 0 -37 14.5t-15 35.5t15 35.5t37 14.5q21 0 37 -14.5t16 -35.5t-16 -35.5t-37 -14.5zM415 -6q-149 0 -254 105.5
t-105 254.5t105 254t254 105t254 -105t105 -254t-105 -254.5t-254 -105.5zM415 67q119 0 203 84t84 203q0 118 -84.5 202t-202.5 84t-202.5 -84t-84.5 -202q0 -119 84 -203t203 -84zM532 397q-22 0 -37 14.5t-15 35.5t15 35.5t37 14.5q21 0 37 -14.5t16 -35.5t-16 -35.5
t-37 -14.5z" />
    </font>
</defs>
</svg>
